<svg xmlns="http://www.w3.org/2000/svg" viewBox="0 0 50 50" width="50" height="50"><circle cx="25" cy="25" r="25" fill="#ffebee"/><path d="M25,15.33566A9.66434,9.66434,0,1,0,34.66434,25,9.66434,9.66434,0,0,0,25,15.33566Zm0,4.27992a1.65674,1.65674,0,0,1,1.65674,1.65674h0a1.65675,1.65675,0,1,1-3.31349,0h0A1.65674,1.65674,0,0,1,25,19.61558Zm1.65674,10.35465c.27613,0,.55225-.13806.55225-.41418v-.96644c0-.27612-.27612-.41418-.55225-.41418h-.41418v-4.0038a.41419.41419,0,0,0-.41419-.41419H23.34326c-.27613,0-.55225.13806-.55225.41419v.96643a.55225.55225,0,0,0,.55225.55225h.41418v2.48512h-.41418c-.27613,0-.55225.13806-.55225.41418v.96644c0,.27612.27612.41418.55225.41418Z" fill="#f44336" fill-rule="evenodd"/></svg>