<svg width="50" height="50" viewBox="0 0 50 50" fill="none" xmlns="http://www.w3.org/2000/svg">
<circle cx="25" cy="25" r="25" fill="#FFF3E0"/>
<path fill-rule="evenodd" clip-rule="evenodd" d="M25 15C19.4758 15 15 19.4758 15 25C15 30.5242 19.4758 35 25 35C30.5242 35 35 30.5242 35 25C35 19.4758 30.5242 15 25 15ZM25 33.0645C20.5444 33.0645 16.9355 29.4556 16.9355 25C16.9355 20.5444 20.5444 16.9355 25 16.9355C29.4556 16.9355 33.0645 20.5444 33.0645 25C33.0645 29.4556 29.4556 33.0645 25 33.0645ZM24.0685 26.3669L27.4919 28.8548C27.7097 29.0121 28.0121 28.9637 28.1694 28.75L28.9274 27.7056C29.0847 27.4879 29.0403 27.1855 28.8226 27.0282L26.129 25.0685V19.3548C26.129 19.0887 25.9113 18.871 25.6452 18.871H24.3548C24.0887 18.871 23.871 19.0887 23.871 19.3548V25.9758C23.871 26.129 23.9435 26.2742 24.0685 26.3669Z" fill="#FF9800"/>
</svg>
