<svg width="50" height="50" viewBox="0 0 50 50" fill="none" xmlns="http://www.w3.org/2000/svg">
<circle cx="25" cy="25" r="25" fill="#E8F5E9"/>
<path fill-rule="evenodd" clip-rule="evenodd" d="M15 25C15 19.4861 19.4861 15 25 15C30.5139 15 35 19.4861 35 25C35 30.5139 30.5139 35 25 35C19.4861 35 15 30.5139 15 25ZM23.7428 29.3409L30.2043 21.6486C30.4701 21.3227 30.425 20.8438 30.103 20.5733C29.781 20.3029 29.3015 20.3411 29.0264 20.6591L23.1327 27.674L20.9553 25.2548C20.7735 25.0431 20.4912 24.9464 20.2178 25.0023C19.9444 25.0581 19.7226 25.2577 19.6384 25.5237C19.5541 25.7898 19.6206 26.0806 19.812 26.2837L22.5813 29.3606C22.7271 29.5227 22.9348 29.6153 23.1529 29.6154H23.1659C23.3889 29.6118 23.5994 29.5117 23.7428 29.3409Z" fill="#4EB900"/>
</svg>
