<svg xmlns="http://www.w3.org/2000/svg" viewBox="0 0 14 14" width="14" height="14"><path d="M6.07775,9.29806a.81054.81054,0,1,1,.81054.81053A.81146.81146,0,0,1,6.07775,9.29806ZM4.99167,5.18277A2.26707,2.26707,0,0,1,7.0055,4.11768,2.01036,2.01036,0,0,1,9.05881,5.915a1.56032,1.56032,0,0,1-.99565,1.4186c-.2606.15038-.47011.27129-.47011.4609V7.862a.28083.28083,0,0,1-.28083.28083h-.848A.28083.28083,0,0,1,6.18342,7.862V7.74747c0-.70615.52256-.99858.933-1.22826l.03-.01679c.35543-.19927.57327-.33479.57327-.59867,0-.34906-.44525-.58073-.80522-.58073a1.13522,1.13522,0,0,0-.96834.5786.28081.28081,0,0,1-.38909.04854l-.50476-.38273A.28113.28113,0,0,1,4.99167,5.18277Z" fill="#f44336" fill-rule="evenodd"/><path d="M7,1.4A5.6,5.6,0,1,1,1.4,7,5.60634,5.60634,0,0,1,7,1.4M7,0a7,7,0,1,0,7,7A7,7,0,0,0,7,0Z" fill="#f44336"/></svg>