<svg width="14" height="14" viewBox="0 0 14 14" fill="none" xmlns="http://www.w3.org/2000/svg">
<path fill-rule="evenodd" clip-rule="evenodd" d="M7 0C3.14024 0 0 3.14024 0 7C0 10.8598 3.14024 14 7 14C10.8598 14 14 10.8598 14 7C14 3.14024 10.8598 0 7 0ZM7 10.7662C6.62827 10.7662 6.32692 10.4649 6.32692 10.0931C6.32692 9.72139 6.62827 9.42005 7 9.42005C7.37173 9.42005 7.67308 9.72139 7.67308 10.0931C7.67308 10.4649 7.37173 10.7662 7 10.7662ZM7.53779 8.1025L7.73096 3.99673L7.72962 3.99707C7.74115 3.72844 7.6044 3.47513 7.37349 3.33737C7.14258 3.19962 6.85472 3.19962 6.62381 3.33737C6.39291 3.47513 6.25616 3.72844 6.26769 3.99707V3.99875L6.46087 8.1025C6.46087 8.39988 6.70194 8.64096 6.99933 8.64096C7.29671 8.64096 7.53779 8.39988 7.53779 8.1025Z" fill="#F44336"/>
</svg>
