<svg width="14" height="14" viewBox="0 0 14 14" fill="none"
    xmlns="http://www.w3.org/2000/svg">
    <path fill-rule="evenodd" clip-rule="evenodd" d="M7 0C3.13306 0 0 3.13306 0 7C0 10.8669 3.13306 14 7 14C10.8669 14 14 10.8669 14 7C14 3.13306 10.8669 0 7 0ZM7 12.6452C3.88105 12.6452 1.35484 10.119 1.35484 7C1.35484 3.88105 3.88105 1.35484 7 1.35484C10.119 1.35484 12.6452 3.88105 12.6452 7C12.6452 10.119 10.119 12.6452 7 12.6452ZM6.34798 7.95685L8.74435 9.69839C8.89677 9.80847 9.10847 9.7746 9.21855 9.625L9.74919 8.89395C9.85927 8.74153 9.82823 8.52984 9.67581 8.41976L7.79032 7.04798V3.04839C7.79032 2.8621 7.6379 2.70968 7.45161 2.70968H6.54839C6.3621 2.70968 6.20968 2.8621 6.20968 3.04839V7.68306C6.20968 7.79032 6.26048 7.89194 6.34798 7.95685Z" fill="#FF9800"/>
</svg>
