<svg width="14" height="14" viewBox="0 0 14 14" fill="none" xmlns="http://www.w3.org/2000/svg">
<path fill-rule="evenodd" clip-rule="evenodd" d="M0 7C0 3.14024 3.14024 0 7 0C10.8598 0 14 3.14024 14 7C14 10.8598 10.8598 14 7 14C3.14024 14 0 10.8598 0 7ZM9.68488 9.29851C9.7339 9.10909 9.67632 8.90799 9.53447 8.77322L7.76159 7L9.53447 5.22678C9.7356 5.01507 9.73133 4.68164 9.52485 4.47515C9.31836 4.26867 8.98493 4.2644 8.77322 4.46553L7 6.23841L5.22678 4.46553C5.01507 4.2644 4.68164 4.26867 4.47515 4.47515C4.26867 4.68164 4.2644 5.01507 4.46553 5.22678L6.23841 7L4.46553 8.77322C4.2644 8.98493 4.26867 9.31836 4.47515 9.52485C4.68164 9.73133 5.01507 9.7356 5.22678 9.53447L7 7.76159L8.77322 9.53447C8.90799 9.67632 9.10909 9.7339 9.29851 9.68488C9.48793 9.63585 9.63585 9.48793 9.68488 9.29851Z" fill="#FF0000"/>
</svg>
