<svg width="14" height="14" viewBox="0 0 14 14" fill="none" xmlns="http://www.w3.org/2000/svg">
<path fill-rule="evenodd" clip-rule="evenodd" d="M2 1.02661H12C13.1046 1.02661 14 1.9202 14 3.02251V12.004C14 13.1064 13.1046 13.9999 12 13.9999H2C0.89543 13.9999 0 13.1064 0 12.004V3.02251C0 1.9202 0.89543 1.02661 2 1.02661ZM12 2.02456H2C1.44772 2.02456 1 2.47136 1 3.02251V12.004C1 12.5552 1.44772 13.002 2 13.002H12C12.5523 13.002 13 12.5552 13 12.004V3.02251C13 2.47136 12.5523 2.02456 12 2.02456Z" fill="#4EB900"/>
<path d="M11.4695 1.49329H2.62394C1.48597 1.49329 0.560059 2.43861 0.560059 3.60029V5.50662H1.05903C1.05903 5.00495 1.55801 4.50329 2.05698 4.50329H12.0365C12.5354 4.50329 13.0344 5.00495 13.0344 5.50662H13.5334V3.60029C13.5334 2.43861 12.6075 1.49329 11.4695 1.49329Z" fill="#4EB900"/>
<circle cx="8.21322" cy="6.25338" r="0.746667" fill="#4EB900"/>
<circle cx="10.7332" cy="6.25338" r="0.746667" fill="#4EB900"/>
<circle cx="8.21322" cy="8.77328" r="0.746667" fill="#4EB900"/>
<circle cx="10.7332" cy="8.77328" r="0.746667" fill="#4EB900"/>
<circle cx="3.26669" cy="8.77328" r="0.746667" fill="#4EB900"/>
<circle cx="5.78671" cy="8.77328" r="0.746667" fill="#4EB900"/>
<circle cx="3.26669" cy="11.2933" r="0.746667" fill="#4EB900"/>
<circle cx="5.78671" cy="11.2933" r="0.746667" fill="#4EB900"/>
<circle cx="8.21322" cy="11.2933" r="0.746667" fill="#4EB900"/>
<path d="M3.03335 0C3.31348 0 3.54121 0.214188 3.54659 0.480357L3.54669 0.49V1.47C3.54669 1.74062 3.31686 1.96 3.03335 1.96C2.75322 1.96 2.5255 1.74581 2.52012 1.47964L2.52002 1.47V0.49C2.52002 0.21938 2.74985 0 3.03335 0Z" fill="#4EB900"/>
<path d="M10.9667 0C11.2468 0 11.4746 0.214188 11.4799 0.480357L11.48 0.49V1.47C11.48 1.74062 11.2502 1.96 10.9667 1.96C10.6866 1.96 10.4588 1.74581 10.4535 1.47964L10.4534 1.47V0.49C10.4534 0.21938 10.6832 0 10.9667 0Z" fill="#4EB900"/>
</svg>
