<svg width="18" height="21" viewBox="0 0 18 21" fill="none" xmlns="http://www.w3.org/2000/svg">
<path fill-rule="evenodd" clip-rule="evenodd" d="M17.5021 14.6953C17.555 14.7521 17.6058 14.8067 17.654 14.8596C17.8951 15.1237 18.002 15.4403 17.9999 15.75C17.9959 16.4227 17.4784 17.0625 16.7102 17.0625H1.28978C0.521569 17.0625 0.00447442 16.4227 5.48018e-05 15.75C-0.00195411 15.4403 0.10492 15.1241 0.34599 14.8596C0.394204 14.8067 0.445028 14.7521 0.497949 14.6953C1.29706 13.8377 2.57468 12.4665 2.57468 8.53125C2.57468 5.34434 4.7636 2.79316 7.7151 2.16727V1.3125C7.7151 0.587754 8.29045 0 9 0C9.70955 0 10.2849 0.587754 10.2849 1.3125V2.16727C13.2364 2.79316 15.4253 5.34434 15.4253 8.53125C15.4253 12.4665 16.7029 13.8377 17.5021 14.6953ZM11.5702 18.375C11.5702 19.8249 10.4191 21 9 21C7.5809 21 6.42979 19.8249 6.42979 18.375H11.5702Z" fill="#B0BEC5"/>
</svg>
