<svg width="15" height="21" viewBox="0 0 15 21" fill="none" xmlns="http://www.w3.org/2000/svg">
<path fill-rule="evenodd" clip-rule="evenodd" d="M12.75 0C13.9921 0.00129184 14.9987 1.00789 15 2.25V18.75C14.9987 19.9921 13.9921 20.9987 12.75 21H2.25C1.00789 20.9987 0.00129184 19.9921 0 18.75V2.25C0.00129184 1.00789 1.00789 0.00129184 2.25 0H12.75ZM2.25 17.625C2.25 18.2463 2.75368 18.75 3.375 18.75C3.99632 18.75 4.5 18.2463 4.5 17.625C4.5 17.0037 3.99632 16.5 3.375 16.5C2.75368 16.5 2.25 17.0037 2.25 17.625ZM3.375 15C2.75368 15 2.25 14.4963 2.25 13.875C2.25 13.2537 2.75368 12.75 3.375 12.75C3.99632 12.75 4.5 13.2537 4.5 13.875C4.5 14.4963 3.99632 15 3.375 15ZM2.25 10.125C2.25 10.7463 2.75368 11.25 3.375 11.25C3.99632 11.25 4.5 10.7463 4.5 10.125C4.5 9.50368 3.99632 9 3.375 9C2.75368 9 2.25 9.50368 2.25 10.125ZM7.5 18.75C6.87868 18.75 6.375 18.2463 6.375 17.625C6.375 17.0037 6.87868 16.5 7.5 16.5C8.12132 16.5 8.625 17.0037 8.625 17.625C8.625 18.2463 8.12132 18.75 7.5 18.75ZM6.375 13.875C6.375 14.4963 6.87868 15 7.5 15C8.12132 15 8.625 14.4963 8.625 13.875C8.625 13.2537 8.12132 12.75 7.5 12.75C6.87868 12.75 6.375 13.2537 6.375 13.875ZM7.5 11.25C6.87868 11.25 6.375 10.7463 6.375 10.125C6.375 9.50368 6.87868 9 7.5 9C8.12132 9 8.625 9.50368 8.625 10.125C8.625 10.7463 8.12132 11.25 7.5 11.25ZM11.625 18.75C12.2463 18.75 12.75 18.2463 12.75 17.625V13.875C12.75 13.2537 12.2463 12.75 11.625 12.75C11.0037 12.75 10.5 13.2537 10.5 13.875V17.625C10.5 18.2463 11.0037 18.75 11.625 18.75ZM11.625 11.25C11.0037 11.25 10.5 10.7463 10.5 10.125C10.5 9.50368 11.0037 9 11.625 9C12.2463 9 12.75 9.50368 12.75 10.125C12.75 10.7463 12.2463 11.25 11.625 11.25ZM12 6.75C12.1989 6.74991 12.3896 6.67083 12.5302 6.53016C12.6708 6.38958 12.7499 6.19888 12.75 6V3C12.75 2.58579 12.4142 2.25 12 2.25H3C2.58579 2.25 2.25 2.58579 2.25 3V6C2.25 6.41421 2.58579 6.75 3 6.75H12Z" fill="black"/>
</svg>
