<svg width="56" height="36" viewBox="0 0 56 36" fill="none" xmlns="http://www.w3.org/2000/svg">
<rect x="1" y="11" width="44" height="24" rx="4" stroke="#B0BEC5" stroke-width="2"/>
<rect x="4" y="14" width="6" height="18" rx="1" fill="#B0BEC5"/>
<circle cx="45.5" cy="10.5" r="10.5" fill="#0083C2"/>
<path d="M45.4775 16C45.763 16 45.9959 15.9116 46.1762 15.7349C46.3566 15.5582 46.4467 15.33 46.4467 15.0502L46.4464 11.3838L50.1209 11.3835C50.3531 11.3835 50.5481 11.3196 50.7058 11.1919L50.752 11.1516C50.9173 10.997 51 10.8019 51 10.5663C51 10.3307 50.9173 10.1319 50.752 9.96988C50.5867 9.8079 50.3764 9.72691 50.1209 9.72691H46.4464L46.4467 5.9498C46.4467 5.69545 46.3753 5.48369 46.2325 5.31453L46.1875 5.26506C46.0147 5.08835 45.7855 5 45.5 5C45.2145 5 44.9778 5.08835 44.79 5.26506C44.6021 5.44177 44.5082 5.67001 44.5082 5.9498L44.5079 9.72691H40.8791C40.6469 9.72691 40.4519 9.7908 40.2942 9.91858L40.248 9.95884C40.0827 10.1135 40 10.3086 40 10.5442C40 10.7798 40.0827 10.9786 40.248 11.1406C40.4133 11.3025 40.6236 11.3835 40.8791 11.3835L44.5079 11.3838L44.5082 15.0723C44.5082 15.3153 44.5871 15.5211 44.745 15.6898L44.79 15.7349C44.9778 15.9116 45.207 16 45.4775 16Z" fill="white"/>
</svg>
