<svg width="44" height="36" viewBox="0 0 44 36" fill="none" xmlns="http://www.w3.org/2000/svg">
<path fill-rule="evenodd" clip-rule="evenodd" d="M4.28838 21.12H0C0.169077 15.7025 2.22114 10.5374 5.76873 6.59998L8.8 9.76116C6.05394 12.8611 4.45377 16.8898 4.28838 21.12V21.12Z" fill="#ECEFF1"/>
<path fill-rule="evenodd" clip-rule="evenodd" d="M6.6001 5.76874C10.5578 2.21305 15.7166 0.163478 21.1201 0V4.28831C16.9005 4.44922 12.8762 6.04758 9.76081 8.8L6.6001 5.76874Z" fill="#ECEFF1"/>
<path fill-rule="evenodd" clip-rule="evenodd" d="M22.8799 0C28.2832 0.163379 33.442 2.21274 37.3999 5.76819L34.2386 8.8C31.1232 6.04794 27.0992 4.44975 22.8799 4.28873V0Z" fill="#ECEFF1"/>
<path fill-rule="evenodd" clip-rule="evenodd" d="M44.0001 22.4401C43.8584 27.0416 42.3304 31.4762 39.6374 35.1015C38.9021 35.7521 37.8496 35.8198 37.0446 35.2683L36.4256 34.6205C36.0276 33.9908 35.9694 33.1882 36.272 32.5022C38.4329 29.6272 39.6735 26.1045 39.8156 22.4399H43.9998L44.0001 22.4401Z" fill="#ECEFF1"/>
<path fill-rule="evenodd" clip-rule="evenodd" d="M35.2 9.76133L38.2314 6.59998C41.7789 10.5375 43.8308 15.7025 44 21.12H39.7112C39.5459 16.8899 37.9459 12.8612 35.2 9.76133V9.76133Z" fill="#ECEFF1"/>
<path fill-rule="evenodd" clip-rule="evenodd" d="M7.5765 34.6174L6.95282 35.2701C6.14806 35.8197 5.09715 35.7513 4.36272 35.1015C1.66965 31.4762 0.141629 27.0415 0 22.4399H4.18419C4.32638 26.1045 5.56709 29.6272 7.72808 32.5021C8.03013 33.187 7.97273 33.9881 7.5765 34.6174Z" fill="#ECEFF1"/>
<path fill-rule="evenodd" clip-rule="evenodd" d="M15.1921 14.5557C16.7776 12.2775 18.7971 11 21.915 11C25.2307 11 28.7698 13.5881 28.7698 17C28.7698 19.8177 26.8771 20.9099 25.4459 21.7358C24.5759 22.2379 23.8765 22.6415 23.8765 23.2745V23.5C23.8765 24.0178 23.4567 24.4375 22.939 24.4375H20.1081C19.5903 24.4375 19.1706 24.0178 19.1706 23.5V23.1177C19.1706 20.7603 20.9151 19.784 22.2853 19.0173C22.3189 18.9985 22.3523 18.9798 22.3854 18.9612C23.5719 18.296 24.2992 17.8436 24.2992 16.9626C24.2992 15.7973 22.8128 15.0239 21.611 15.0239C20.0826 15.0239 19.3568 15.7297 18.3784 16.9555C18.0611 17.3529 17.4846 17.4248 17.0794 17.1175L15.3943 15.8398C14.9931 15.5356 14.9044 14.969 15.1921 14.5557ZM18.8176 28.2941C18.8176 26.8021 20.0315 25.5882 21.5235 25.5882C23.0156 25.5882 24.2294 26.8021 24.2294 28.2941C24.2294 29.7861 23.0156 31 21.5235 31C20.0315 31 18.8176 29.7861 18.8176 28.2941Z" fill="#B0BEC5"/>
</svg>
