<svg width="44" height="38" viewBox="0 0 44 38" fill="none" xmlns="http://www.w3.org/2000/svg">
<path fill-rule="evenodd" clip-rule="evenodd" d="M7.72808 34.5022C8.03013 35.1871 7.97273 35.9881 7.5765 36.6174L6.95282 37.2702C6.14806 37.8198 5.09715 37.7513 4.36272 37.1015C1.66965 33.4762 0.141629 29.0416 0 24.44H4.18419C4.32638 28.1045 5.56709 31.6273 7.72808 34.5022Z" fill="#D32F2F"/>
<path fill-rule="evenodd" clip-rule="evenodd" d="M4.28838 23.12H0C0.169077 17.7025 2.22114 12.5374 5.76873 8.59998L8.8 11.7612C6.05394 14.8611 4.45377 18.8898 4.28838 23.12Z" fill="#FF9800"/>
<path fill-rule="evenodd" clip-rule="evenodd" d="M22.8799 2C28.2832 2.16338 33.442 4.21274 37.3999 7.76819L34.2386 10.8C31.1232 8.04794 27.0992 6.44975 22.8799 6.28873V2Z" fill="#ECEFF1"/>
<path fill-rule="evenodd" clip-rule="evenodd" d="M44.0001 24.4401C43.8584 29.0417 42.3304 33.4763 39.6374 37.1015C38.9021 37.7521 37.8496 37.8198 37.0446 37.2683L36.4256 36.6206C36.0276 35.9909 35.9694 35.1883 36.272 34.5022C38.4329 31.6273 39.6735 28.1045 39.8156 24.44H43.9998L44.0001 24.4401Z" fill="#ECEFF1"/>
<path fill-rule="evenodd" clip-rule="evenodd" d="M35.2 11.7613L38.2314 8.59998C41.7789 12.5375 43.8308 17.7025 44 23.12H39.7112C39.5459 18.8899 37.9459 14.8612 35.2 11.7613Z" fill="#ECEFF1"/>
<path d="M22.3929 15.256C23.7164 15.256 24.8498 15.5869 25.7932 16.2486C26.7365 16.9104 27.4476 17.8045 27.9263 18.9309C28.405 20.0432 28.6444 21.2822 28.6444 22.648C28.6444 24.0278 28.405 25.2809 27.9263 26.4073C27.4476 27.5197 26.7365 28.4067 25.7932 29.0685C24.8498 29.7161 23.7164 30.04 22.3929 30.04H17.1973C16.9157 30.04 16.6764 29.9414 16.4793 29.7443C16.2821 29.5472 16.1836 29.3078 16.1836 29.0262V16.2697C16.1836 15.9881 16.2821 15.7488 16.4793 15.5517C16.6764 15.3545 16.9157 15.256 17.1973 15.256H22.3929ZM22.1817 28.0969C23.6178 28.0969 24.6949 27.5901 25.413 26.5763C26.1311 25.5485 26.4901 24.239 26.4901 22.648C26.4901 21.071 26.1241 19.7686 25.3919 18.7408C24.6738 17.7129 23.6037 17.199 22.1817 17.199H18.2745V28.0969H22.1817Z" fill="#FFC107"/>
<g filter="url(#filter0_d_0_148)">
<path fill-rule="evenodd" clip-rule="evenodd" d="M6.6001 7.76874C10.5578 4.21305 15.7166 2.16348 21.1201 2V6.28831C16.9005 6.44922 12.8762 8.04758 9.76081 10.8L6.6001 7.76874Z" fill="#FDD835"/>
<path d="M6.15901 7.27778L5.63011 7.75295L6.14326 8.24508L9.30398 11.2763L9.74247 11.6969L10.1978 11.2946C13.1971 8.64476 17.0752 7.10304 21.1452 6.94783L21.7801 6.92362V6.28831V2V1.31973L21.1001 1.3403C15.5435 1.50841 10.2348 3.61603 6.15901 7.27778Z" stroke="white" stroke-width="1.32"/>
</g>
<defs>
<filter id="filter0_d_0_148" x="4.66016" y="0.639465" width="17.78" height="11.9543" filterUnits="userSpaceOnUse" color-interpolation-filters="sRGB">
<feFlood flood-opacity="0" result="BackgroundImageFix"/>
<feColorMatrix in="SourceAlpha" type="matrix" values="0 0 0 0 0 0 0 0 0 0 0 0 0 0 0 0 0 0 127 0" result="hardAlpha"/>
<feOffset/>
<feColorMatrix type="matrix" values="0 0 0 0 1 0 0 0 0 1 0 0 0 0 1 0 0 0 1 0"/>
<feBlend mode="normal" in2="BackgroundImageFix" result="effect1_dropShadow_0_148"/>
<feBlend mode="normal" in="SourceGraphic" in2="effect1_dropShadow_0_148" result="shape"/>
</filter>
</defs>
</svg>
