<svg width="50" height="50" viewBox="0 0 50 50" fill="none" xmlns="http://www.w3.org/2000/svg">
<circle cx="25" cy="25" r="25" fill="#ECEFF1"/>
<path d="M23.9936 35C25.0901 35 26.154 34.8404 27.1855 34.5211C28.2169 34.2019 29.1601 33.7653 30.015 33.2113C30.8699 32.6573 31.5622 32.0423 32.0919 31.3662C32.6215 30.6901 32.9235 29.9859 32.9979 29.2535C33.0164 28.8967 32.9142 28.5587 32.6912 28.2394C32.4682 27.9202 32.1244 27.7512 31.6598 27.7324C31.3996 27.7324 31.144 27.7934 30.8931 27.9155C30.6422 28.0376 30.461 28.23 30.3495 28.493C30.1079 29.169 29.7595 29.7418 29.3041 30.2113C28.8488 30.6808 28.3331 31.061 27.757 31.3521C27.1808 31.6432 26.5815 31.8545 25.9589 31.9859C25.3363 32.1174 24.7462 32.1831 24.1887 32.1831L24.4675 32.1776V27.2997L29.2345 24.6056C29.4358 24.5117 29.5984 24.3885 29.7223 24.2359L29.792 24.1408C29.9221 23.9437 29.9871 23.7418 29.9871 23.5352C29.9871 23.2723 29.8849 23.0047 29.6805 22.7324C29.4761 22.4601 29.188 22.3239 28.8163 22.3239C28.7048 22.3239 28.5933 22.3474 28.4818 22.3944C28.3703 22.4413 28.2495 22.5023 28.1194 22.5775L24.4675 24.6338V22.3764L28.0636 20.3803C28.5236 20.1565 28.7727 19.8301 28.8111 19.4012L28.8163 19.2817C28.8163 19.0188 28.7141 18.7512 28.5096 18.4789C28.3052 18.2066 28.0172 18.0704 27.6455 18.0704C27.5154 18.0704 27.3946 18.0939 27.2831 18.1408C27.1716 18.1878 27.0507 18.2488 26.9207 18.3239L24.4675 19.6847V16.4366C24.4675 16.0751 24.3679 15.7675 24.1687 15.5139L24.0772 15.4085C23.817 15.1362 23.4825 15 23.0736 15C22.6648 15 22.3256 15.1362 22.0561 15.4085C21.7866 15.6808 21.6519 16.0235 21.6519 16.4366L21.6511 21.248L18.6969 22.8873C18.254 23.0939 18.0219 23.403 18.0006 23.8147L18 23.9296C18 24.1925 18.1022 24.4648 18.3066 24.7465C18.5111 25.0282 18.8177 25.169 19.2266 25.169C19.3195 25.169 19.4124 25.1502 19.5054 25.1127C19.5983 25.0751 19.7098 25.0188 19.8399 24.9437L21.6511 23.939V26.2207L19.6169 27.3662C19.191 27.5728 18.9603 27.874 18.9248 28.27L18.9199 28.3803C18.9199 28.6432 19.0222 28.9202 19.2266 29.2113C19.431 29.5023 19.7377 29.6479 20.1465 29.6479C20.2395 29.6479 20.3324 29.6244 20.4253 29.5775C20.5182 29.5305 20.6297 29.4695 20.7598 29.3944L21.6511 28.8912L21.6519 33.5634C21.6519 33.9306 21.7877 34.2422 22.0594 34.4982L22.1676 34.5915C22.5114 34.8638 23.1201 35 23.9936 35Z" fill="#B0BEC5"/>
</svg>
