<svg width="50" height="50" viewBox="0 0 50 50" fill="none" xmlns="http://www.w3.org/2000/svg">
<path fill-rule="evenodd" clip-rule="evenodd" d="M48.7107 14.9982H40.1389V12.5998C40.1389 11.619 39.3355 10.821 38.3479 10.821H36.9949V9.08691C36.9949 8.29228 36.3441 7.6458 35.544 7.6458H34.7623V0.732422C34.7623 0.32793 34.4323 0 34.0249 0C33.6175 0 33.2874 0.32793 33.2874 0.732422V7.6458H31.6045V3.45361C31.6045 3.04912 31.2744 2.72119 30.8671 2.72119C30.4597 2.72119 30.1296 3.04912 30.1296 3.45361V7.6458H19.2612C18.4611 7.6458 17.8101 8.29228 17.8101 9.08691V10.8189L16.4572 10.821C15.4696 10.821 14.6662 11.6189 14.6662 12.5998V16.3171L9.29489 18.7487C8.92429 18.9165 8.76077 19.3509 8.92979 19.7189C9.05349 19.9885 9.32124 20.1478 9.60128 20.1478C9.70364 20.1478 9.80757 20.1265 9.90669 20.0815L14.6663 17.9269V24.9693H6.57945C5.91003 24.9693 5.36539 25.5103 5.36539 26.1751V28.9184C5.36539 29.5832 5.91003 30.1241 6.57945 30.1241H14.6663V32.9278H6.57945C5.91003 32.9278 5.36539 33.47 5.36539 34.1363V36.8769C5.36539 37.5433 5.91003 38.0854 6.57945 38.0854H14.6663V40.8891H6.57945C5.91003 40.8891 5.36539 41.43 5.36539 42.0948V44.8381C5.36539 45.5029 5.91003 46.0438 6.57945 46.0438H14.6663V48.5352H1.47493V24.2346C1.47493 23.9455 1.73609 23.778 2.52104 23.4216L6.79331 21.4878C7.16391 21.32 7.32743 20.8856 7.15851 20.5176C6.98958 20.1494 6.55211 19.9871 6.18161 20.1549L1.93029 22.0792L1.90777 22.0894L1.90765 22.0894C1.10254 22.455 0 22.9557 0 24.2346V48.8108C0 49.4665 0.53589 50 1.19459 50H48.7107C49.4216 50 50 49.4243 50 48.7167V16.2787C50 15.5727 49.4216 14.9982 48.7107 14.9982ZM40.1389 21.3435H44.1686V23.5714H40.1389V21.3435ZM44.1686 29.3048H40.1389V31.53H44.1686V29.3048ZM40.1389 37.2635H44.1686V39.4887H40.1389V37.2635ZM6.84022 26.4342V28.6594H14.6662V26.4342H6.84022ZM6.84022 36.6208V34.3929H14.6662V36.6208H6.84022ZM6.84022 42.3542V44.5794H14.6662V42.3542H6.84022ZM16.1411 12.5997C16.1411 12.4295 16.2858 12.2857 16.4583 12.2857L25.8428 12.2719C26.2501 12.2713 26.5797 11.9429 26.5792 11.5384C26.5786 11.1342 26.2486 10.807 25.8417 10.807H25.8406L19.2851 10.8167V9.11064H35.52V10.821H29.2588C28.8514 10.821 28.5213 11.1489 28.5213 11.5534C28.5213 11.9579 28.8514 12.2858 29.2588 12.2858H38.3479C38.5192 12.2858 38.664 12.4296 38.664 12.5998V48.5352H32.8839V41.2303H34.4375C34.8448 41.2303 35.1749 40.9023 35.1749 40.4979C35.1749 40.0934 34.8448 39.7654 34.4375 39.7654H32.1464H22.6588H20.3677C19.9605 39.7654 19.6303 40.0934 19.6303 40.4979C19.6303 40.9023 19.9605 41.2303 20.3677 41.2303H21.9213V48.5352H16.1412V12.5997H16.1411ZM26.665 41.2303H23.3962V48.5352H26.665V41.2303ZM28.14 48.5352V41.2303H31.4089V48.5352H28.14ZM40.1389 48.5352H48.5251V16.4633H40.1389V19.8788H44.4267C45.0976 19.8788 45.6436 20.4209 45.6436 21.0873V23.8278C45.6436 24.4941 45.0976 25.0363 44.4267 25.0363H40.1389V27.84H44.4267C45.0976 27.84 45.6436 28.381 45.6436 29.0458V31.7892C45.6436 32.454 45.0976 32.9949 44.4267 32.9949H40.1389V35.7986H44.4267C45.0976 35.7986 45.6436 36.3396 45.6436 37.0044V39.7477C45.6436 40.4125 45.0976 40.9534 44.4267 40.9534H40.1389V48.5352Z" fill="black"/>
<path fill-rule="evenodd" clip-rule="evenodd" d="M24.9472 20.8861H20.6225C20.0699 20.8861 19.6202 20.4029 19.6202 19.8087V16.2674C19.6202 15.6733 20.0699 15.1899 20.6225 15.1899H24.9472C25.4998 15.1899 25.9494 15.6733 25.9494 16.2674V19.8087C25.9494 20.4028 25.4998 20.8861 24.9472 20.8861ZM24.5026 16.7452H21.0669V19.331H24.5026V16.7452Z" fill="black"/>
<path fill-rule="evenodd" clip-rule="evenodd" d="M34.4409 20.8861H30.116C29.5635 20.8861 29.1139 20.4029 29.1139 19.8087V16.2674C29.1139 15.6733 29.5635 15.1899 30.116 15.1899H34.4409C34.9935 15.1899 35.443 15.6733 35.443 16.2674V19.8087C35.443 20.4028 34.9934 20.8861 34.4409 20.8861ZM33.9963 16.7452H30.5605V19.331H33.9963V16.7452Z" fill="black"/>
<path fill-rule="evenodd" clip-rule="evenodd" d="M24.9472 28.4811H20.6225C20.0699 28.4811 19.6202 27.9979 19.6202 27.4038V23.8653C19.6202 23.2695 20.0699 22.7849 20.6225 22.7849H24.9472C25.4998 22.7849 25.9494 23.2695 25.9494 23.8653V27.4038C25.9494 27.9978 25.4998 28.4811 24.9472 28.4811ZM24.5026 24.3401H21.0669V26.9259H24.5026V24.3401Z" fill="black"/>
<path fill-rule="evenodd" clip-rule="evenodd" d="M34.4409 28.4811H30.116C29.5635 28.4811 29.1139 27.9979 29.1139 27.4038V23.8653C29.1139 23.2695 29.5635 22.7849 30.116 22.7849H34.4409C34.9935 22.7849 35.443 23.2695 35.443 23.8653V27.4038C35.443 27.9978 34.9934 28.4811 34.4409 28.4811ZM33.9963 24.3401H30.5605V26.9259H33.9963V24.3401Z" fill="black"/>
<path fill-rule="evenodd" clip-rule="evenodd" d="M24.9472 36.0758H20.6225C20.0699 36.0758 19.6202 35.5926 19.6202 34.9986V31.4571C19.6202 30.863 20.0699 30.3796 20.6225 30.3796H24.9472C25.4998 30.3796 25.9494 30.863 25.9494 31.4571V34.9985C25.9494 35.5925 25.4998 36.0758 24.9472 36.0758ZM24.5026 31.9348H21.0669V34.5206H24.5026V31.9348Z" fill="black"/>
<path fill-rule="evenodd" clip-rule="evenodd" d="M34.4409 36.0758H30.116C29.5635 36.0758 29.1139 35.5926 29.1139 34.9986V31.4571C29.1139 30.863 29.5635 30.3796 30.116 30.3796H34.4409C34.9935 30.3796 35.443 30.863 35.443 31.4571V34.9985C35.443 35.5925 34.9934 36.0758 34.4409 36.0758ZM33.9963 31.9348H30.5605V34.5206H33.9963V31.9348Z" fill="black"/>
</svg>
