<svg width="24" height="19" viewBox="0 0 24 19" fill="none" xmlns="http://www.w3.org/2000/svg">
<path fill-rule="evenodd" clip-rule="evenodd" d="M3 0H21C22.6569 0 24 1.35332 24 3.02273V15.9773C24 17.6467 22.6569 19 21 19H3C1.34315 19 0 17.6467 0 15.9773V3.02273C0 1.35332 1.34315 0 3 0ZM21 1.72727H3C2.28992 1.72727 1.71429 2.30727 1.71429 3.02273V15.9773C1.71429 16.6927 2.28992 17.2727 3 17.2727H21C21.7101 17.2727 22.2857 16.6927 22.2857 15.9773V3.02273C22.2857 2.30727 21.7101 1.72727 21 1.72727Z" fill="#00A4F3"/>
<path d="M19.6281 3.18728C19.9987 2.88589 20.5327 2.9557 20.8209 3.3432C21.1053 3.72554 21.0441 4.27431 20.6865 4.57838L20.6718 4.59057L13.0218 10.8128C12.7202 11.0581 12.2999 11.0623 11.9941 10.8254L11.9782 10.8128L4.32819 4.59057C3.95763 4.28917 3.89088 3.73071 4.17909 3.3432C4.46345 2.96086 4.98713 2.88781 5.35697 3.17542L5.37188 3.18728L12.4999 8.98495L19.6281 3.18728Z" fill="#00A4F3"/>
</svg>
