<svg width="17" height="21" viewBox="0 0 17 21" fill="none" xmlns="http://www.w3.org/2000/svg">
<path fill-rule="evenodd" clip-rule="evenodd" d="M16.3125 9H9.75C8.50736 9 7.5 7.99264 7.5 6.75V0.1875C7.5 0.0839466 7.41605 0 7.3125 0H3C1.34315 0 0 1.34315 0 3V18C0 19.6569 1.34315 21 3 21H13.5C15.1569 21 16.5 19.6569 16.5 18V9.1875C16.5 9.08395 16.4161 9 16.3125 9ZM12 16.5H4.5C4.08579 16.5 3.75 16.1642 3.75 15.75C3.75 15.3358 4.08579 15 4.5 15H12C12.4142 15 12.75 15.3358 12.75 15.75C12.75 16.1642 12.4142 16.5 12 16.5ZM4.5 12.75H12C12.4142 12.75 12.75 12.4142 12.75 12C12.75 11.5858 12.4142 11.25 12 11.25H4.5C4.08579 11.25 3.75 11.5858 3.75 12C3.75 12.4142 4.08579 12.75 4.5 12.75Z" fill="black"/>
<path d="M15.9009 7.34014L9.15984 0.599043C9.13304 0.572396 9.09285 0.564452 9.05793 0.578894C9.023 0.593337 9.00016 0.627341 9 0.665136V6.74998C9 7.16419 9.33579 7.49998 9.75 7.49998H15.8348C15.8726 7.49982 15.9066 7.47698 15.9211 7.44205C15.9355 7.40713 15.9276 7.36694 15.9009 7.34014Z" fill="black"/>
</svg>
