<svg width="24" height="21" viewBox="0 0 24 21" fill="none" xmlns="http://www.w3.org/2000/svg">
<path fill-rule="evenodd" clip-rule="evenodd" d="M22.7786 1.71429C23.4964 1.71429 24 2.23393 24 2.94643V5.18036C24 5.26607 23.9089 5.26071 23.8393 5.21786C23.7696 5.175 23.5714 5.14286 23.4643 5.14286H0.535714C0.428571 5.14286 0.230357 5.175 0.160714 5.21786C0.0910714 5.26071 0 5.26607 0 5.18036V1.23214C0 0.551786 0.583929 0 1.32321 0H6.47143C6.92143 0 7.13571 0.123214 7.39821 0.369643L7.40893 0.380357L8.61429 1.58571C8.71071 1.68214 8.79107 1.71429 8.94107 1.71429H22.7786ZM1.69286 20.5714C0.760714 20.5714 0 19.8161 0 18.8786V7.5C0 7.02857 0.385714 6.64286 0.857143 6.64286H23.1429C23.6143 6.64286 24 7.02857 24 7.5V18.8571C24 19.8 23.2286 20.5714 22.2857 20.5714H1.69286Z" fill="white"/>
</svg>
