<svg width="15" height="15" viewBox="0 0 15 15" fill="none" xmlns="http://www.w3.org/2000/svg">
<path fill-rule="evenodd" clip-rule="evenodd" d="M7.5 0C3.35938 0 0 3.35938 0 7.5C0 11.6406 3.35938 15 7.5 15C11.6406 15 15 11.6406 15 7.5C15 3.35938 11.6406 0 7.5 0ZM7.26562 11.875C6.83415 11.875 6.48438 11.5252 6.48438 11.0938C6.48438 10.6623 6.83415 10.3125 7.26562 10.3125C7.6971 10.3125 8.04688 10.6623 8.04688 11.0938C8.04688 11.5252 7.6971 11.875 7.26562 11.875ZM7.85156 9.0625C7.85156 8.70508 7.93867 8.31563 8.57187 7.89062L8.57243 7.89025C9.35159 7.36652 10.2344 6.77312 10.2344 5.45195C10.2344 4.54805 9.71484 3.80234 8.76914 3.35508C8.45312 3.20586 7.98711 3.12188 7.49102 3.12773C6.79023 3.13633 6.19844 3.33086 5.7332 3.70508C4.83594 4.42695 4.76992 5.28203 4.76562 5.37695C4.7562 5.57233 4.85173 5.7579 5.01623 5.86374C5.18072 5.96959 5.38919 5.97964 5.5631 5.89011C5.73702 5.80058 5.84995 5.62507 5.85938 5.42969C5.85938 5.42305 5.90312 4.9707 6.41953 4.55508C6.69336 4.33477 7.04883 4.22539 7.50664 4.21953C7.87148 4.21523 8.16797 4.27695 8.30117 4.34023C8.86719 4.60938 9.14062 4.97305 9.14062 5.45195C9.14062 6.15625 8.71484 6.47656 7.96172 6.98203C7.15156 7.52617 6.75781 8.20664 6.75781 9.0625C6.75781 9.36453 7.00266 9.60938 7.30469 9.60938C7.60672 9.60938 7.85156 9.36453 7.85156 9.0625Z" fill="black"/>
</svg>
