<?xml version="1.0" encoding="UTF-8" standalone="no"?>
<!DOCTYPE svg PUBLIC "-//W3C//DTD SVG 1.1//EN" "http://www.w3.org/Graphics/SVG/1.1/DTD/svg11.dtd">
<svg xmlns="http://www.w3.org/2000/svg" xmlns:xlink="http://www.w3.org/1999/xlink" version="1.1" width="24pt" height="32pt" viewBox="0 0 24 32">
<g enable-background="new">
<clipPath id="cp0">
<path transform="matrix(1,0,0,-1,0,32)" d="M 14 23.5 L 14 32 L 1.5 32 C .66875 32 0 31.33125 0 30.5 L 0 1.5 C 0 .66875 .66875 0 1.5 0 L 22.5 0 C 23.33125 0 24 .66875 24 1.5 L 24 22 L 15.5 22 C 14.675 22 14 22.675 14 23.5 Z M 18 8.75 C 18 8.3375 17.6625 8 17.25 8 L 6.75 8 C 6.3375 8 6 8.3375 6 8.75 L 6 9.25 C 6 9.6625 6.3375 10 6.75 10 L 17.25 10 C 17.6625 10 18 9.6625 18 9.25 L 18 8.75 Z M 18 12.75 C 18 12.3375 17.6625 12 17.25 12 L 6.75 12 C 6.3375 12 6 12.3375 6 12.75 L 6 13.25 C 6 13.6625 6.3375 14 6.75 14 L 17.25 14 C 17.6625 14 18 13.6625 18 13.25 L 18 12.75 Z M 18 17.25 L 18 16.75 C 18 16.3375 17.6625 16 17.25 16 L 6.75 16 C 6.3375 16 6 16.3375 6 16.75 L 6 17.25 C 6 17.6625 6.3375 18 6.75 18 L 17.25 18 C 17.6625 18 18 17.6625 18 17.25 Z M 24 24.38125 L 24 24 L 16 24 L 16 32 L 16.38125 32 C 16.78125 32 17.1625 31.84375 17.44375 31.5625 L 23.5625 25.4375 C 23.84375 25.15625 24 24.775 24 24.38125 Z "/>
</clipPath>
<g clip-path="url(#cp0)">
<path transform="matrix(1,0,0,-1,0,32)" d="M -5 37 L 29 37 L 29 -5 L -5 -5 Z " fill="#b0bec5"/>
</g>
</g>
</svg>
