<svg width="24" height="32" viewBox="0 0 24 32" fill="none" xmlns="http://www.w3.org/2000/svg">
<path fill-rule="evenodd" clip-rule="evenodd" d="M6.58123 25.351C7.76276 27.0342 9.14714 29.0064 10.7668 31.3544C11.3626 32.2152 12.6373 32.2153 13.2332 31.3544C14.8529 29.0064 16.2372 27.0342 17.4188 25.351C22.862 17.5966 24 15.9754 24 12C24 5.37256 18.6274 0 12 0C5.37256 0 0 5.37256 0 12C0 15.9754 1.13798 17.5966 6.58123 25.351ZM17 12C17 14.7614 14.7614 17 12 17C9.23856 17 7 14.7614 7 12C7 9.23856 9.23856 7 12 7C14.7614 7 17 9.23856 17 12Z" fill="#0083C2"/>
</svg>
