<svg xmlns="http://www.w3.org/2000/svg" width="147" height="38" fill="none">
    <defs>
        <linearGradient id="a" x1="16.009" y1="22.781" x2="16.009" y2="8.746" gradientUnits="userSpaceOnUse">
            <stop stop-color="#0083C2"/>
            <stop offset="1" stop-color="#00A4F3"/>
        </linearGradient>
        <linearGradient id="b" x1="41.955" y1="31.776" x2="41.955" y2=".814" gradientUnits="userSpaceOnUse">
            <stop offset=".005" stop-color="#94D60B"/>
            <stop offset="1" stop-color="#A8F30C"/>
        </linearGradient>
    </defs>
    <path fill-rule="evenodd" clip-rule="evenodd" d="M82.074 31.769h4.541l-7.29-9.604 6.663-6.941h-4.482L73.77 22.66V8.78h-3.736v22.99h3.736V27.4l2.779-2.726 5.526 7.095Zm-14.133-8.18a9.389 9.389 0 0 0-1.03-4.476 7.447 7.447 0 0 0-2.869-3.006 8.135 8.135 0 0 0-4.168-1.069 8.346 8.346 0 0 0-4.243 1.084 7.666 7.666 0 0 0-2.943 3.02 8.911 8.911 0 0 0-1.06 4.354 8.772 8.772 0 0 0 1.09 4.384 7.648 7.648 0 0 0 3.093 3.02 10.422 10.422 0 0 0 8.336.403 6.754 6.754 0 0 0 2.719-2.012l-2.002-2.386a5.708 5.708 0 0 1-4.333 1.796 5.49 5.49 0 0 1-3.45-1.07 4.526 4.526 0 0 1-1.718-2.896h12.519c.04-.496.06-.877.06-1.146Zm-19.196 7.39a8.189 8.189 0 0 1-4.109 1.007 9.08 9.08 0 0 1-4.452-1.085 7.802 7.802 0 0 1-3.077-3.02A8.682 8.682 0 0 1 36 23.497a8.6 8.6 0 0 1 1.106-4.369 7.862 7.862 0 0 1 3.062-3.002 9.061 9.061 0 0 1 4.467-1.083 8.359 8.359 0 0 1 4.139.99 6.335 6.335 0 0 1 2.674 2.851l-2.869 1.734a4.643 4.643 0 0 0-1.718-1.72c-1.886-1.003-4.178-.668-5.722.836-.916.94-1.374 2.195-1.374 3.764 0 1.57.453 2.825 1.36 3.765 1.549 1.505 3.845 1.84 5.736.836a4.636 4.636 0 0 0 1.718-1.72l2.869 1.734a6.598 6.598 0 0 1-2.704 2.866Zm-1.89 4.493c0-1.197-.937-2.167-2.094-2.167-1.157 0-2.095.97-2.095 2.167 0 1.197.938 2.167 2.095 2.167 1.157 0 2.095-.97 2.095-2.167Zm17.53-13.308c-.246-2.36-2.217-4.12-4.51-4.027-2.297-.084-4.27 1.668-4.542 4.027h9.053Zm28.848-6.538a7.483 7.483 0 0 1 3.003-.588v.002a8.23 8.23 0 0 1 4.168 1.053 7.463 7.463 0 0 1 2.883 2.974 9.113 9.113 0 0 1 1.048 4.43 9.199 9.199 0 0 1-1.048 4.447 7.431 7.431 0 0 1-2.883 2.99 8.224 8.224 0 0 1-4.168 1.052c-2.151 0-3.854-.744-5.109-2.23v8.024h-3.735V15.224h3.556v2.167a5.8 5.8 0 0 1 2.285-1.764Zm2.584 13.045a4.667 4.667 0 0 1-2.42-.635 4.512 4.512 0 0 1-1.703-1.813 6.237 6.237 0 0 1 0-5.453 4.518 4.518 0 0 1 1.703-1.812 4.673 4.673 0 0 1 2.42-.636 4.434 4.434 0 0 1 3.392 1.425c.886.949 1.329 2.199 1.329 3.748 0 1.55-.443 2.8-1.329 3.75a4.433 4.433 0 0 1-3.391 1.425Zm12.729-13.106a12.99 12.99 0 0 1 3.735-.527c2.351 0 4.148.584 5.393 1.75 1.245 1.168 1.867 2.928 1.867 5.283v9.694h-3.525v-2.012a4.38 4.38 0 0 1-1.957 1.657 7.415 7.415 0 0 1-3.063.574 7.275 7.275 0 0 1-3.137-.636 4.882 4.882 0 0 1-2.076-1.764 4.596 4.596 0 0 1-.732-2.556 4.447 4.447 0 0 1 1.598-3.579c1.066-.899 2.744-1.348 5.035-1.348h4.123v-.247c0-1.158-.334-2.046-1.001-2.665-.667-.62-1.658-.929-2.973-.929-.898 0-1.79.147-2.644.434a6.428 6.428 0 0 0-2.196 1.207l-1.464-2.82a8.937 8.937 0 0 1 3.017-1.516Zm3.226 13.602c-.956 0-1.703-.207-2.241-.62a2.001 2.001 0 0 1-.808-1.671c0-1.466 1.076-2.2 3.228-2.2h3.854v1.92a3.596 3.596 0 0 1-1.539 1.905 4.688 4.688 0 0 1-2.495.666h.001Zm14.61-13.943v2.417h.002c1.075-1.735 2.968-2.603 5.677-2.603v3.687a4.585 4.585 0 0 0-.868-.093c-1.454 0-2.589.439-3.406 1.317-.817.878-1.225 2.143-1.225 3.795v8.025h-3.735V15.224h3.555Zm13.357-.186c-1.262-.007-2.52.17-3.734.527a8.938 8.938 0 0 0-3.018 1.517l1.464 2.819a6.434 6.434 0 0 1 2.196-1.207 8.304 8.304 0 0 1 2.644-.434c1.315 0 2.306.31 2.973.929.667.62 1.001 1.507 1.001 2.665v.247h-4.123c-2.291 0-3.969.45-5.034 1.348a4.447 4.447 0 0 0-1.599 3.58c-.012.909.243 1.8.732 2.556a4.878 4.878 0 0 0 2.077 1.764c.989.443 2.059.66 3.137.636a7.407 7.407 0 0 0 3.062-.574 4.378 4.378 0 0 0 1.957-1.657v2.012H147v-9.695c0-2.355-.623-4.115-1.868-5.282-1.245-1.167-3.042-1.75-5.393-1.75Zm-2.749 13.51c.537.412 1.284.619 2.241.619h-.002a4.685 4.685 0 0 0 2.495-.666 3.596 3.596 0 0 0 1.539-1.906v-1.92h-3.854c-2.152.002-3.227.735-3.227 2.2-.019.663.285 1.29.808 1.672Z" fill="#4F4F4F"/>
    <path d="m16 16.797-6.141-6.315a5.695 5.695 0 0 0-8.166.045c-2.248 2.311-2.259 6.05-.023 8.375l2.77 2.848c2.316 1.622 5.433 1.3 7.386-.765L16 16.797Z" fill="url(#a)"/>
    <path d="M31.428 2.56C32.986 1.031 35.271.43 37.414.98c2.144.553 3.817 2.174 4.382 4.248.565 2.074-.063 4.282-1.647 5.784L20.527 30.03c-2.24 2.173-5.824 2.343-8.273.392L3 21.662l.007-.007a6.26 6.26 0 0 0 4.378 1.702 6.25 6.25 0 0 0 4.336-1.801L31.428 2.559Z" fill="url(#b)"/>
</svg>