<?xml version="1.0" encoding="UTF-8" standalone="no"?>
<!DOCTYPE svg PUBLIC "-//W3C//DTD SVG 1.1//EN" "http://www.w3.org/Graphics/SVG/1.1/DTD/svg11.dtd">
<svg xmlns="http://www.w3.org/2000/svg" xmlns:xlink="http://www.w3.org/1999/xlink" version="1.1" width="24pt" height="17pt" viewBox="0 0 24 17">
<g enable-background="new">
<clipPath id="cp0">
<path transform="matrix(1,0,0,-1,0,17)" d="M 0 1.214286 C 0 .5437723 .537375 0 1.2 0 L 22.8 0 C 23.46262 0 24 .5437723 24 1.214286 L 24 13.35714 L 0 13.35714 L 0 1.214286 Z M 16.8 9.107143 C 16.8 9.442589 17.0685 9.714286 17.4 9.714286 L 21 9.714286 C 21.3315 9.714286 21.6 9.442589 21.6 9.107143 L 21.6 7.892857 C 21.6 7.557411 21.3315 7.285714 21 7.285714 L 17.4 7.285714 C 17.0685 7.285714 16.8 7.557411 16.8 7.892857 L 16.8 9.107143 Z M 16.8 4.553571 C 16.8 4.721295 16.93425 4.857143 17.1 4.857143 L 21.3 4.857143 C 21.46575 4.857143 21.6 4.721295 21.6 4.553571 L 21.6 3.946429 C 21.6 3.778705 21.46575 3.642857 21.3 3.642857 L 17.1 3.642857 C 16.93425 3.642857 16.8 3.778705 16.8 3.946429 L 16.8 4.553571 Z M 2.4 8.196429 C 2.4 8.364152 2.53425 8.5 2.7 8.5 L 14.1 8.5 C 14.26575 8.5 14.4 8.364152 14.4 8.196429 L 14.4 7.589286 C 14.4 7.421563 14.26575 7.285714 14.1 7.285714 L 2.7 7.285714 C 2.53425 7.285714 2.4 7.421563 2.4 7.589286 L 2.4 8.196429 Z M 2.4 4.553571 C 2.4 4.721295 2.53425 4.857143 2.7 4.857143 L 9.3 4.857143 C 9.46575 4.857143 9.6 4.721295 9.6 4.553571 L 9.6 3.946429 C 9.6 3.778705 9.46575 3.642857 9.3 3.642857 L 2.7 3.642857 C 2.53425 3.642857 2.4 3.778705 2.4 3.946429 L 2.4 4.553571 Z M 23.4 17 L .6 17 C .2685 17 0 16.7283 0 16.39286 L 0 14.57143 L 24 14.57143 L 24 16.39286 C 24 16.7283 23.7315 17 23.4 17 Z "/>
</clipPath>
<g clip-path="url(#cp0)">
<clipPath id="cp1">
<path transform="matrix(1,0,0,-1,0,17)" d="M -20 -341 L 355 -341 L 355 639 L -20 639 Z "/>
</clipPath>
<g clip-path="url(#cp1)">
<path transform="matrix(1,0,0,-1,0,17)" d="M -5 22 L 29 22 L 29 -5 L -5 -5 Z " fill="#b0bec5"/>
</g>
</g>
</g>
</svg>
