<svg width="24" height="24" viewBox="0 0 24 24" fill="none" xmlns="http://www.w3.org/2000/svg">
<path d="M23.3154 16.9593L18.0654 14.7093C17.6046 14.5129 17.0696 14.6448 16.7529 15.0327L14.4278 17.8734C10.7789 16.1529 7.84238 13.2164 6.12195 9.56748L8.96261 7.24245C9.35139 6.92624 9.48339 6.39058 9.28605 5.92993L7.03602 0.679867C6.81856 0.181292 6.27735 -0.092263 5.74694 0.0282961L0.871886 1.15331C0.361416 1.27119 -0.000117621 1.72583 2.87057e-08 2.24973C2.87057e-08 14.2733 9.74543 24 21.7503 24C22.2743 24.0003 22.7292 23.6388 22.8472 23.1281L23.9722 18.2531C24.0919 17.7201 23.8163 17.1772 23.3154 16.9593Z" fill="#00A4F3"/>
</svg>
