<svg viewBox="0 0 24 24" fill="none"
    xmlns="http://www.w3.org/2000/svg">
    <rect x="16.2857" y="16.2857" width="4.28571" height="4.28571" rx="2.14286" fill="black"/>
    <rect x="12.8571" y="12.8571" width="3.42857" height="3.42857" rx="1.71429" fill="black"/>
    <rect x="20.5714" y="20.5714" width="3.42857" height="3.42857" rx="1.71429" fill="black"/>
    <rect x="21.4286" y="12.8571" width="2.57143" height="2.57143" rx="1.28571" fill="black"/>
    <rect x="12.8571" y="21.4286" width="2.57143" height="2.57143" rx="1.28571" fill="black"/>
    <rect x="16.2857" y="3.42859" width="4.28571" height="4.28571" rx="2.14286" fill="black"/>
    <path fill-rule="evenodd" clip-rule="evenodd" d="M14.5714 0H22.2857C23.2325 0 24 0.767512 24 1.71429V9.42857C24 10.3753 23.2325 11.1429 22.2857 11.1429H14.5714C13.6246 11.1429 12.8571 10.3753 12.8571 9.42857V1.71429C12.8571 0.767512 13.6246 0 14.5714 0ZM22.2857 1.71429H14.5714V9.42857H22.2857V1.71429Z" fill="black"/>
    <rect x="3.42859" y="3.42859" width="4.28571" height="4.28571" rx="2.14286" fill="black"/>
    <path fill-rule="evenodd" clip-rule="evenodd" d="M1.71429 0H9.42857C10.3753 0 11.1429 0.767512 11.1429 1.71429V9.42857C11.1429 10.3753 10.3753 11.1429 9.42857 11.1429H1.71429C0.767512 11.1429 0 10.3753 0 9.42857V1.71429C0 0.767512 0.767512 0 1.71429 0ZM9.42857 1.71429H1.71429V9.42857H9.42857V1.71429Z" fill="black"/>
    <rect x="3.42859" y="16.2857" width="4.28571" height="4.28571" rx="2.14286" fill="black"/>
    <path fill-rule="evenodd" clip-rule="evenodd" d="M1.71429 12.8571H9.42857C10.3753 12.8571 11.1429 13.6246 11.1429 14.5714V22.2857C11.1429 23.2325 10.3753 24 9.42857 24H1.71429C0.767512 24 0 23.2325 0 22.2857V14.5714C0 13.6246 0.767512 12.8571 1.71429 12.8571ZM9.42857 14.5714H1.71429V22.2857H9.42857V14.5714Z" fill="black"/>
</svg>
