<svg xmlns="http://www.w3.org/2000/svg" viewBox="0 0 50 50" width="50" height="50"><circle cx="25" cy="25" r="25" fill="#ffebee"/><path d="M23.6825,28.28294a1.15792,1.15792,0,1,1,1.15792,1.1579A1.15923,1.15923,0,0,1,23.6825,28.28294ZM22.131,22.404a3.23868,3.23868,0,0,1,2.87689-1.52157,2.872,2.872,0,0,1,2.93331,2.56754,2.229,2.229,0,0,1-1.42236,2.02656c-.37228.21485-.67159.38757-.67159.65843v.0965a.40117.40117,0,0,1-.40117.40118H24.23463a.40117.40117,0,0,1-.40117-.40118v-.16361c0-1.00878.74651-1.42653,1.33285-1.75466l.04283-.024c.50776-.28467.81895-.47827.81895-.85524,0-.49866-.63606-.82962-1.1503-.82962a1.62177,1.62177,0,0,0-1.38335.82658.40116.40116,0,0,1-.55584.06933l-.72109-.54675A.4016.4016,0,0,1,22.131,22.404Z" fill="#f44336" fill-rule="evenodd"/><path d="M25,16.73566A8.26434,8.26434,0,1,1,16.73566,25,8.2737,8.2737,0,0,1,25,16.73566m0-1.4A9.66434,9.66434,0,1,0,34.66434,25,9.66434,9.66434,0,0,0,25,15.33566Z" fill="#f44336"/></svg>