<svg width="50" height="50" viewBox="0 0 50 50" fill="none" xmlns="http://www.w3.org/2000/svg">
<circle cx="25" cy="25" r="25" fill="#FFEBEE"/>
<path fill-rule="evenodd" clip-rule="evenodd" d="M25 15C19.4861 15 15 19.4861 15 25C15 30.5139 19.4861 35 25 35C30.5139 35 35 30.5139 35 25C35 19.4861 30.5139 15 25 15ZM25 30.3803C24.469 30.3803 24.0385 29.9498 24.0385 29.4187C24.0385 28.8877 24.469 28.4572 25 28.4572C25.531 28.4572 25.9615 28.8877 25.9615 29.4187C25.9615 29.9498 25.531 30.3803 25 30.3803ZM25.7683 26.575L26.0442 20.7096L26.0423 20.7101C26.0588 20.3263 25.8634 19.9645 25.5336 19.7677C25.2037 19.5709 24.7925 19.5709 24.4626 19.7677C24.1327 19.9645 23.9374 20.3263 23.9538 20.7101V20.7125L24.2298 26.575C24.2298 26.9998 24.5742 27.3442 24.999 27.3442C25.4239 27.3442 25.7683 26.9998 25.7683 26.575Z" fill="#F44336"/>
</svg>
