<svg width="50" height="50" viewBox="0 0 50 50" fill="none" xmlns="http://www.w3.org/2000/svg">
<circle cx="25" cy="25" r="25" fill="#FFEBEE"/>
<path fill-rule="evenodd" clip-rule="evenodd" d="M15 25C15 19.4861 19.4861 15 25 15C30.5139 15 35 19.4861 35 25C35 30.5139 30.5139 35 25 35C19.4861 35 15 30.5139 15 25ZM28.8355 28.2836C28.9056 28.013 28.8233 27.7257 28.6207 27.5332L26.088 25L28.6207 22.4668C28.908 22.1644 28.9019 21.6881 28.6069 21.3931C28.3119 21.0981 27.8356 21.092 27.5332 21.3793L25 23.912L22.4668 21.3793C22.1644 21.092 21.6881 21.0981 21.3931 21.3931C21.0981 21.6881 21.092 22.1644 21.3793 22.4668L23.912 25L21.3793 27.5332C21.092 27.8356 21.0981 28.3119 21.3931 28.6069C21.6881 28.9019 22.1644 28.908 22.4668 28.6207L25 26.088L27.5332 28.6207C27.7257 28.8233 28.013 28.9056 28.2836 28.8355C28.5542 28.7655 28.7655 28.5542 28.8355 28.2836Z" fill="#FF0000"/>
</svg>
