<svg width="50" height="50" viewBox="0 0 50 50" fill="none" xmlns="http://www.w3.org/2000/svg">
<circle cx="25" cy="25" r="25" fill="#E8F5E9"/>
<path fill-rule="evenodd" clip-rule="evenodd" d="M17.8571 16.4667H32.1429C33.7208 16.4667 35 17.7432 35 19.318V32.1487C35 33.7234 33.7208 35 32.1429 35H17.8571C16.2792 35 15 33.7234 15 32.1487V19.318C15 17.7432 16.2792 16.4667 17.8571 16.4667ZM32.1429 17.8923H17.8571C17.0682 17.8923 16.4286 18.5306 16.4286 19.318V32.1487C16.4286 32.9361 17.0682 33.5744 17.8571 33.5744H32.1429C32.9318 33.5744 33.5714 32.9361 33.5714 32.1487V19.318C33.5714 18.5306 32.9318 17.8923 32.1429 17.8923Z" fill="#4EB900"/>
<path d="M31.385 17.1334H18.7485C17.1228 17.1334 15.8 18.4838 15.8 20.1434V22.8667H16.5129C16.5129 22.15 17.2257 21.4334 17.9385 21.4334H32.1949C32.9077 21.4334 33.6206 22.15 33.6206 22.8667H34.3334V20.1434C34.3334 18.4838 33.0107 17.1334 31.385 17.1334Z" fill="#4EB900"/>
<circle cx="26.7334" cy="23.9333" r="1.06667" fill="#4EB900"/>
<circle cx="30.3333" cy="23.9333" r="1.06667" fill="#4EB900"/>
<circle cx="26.7334" cy="27.5333" r="1.06667" fill="#4EB900"/>
<circle cx="30.3333" cy="27.5333" r="1.06667" fill="#4EB900"/>
<circle cx="19.6668" cy="27.5333" r="1.06667" fill="#4EB900"/>
<circle cx="23.2666" cy="27.5333" r="1.06667" fill="#4EB900"/>
<circle cx="19.6668" cy="31.1333" r="1.06667" fill="#4EB900"/>
<circle cx="23.2666" cy="31.1333" r="1.06667" fill="#4EB900"/>
<circle cx="26.7334" cy="31.1333" r="1.06667" fill="#4EB900"/>
<path d="M19.3334 15C19.7336 15 20.0589 15.306 20.0666 15.6862L20.0668 15.7V17.1C20.0668 17.4866 19.7384 17.8 19.3334 17.8C18.9332 17.8 18.6079 17.494 18.6002 17.1138L18.6001 17.1V15.7C18.6001 15.3134 18.9284 15 19.3334 15Z" fill="#4EB900"/>
<path d="M30.6667 15C31.0669 15 31.3922 15.306 31.3999 15.6862L31.4 15.7V17.1C31.4 17.4866 31.0717 17.8 30.6667 17.8C30.2665 17.8 29.9412 17.494 29.9335 17.1138L29.9333 17.1V15.7C29.9333 15.3134 30.2617 15 30.6667 15Z" fill="#4EB900"/>
</svg>
