<svg width="14" height="14" viewBox="0 0 14 14" fill="none" xmlns="http://www.w3.org/2000/svg">
<path fill-rule="evenodd" clip-rule="evenodd" d="M0 7C0 3.14024 3.14024 0 7 0C10.8598 0 14 3.14024 14 7C14 10.8598 10.8598 14 7 14C3.14024 14 0 10.8598 0 7ZM6.11995 10.0386L10.643 4.65399C10.8291 4.42589 10.7975 4.09067 10.5721 3.90134C10.3467 3.71202 10.0111 3.73877 9.81851 3.96139L5.69288 8.87183L4.1687 7.17837C4.04143 7.03016 3.84387 6.96251 3.65247 7.0016C3.46106 7.04068 3.30584 7.18037 3.24686 7.36661C3.18788 7.55285 3.2344 7.75642 3.36841 7.89856L5.30688 10.0524C5.40895 10.1659 5.55439 10.2307 5.70702 10.2308H5.71611C5.87221 10.2283 6.01956 10.1582 6.11995 10.0386Z" fill="#4EB900"/>
</svg>
