<svg width="14" height="11" viewBox="0 0 14 11" fill="none" xmlns="http://www.w3.org/2000/svg">
<defs>
<linearGradient id="paint0_linear_914_439" x1="5.33648" y1="7.33377" x2="5.33648" y2="2.65533" gradientUnits="userSpaceOnUse">
<stop stop-color="#0083C2"/>
<stop offset="1" stop-color="#00A4F3"/>
</linearGradient>
<linearGradient id="paint1_linear_914_439" x1="13.9851" y1="10.3322" x2="13.9851" y2="0.0112933" gradientUnits="userSpaceOnUse">
<stop offset="0.00546347" stop-color="#94D60B"/>
<stop offset="1" stop-color="#A8F30C"/>
</linearGradient>
</defs>
<path d="M5.33333 5.33894L3.28618 3.23415C2.52885 2.47175 1.31383 2.47832 0.564378 3.24887C-0.185071 4.01942 -0.188557 5.26566 0.55657 6.0406L1.48 6.99003C2.25185 7.53069 3.29108 7.42305 3.94195 6.73503L5.33333 5.33894Z" fill="url(#paint0_linear_914_439)"/>
<path d="M10.4761 0.593092C10.9952 0.0839059 11.7569 -0.11691 12.4714 0.06704C13.186 0.25099 13.7435 0.791428 13.932 1.48276C14.1204 2.17408 13.9108 2.91002 13.3829 3.41061L6.84225 9.74997C6.09537 10.4745 4.90118 10.5311 4.08455 9.88076L1 6.96062L1.00226 6.95843C1.3913 7.32772 1.91654 7.53185 2.46169 7.52563C3.00684 7.51941 3.52695 7.30335 3.90686 6.92528L10.4761 0.593092Z" fill="url(#paint1_linear_914_439)"/>

</svg>
