<svg width="100" height="100" viewBox="0 0 100 100" fill="none" xmlns="http://www.w3.org/2000/svg">
<path fill-rule="evenodd" clip-rule="evenodd" d="M17.5638 79.8686C18.2503 81.4251 18.1198 83.2458 17.2193 84.676L15.8019 86.1595C13.9729 87.4085 11.5844 87.253 9.91528 85.7762C3.79465 77.5369 0.321885 67.4582 0 57H9.50951C9.83269 65.3285 12.6525 73.3347 17.5638 79.8686Z" fill="#D32F2F"/>
<path fill-rule="evenodd" clip-rule="evenodd" d="M9.74632 54H0C0.384266 41.6875 5.04803 29.9487 13.1108 21L20 28.1845C13.759 35.2297 10.1222 44.3859 9.74632 54Z" fill="#FF9800"/>
<path fill-rule="evenodd" clip-rule="evenodd" d="M52 6C64.2804 6.37132 76.0049 11.029 85 19.1095L77.8152 26C70.7347 19.7453 61.5893 16.1131 52 15.7471V6Z" fill="#ECEFF1"/>
<path fill-rule="evenodd" clip-rule="evenodd" d="M100 57.0003C99.6781 67.4584 96.2054 77.537 90.0849 85.7762C88.4136 87.2548 86.0216 87.4087 84.1921 86.1553L82.7852 84.6831C81.8807 83.252 81.7485 81.4279 82.4362 79.8687C87.3473 73.3347 90.1669 65.3285 90.4899 57H99.9993L100 57.0003Z" fill="#ECEFF1"/>
<path fill-rule="evenodd" clip-rule="evenodd" d="M80 28.1849L86.8897 21C94.9521 29.9489 99.6157 41.6876 100 54H90.2528C89.8772 44.3862 86.2408 35.2301 80 28.1849Z" fill="#ECEFF1"/>
<path d="M50.8929 36.4C53.9009 36.4 56.4769 37.152 58.6209 38.656C60.7649 40.16 62.3809 42.192 63.4689 44.752C64.5569 47.28 65.1009 50.096 65.1009 53.2C65.1009 56.336 64.5569 59.184 63.4689 61.744C62.3809 64.272 60.7649 66.288 58.6209 67.792C56.4769 69.264 53.9009 70 50.8929 70H39.0849C38.4449 70 37.9009 69.776 37.4529 69.328C37.0049 68.88 36.7809 68.336 36.7809 67.696V38.704C36.7809 38.064 37.0049 37.52 37.4529 37.072C37.9009 36.624 38.4449 36.4 39.0849 36.4H50.8929ZM50.4129 65.584C53.6769 65.584 56.1249 64.432 57.7569 62.128C59.3889 59.792 60.2049 56.816 60.2049 53.2C60.2049 49.616 59.3729 46.656 57.7089 44.32C56.0769 41.984 53.6449 40.816 50.4129 40.816H41.5329V65.584H50.4129Z" fill="#FFC107"/>
<path d="M44.8834 91.1C44.8834 92.0427 44.678 92.8967 44.2674 93.662C43.866 94.4273 43.306 95.034 42.5874 95.482C41.8687 95.9207 41.0567 96.14 40.1514 96.14C39.246 96.14 38.434 95.9207 37.7154 95.482C36.9967 95.034 36.432 94.4273 36.0214 93.662C35.62 92.8967 35.4194 92.0427 35.4194 91.1C35.4194 90.1573 35.62 89.3033 36.0214 88.538C36.432 87.7727 36.9967 87.1707 37.7154 86.732C38.434 86.284 39.246 86.06 40.1514 86.06C41.0567 86.06 41.8687 86.284 42.5874 86.732C43.306 87.1707 43.866 87.7727 44.2674 88.538C44.678 89.3033 44.8834 90.1573 44.8834 91.1ZM43.4414 91.1C43.4414 90.4 43.3014 89.77 43.0214 89.21C42.7414 88.6407 42.3494 88.1973 41.8454 87.88C41.3507 87.5533 40.786 87.39 40.1514 87.39C39.5167 87.39 38.9474 87.5487 38.4434 87.866C37.9487 88.1833 37.5614 88.6267 37.2814 89.196C37.0014 89.756 36.8614 90.3907 36.8614 91.1C36.8614 91.8 37.0014 92.4347 37.2814 93.004C37.5614 93.564 37.9487 94.0073 38.4434 94.334C38.9474 94.6513 39.5167 94.81 40.1514 94.81C40.786 94.81 41.3507 94.6513 41.8454 94.334C42.3494 94.0073 42.7414 93.564 43.0214 93.004C43.3014 92.4347 43.4414 91.8 43.4414 91.1ZM50.1294 88.496C50.3721 88.496 50.5821 88.5613 50.7594 88.692C50.9368 88.8133 51.0254 88.9673 51.0254 89.154C51.0254 89.378 50.9648 89.5507 50.8434 89.672C50.7314 89.784 50.5914 89.84 50.4234 89.84C50.3394 89.84 50.2134 89.812 50.0454 89.756C49.8494 89.6907 49.6954 89.658 49.5834 89.658C49.2941 89.658 49.0094 89.7607 48.7294 89.966C48.4588 90.162 48.2348 90.4373 48.0574 90.792C47.8894 91.1373 47.8054 91.5247 47.8054 91.954V95.328C47.8054 95.5147 47.7401 95.6733 47.6094 95.804C47.4881 95.9347 47.3294 96 47.1334 96C46.9374 96 46.7788 95.9393 46.6574 95.818C46.5361 95.6873 46.4754 95.524 46.4754 95.328V89.336C46.4754 89.1493 46.5361 88.9907 46.6574 88.86C46.7881 88.7293 46.9468 88.664 47.1334 88.664C47.3294 88.664 47.4881 88.7293 47.6094 88.86C47.7401 88.9907 47.8054 89.1493 47.8054 89.336V90.05C48.0108 89.5927 48.3188 89.224 48.7294 88.944C49.1401 88.6547 49.6068 88.5053 50.1294 88.496ZM54.2466 89.966V94.138C54.2466 94.6047 54.4566 94.838 54.8766 94.838C54.942 94.838 55.0306 94.824 55.1426 94.796C55.2546 94.7587 55.3433 94.74 55.4086 94.74C55.53 94.74 55.6326 94.7913 55.7166 94.894C55.8006 94.9967 55.8426 95.1273 55.8426 95.286C55.8426 95.482 55.7306 95.65 55.5066 95.79C55.2826 95.93 55.0306 96 54.7506 96C54.4426 96 54.158 95.9673 53.8966 95.902C53.6446 95.8367 53.416 95.6733 53.2106 95.412C53.0146 95.1413 52.9166 94.7353 52.9166 94.194V89.966H52.1046C51.9273 89.966 51.778 89.91 51.6566 89.798C51.5446 89.6767 51.4886 89.5273 51.4886 89.35C51.4886 89.1727 51.5446 89.028 51.6566 88.916C51.778 88.804 51.9273 88.748 52.1046 88.748H52.9166V87.572C52.9166 87.3853 52.9773 87.2267 53.0986 87.096C53.2293 86.9653 53.3926 86.9 53.5886 86.9C53.7753 86.9 53.9293 86.9653 54.0506 87.096C54.1813 87.2267 54.2466 87.3853 54.2466 87.572V88.748H55.4086C55.586 88.748 55.7306 88.8087 55.8426 88.93C55.964 89.042 56.0246 89.1867 56.0246 89.364C56.0246 89.5413 55.964 89.686 55.8426 89.798C55.7306 89.91 55.586 89.966 55.4086 89.966H54.2466ZM63.527 88.566C63.723 88.566 63.8817 88.6313 64.003 88.762C64.1337 88.8833 64.199 89.0467 64.199 89.252V95.328C64.199 95.5147 64.1337 95.6733 64.003 95.804C63.8817 95.9347 63.723 96 63.527 96C63.331 96 63.1723 95.9393 63.051 95.818C62.9297 95.6873 62.869 95.524 62.869 95.328V94.964C62.6263 95.2907 62.295 95.5707 61.875 95.804C61.455 96.028 61.0023 96.14 60.517 96.14C59.8823 96.14 59.3037 95.9767 58.781 95.65C58.2677 95.3233 57.8617 94.8707 57.563 94.292C57.2737 93.704 57.129 93.046 57.129 92.318C57.129 91.59 57.2737 90.9367 57.563 90.358C57.8617 89.77 58.2677 89.3127 58.781 88.986C59.2943 88.6593 59.859 88.496 60.475 88.496C60.9697 88.496 61.427 88.5987 61.847 88.804C62.2763 89.0093 62.617 89.2707 62.869 89.588V89.252C62.869 89.056 62.9297 88.8927 63.051 88.762C63.1723 88.6313 63.331 88.566 63.527 88.566ZM60.671 94.908C61.1097 94.908 61.497 94.796 61.833 94.572C62.1783 94.348 62.4443 94.04 62.631 93.648C62.827 93.256 62.925 92.8127 62.925 92.318C62.925 91.8327 62.827 91.394 62.631 91.002C62.4443 90.61 62.1783 90.302 61.833 90.078C61.497 89.8447 61.1097 89.728 60.671 89.728C60.2323 89.728 59.8403 89.84 59.495 90.064C59.159 90.288 58.893 90.596 58.697 90.988C58.5103 91.38 58.417 91.8233 58.417 92.318C58.417 92.8127 58.5103 93.256 58.697 93.648C58.893 94.04 59.159 94.348 59.495 94.572C59.8403 94.796 60.2323 94.908 60.671 94.908Z" fill="#FFC107"/>
<g filter="url(#filter0_d_0_138)">
<mask id="path-8-outside-1_0_138" maskUnits="userSpaceOnUse" x="7.59106" y="-0.0921631" width="46" height="33" fill="black">
<rect fill="white" x="7.59106" y="-0.0921631" width="46" height="33"/>
<path fill-rule="evenodd" clip-rule="evenodd" d="M15.0001 19.1107C23.9949 11.0296 35.7194 6.37151 48.0001 5.99997V15.7461C38.4101 16.1118 29.264 19.7445 22.1835 26L15.0001 19.1107Z"/>
<path fill-rule="evenodd" clip-rule="evenodd" d="M10.5911 19.039L12.9951 16.8791C22.5265 8.3159 34.9325 3.39395 47.9094 3.00134L51.0001 2.90784V18.6339L48.1144 18.744C39.2043 19.0837 30.7226 22.4589 24.1698 28.2482L22.1002 30.0767L10.5911 19.039ZM17.3034 17.1631C16.5175 17.7882 15.7493 18.4376 15.0001 19.1107L22.1835 26C29.264 19.7445 38.4101 16.1118 48.0001 15.7461V5.99997C46.996 6.03035 45.9956 6.08939 45.0001 6.17661C34.8346 7.06727 25.1806 10.897 17.3034 17.1631Z"/>
</mask>
<path fill-rule="evenodd" clip-rule="evenodd" d="M15.0001 19.1107C23.9949 11.0296 35.7194 6.37151 48.0001 5.99997V15.7461C38.4101 16.1118 29.264 19.7445 22.1835 26L15.0001 19.1107Z" fill="#FDD835"/>
<path fill-rule="evenodd" clip-rule="evenodd" d="M10.5911 19.039L12.9951 16.8791C22.5265 8.3159 34.9325 3.39395 47.9094 3.00134L51.0001 2.90784V18.6339L48.1144 18.744C39.2043 19.0837 30.7226 22.4589 24.1698 28.2482L22.1002 30.0767L10.5911 19.039ZM17.3034 17.1631C16.5175 17.7882 15.7493 18.4376 15.0001 19.1107L22.1835 26C29.264 19.7445 38.4101 16.1118 48.0001 15.7461V5.99997C46.996 6.03035 45.9956 6.08939 45.0001 6.17661C34.8346 7.06727 25.1806 10.897 17.3034 17.1631Z" fill="#FDD835"/>
<path d="M48.0001 15.7461L48.0382 16.7454L49.0001 16.7087V15.7461H48.0001ZM22.1835 26L21.4913 26.7217L22.1557 27.3589L22.8456 26.7494L22.1835 26ZM47.0001 5.99997V15.7461H49.0001V5.99997H47.0001ZM47.962 14.7469C38.1453 15.1212 28.7778 18.8397 21.5214 25.2506L22.8456 26.7494C29.7502 20.6493 38.6748 17.1025 48.0382 16.7454L47.962 14.7469ZM22.8757 25.2782L15.6923 18.389L14.3079 19.8325L21.4913 26.7217L22.8757 25.2782ZM12.9951 16.8791L14.3318 18.3669L14.3318 18.3669L12.9951 16.8791ZM10.5911 19.039L9.25443 17.5512L7.65172 18.9911L9.20672 20.4824L10.5911 19.039ZM47.9094 3.00134L47.8489 1.00226L47.9094 3.00134ZM51.0001 2.90784H53.0001V0.846414L50.9396 0.908752L51.0001 2.90784ZM51.0001 18.6339L51.0763 20.6325L53.0001 20.5591V18.6339H51.0001ZM48.1144 18.744L48.0382 16.7454L48.0382 16.7454L48.1144 18.744ZM24.1698 28.2482L25.494 29.7471L25.494 29.7471L24.1698 28.2482ZM22.1002 30.0767L20.7158 31.5202L22.0446 32.7945L23.4244 31.5755L22.1002 30.0767ZM17.3034 17.1631L18.5485 18.7283L18.5485 18.7283L17.3034 17.1631ZM45.0001 6.17661L44.8255 4.18424L44.8255 4.18424L45.0001 6.17661ZM16.3367 20.5985C24.9738 12.8388 36.244 8.35656 48.0606 7.99906L47.9396 4.00089C35.1948 4.38647 23.016 9.22048 13.6634 17.623L16.3367 20.5985ZM11.6585 15.3914L9.25443 17.5512L11.9277 20.5267L14.3318 18.3669L11.6585 15.3914ZM47.8489 1.00226C34.408 1.4089 21.5477 6.50673 11.6585 15.3914L14.3318 18.3669C23.5054 10.1251 35.4571 5.37899 47.9698 5.00043L47.8489 1.00226ZM50.9396 0.908752L47.8489 1.00226L47.9698 5.00043L51.0606 4.90692L50.9396 0.908752ZM48.1906 20.7425L51.0763 20.6325L50.9239 16.6354L48.0382 16.7454L48.1906 20.7425ZM25.494 29.7471C31.6951 24.2685 39.7338 21.065 48.1906 20.7425L48.0382 16.7454C38.6748 17.1025 29.7502 20.6493 22.8456 26.7494L25.494 29.7471ZM23.4244 31.5755L25.494 29.7471L22.8456 26.7494L20.776 28.5779L23.4244 31.5755ZM16.3367 20.5985C17.0561 19.9522 17.7937 19.3286 18.5485 18.7283L16.0583 15.5979C15.2413 16.2478 14.4426 16.923 13.6634 17.623L16.3367 20.5985ZM45.1746 8.16897C46.1322 8.08507 47.0946 8.02828 48.0606 7.99906L47.9396 4.00089C46.8973 4.03242 45.8589 4.0937 44.8255 4.18424L45.1746 8.16897ZM18.5485 18.7283C26.114 12.7101 35.3945 9.02588 45.1746 8.16897L44.8255 4.18424C34.2747 5.10867 24.2472 9.0839 16.0583 15.5979L18.5485 18.7283ZM53.0001 18.6339V2.90784H49.0001V18.6339H53.0001ZM9.20672 20.4824L20.7158 31.5202L23.4845 28.6332L11.9754 17.5955L9.20672 20.4824Z" fill="white" mask="url(#path-8-outside-1_0_138)"/>
</g>
<path fill-rule="evenodd" clip-rule="evenodd" d="M37.5594 23.2818L43.8402 27.3808L35.3829 30.459L37.5594 23.2818Z" fill="#B0BEC5"/>
<defs>
<filter id="filter0_d_0_138" x="7.65161" y="0.846436" width="45.3484" height="31.9481" filterUnits="userSpaceOnUse" color-interpolation-filters="sRGB">
<feFlood flood-opacity="0" result="BackgroundImageFix"/>
<feColorMatrix in="SourceAlpha" type="matrix" values="0 0 0 0 0 0 0 0 0 0 0 0 0 0 0 0 0 0 127 0" result="hardAlpha"/>
<feOffset/>
<feColorMatrix type="matrix" values="0 0 0 0 1 0 0 0 0 1 0 0 0 0 1 0 0 0 1 0"/>
<feBlend mode="normal" in2="BackgroundImageFix" result="effect1_dropShadow_0_138"/>
<feBlend mode="normal" in="SourceGraphic" in2="effect1_dropShadow_0_138" result="shape"/>
</filter>
</defs>
</svg>
