<svg width="106" height="94" viewBox="0 0 106 94" fill="none" xmlns="http://www.w3.org/2000/svg">
<path fill-rule="evenodd" clip-rule="evenodd" d="M17.5638 73.8686C18.2503 75.4251 18.1198 77.2458 17.2193 78.676L15.8019 80.1595C13.9729 81.4085 11.5844 81.253 9.91528 79.7762C3.79465 71.5369 0.321885 61.4582 0 51H9.50951C9.83269 59.3285 12.6525 67.3347 17.5638 73.8686Z" fill="#D32F2F"/>
<path fill-rule="evenodd" clip-rule="evenodd" d="M9.74632 48H0C0.384266 35.6875 5.04803 23.9487 13.1108 15L20 22.1845C13.759 29.2297 10.1222 38.3859 9.74632 48Z" fill="#FF9800"/>
<path fill-rule="evenodd" clip-rule="evenodd" d="M15 13.1108C23.9948 5.02967 35.7194 0.37154 48 0V9.74616C38.41 10.1119 29.2639 13.7445 22.1834 20L15 13.1108Z" fill="#FDD835"/>
<path fill-rule="evenodd" clip-rule="evenodd" d="M52 0C64.2804 0.371317 76.0049 5.02896 85 13.1095L77.8152 20C70.7347 13.7453 61.5893 10.1131 52 9.74712V0Z" fill="#AEEA00"/>
<path fill-rule="evenodd" clip-rule="evenodd" d="M100 51.0003C99.6781 61.4584 96.2054 71.537 90.0849 79.7762C88.4136 81.2548 86.0216 81.4087 84.1921 80.1553L82.7852 78.6831C81.8807 77.252 81.7485 75.4279 82.4362 73.8687C87.3473 67.3347 90.1669 59.3285 90.4899 51H99.9993L100 51.0003Z" fill="#ECEFF1"/>
<path d="M57.5523 45.664C59.3123 46.272 60.7523 47.28 61.8723 48.688C63.0243 50.064 63.6003 51.872 63.6003 54.112C63.6003 57.664 62.5603 60.208 60.4803 61.744C58.4323 63.248 55.9203 64 52.9443 64H40.6083C39.9683 64 39.4243 63.776 38.9763 63.328C38.5283 62.88 38.3043 62.336 38.3043 61.696V32.704C38.3043 32.064 38.5283 31.52 38.9763 31.072C39.4243 30.624 39.9683 30.4 40.6083 30.4H52.9443C55.8563 30.4 58.0643 31.12 59.5683 32.56C61.1043 34 61.8723 36.08 61.8723 38.8C61.8723 40.336 61.5043 41.712 60.7683 42.928C60.0323 44.112 58.9603 45.024 57.5523 45.664ZM56.9283 39.52C56.9283 38.016 56.5123 36.88 55.6803 36.112C54.8803 35.312 53.7443 34.912 52.2723 34.912H43.2003V44.272H52.3683C53.6803 44.24 54.7683 43.824 55.6323 43.024C56.4963 42.192 56.9283 41.024 56.9283 39.52ZM52.8963 59.584C54.6563 59.584 56.0643 59.136 57.1203 58.24C58.1763 57.312 58.7043 55.936 58.7043 54.112C58.7043 50.56 56.6883 48.784 52.6563 48.784H43.2003V59.584H52.8963Z" fill="#4EB900"/>
<path d="M45.5558 89.314C45.5558 89.51 45.4858 89.6733 45.3458 89.804C45.2058 89.9347 45.0425 90 44.8558 90C44.6505 90 44.4825 89.9347 44.3518 89.804C44.2305 89.6733 44.1698 89.51 44.1698 89.314V80.872C44.1698 80.6853 44.2351 80.5267 44.3658 80.396C44.4965 80.2653 44.6645 80.2 44.8698 80.2C45.0565 80.2 45.2151 80.2653 45.3458 80.396C45.4858 80.5267 45.5558 80.6853 45.5558 80.872V89.314ZM44.8698 79.458C44.6085 79.458 44.4171 79.4113 44.2958 79.318C44.1838 79.2153 44.1278 79.052 44.1278 78.828V78.604C44.1278 78.38 44.1885 78.2213 44.3098 78.128C44.4405 78.0253 44.6318 77.974 44.8838 77.974C45.1545 77.974 45.3458 78.0253 45.4578 78.128C45.5791 78.2213 45.6398 78.38 45.6398 78.604V78.828C45.6398 79.052 45.5791 79.2153 45.4578 79.318C45.3365 79.4113 45.1405 79.458 44.8698 79.458ZM53.1669 82.594C53.3629 82.594 53.5216 82.6593 53.6429 82.79C53.7736 82.9207 53.8389 83.0793 53.8389 83.266V89.314C53.8389 90.4807 53.5169 91.3533 52.8729 91.932C52.2289 92.5107 51.3796 92.8 50.3249 92.8C49.9796 92.8 49.6389 92.7673 49.3029 92.702C48.9669 92.6367 48.6916 92.548 48.4769 92.436C48.1316 92.2773 47.9589 92.0627 47.9589 91.792C47.9589 91.7453 47.9682 91.6847 47.9869 91.61C48.0429 91.4513 48.1222 91.33 48.2249 91.246C48.3276 91.162 48.4442 91.12 48.5749 91.12C48.6496 91.12 48.7196 91.134 48.7849 91.162C49.0742 91.2927 49.3309 91.3953 49.5549 91.47C49.7789 91.5447 50.0402 91.582 50.3389 91.582C51.7856 91.582 52.5089 90.84 52.5089 89.356V89.076C52.2569 89.412 51.9302 89.6733 51.5289 89.86C51.1369 90.0467 50.6842 90.14 50.1709 90.14C49.3962 90.14 48.7896 89.8927 48.3509 89.398C47.9216 88.9033 47.7069 88.2547 47.7069 87.452V83.266C47.7069 83.07 47.7676 82.9113 47.8889 82.79C48.0102 82.6593 48.1689 82.594 48.3649 82.594C48.5609 82.594 48.7196 82.6593 48.8409 82.79C48.9716 82.9207 49.0369 83.0793 49.0369 83.266V87.102C49.0369 87.718 49.1722 88.1753 49.4429 88.474C49.7136 88.7633 50.1242 88.908 50.6749 88.908C51.2069 88.908 51.6456 88.74 51.9909 88.404C52.3362 88.068 52.5089 87.634 52.5089 87.102V83.266C52.5089 83.07 52.5696 82.9113 52.6909 82.79C52.8122 82.6593 52.9709 82.594 53.1669 82.594ZM57.0743 89.328C57.0743 89.5147 57.009 89.6733 56.8783 89.804C56.757 89.9347 56.5983 90 56.4023 90C56.2156 90 56.057 89.9347 55.9263 89.804C55.805 89.6733 55.7443 89.5147 55.7443 89.328V83.266C55.7443 83.0793 55.805 82.9207 55.9263 82.79C56.057 82.6593 56.2156 82.594 56.4023 82.594C56.5983 82.594 56.757 82.6593 56.8783 82.79C57.009 82.9207 57.0743 83.0793 57.0743 83.266V89.328ZM56.4023 81.67C56.1316 81.67 55.9356 81.6233 55.8143 81.53C55.7023 81.4273 55.6463 81.2687 55.6463 81.054V80.83C55.6463 80.606 55.707 80.4473 55.8283 80.354C55.959 80.2607 56.155 80.214 56.4163 80.214C56.6776 80.214 56.8643 80.2653 56.9763 80.368C57.0976 80.4613 57.1583 80.6153 57.1583 80.83V81.054C57.1583 81.278 57.0976 81.4367 56.9763 81.53C56.855 81.6233 56.6636 81.67 56.4023 81.67Z" fill="#4EB900"/>
<g filter="url(#filter0_d_0_120)">
<mask id="path-8-outside-1_0_120" maskUnits="userSpaceOnUse" x="72.9209" y="7.59406" width="33" height="46" fill="black">
<rect fill="white" x="72.9209" y="7.59406" width="33" height="46"/>
<path fill-rule="evenodd" clip-rule="evenodd" d="M80 22.1849L86.8897 15C94.9521 23.9488 99.6157 35.6875 100 48H90.2529C89.8773 38.3861 86.2408 29.2301 80 22.1849Z"/>
<path fill-rule="evenodd" clip-rule="evenodd" d="M75.9209 22.1043L86.9582 10.5941L89.1185 12.9919C97.6675 22.4808 102.593 34.9024 102.999 47.9064L103.095 51H87.3678L87.2552 48.1171C86.9059 39.1787 83.5249 30.6884 77.7544 24.1741L75.9209 22.1043ZM90.2529 48C89.8773 38.3861 86.2408 29.2301 80 22.1849L86.8897 15C87.5636 15.7479 88.2137 16.5154 88.8396 17.301C95.0911 25.1485 98.9223 34.8113 99.8211 45C99.9089 45.9954 99.9687 46.9958 100 48H90.2529Z"/>
</mask>
<path fill-rule="evenodd" clip-rule="evenodd" d="M80 22.1849L86.8897 15C94.9521 23.9488 99.6157 35.6875 100 48H90.2529C89.8773 38.3861 86.2408 29.2301 80 22.1849Z" fill="#4EB900"/>
<path fill-rule="evenodd" clip-rule="evenodd" d="M75.9209 22.1043L86.9582 10.5941L89.1185 12.9919C97.6675 22.4808 102.593 34.9024 102.999 47.9064L103.095 51H87.3678L87.2552 48.1171C86.9059 39.1787 83.5249 30.6884 77.7544 24.1741L75.9209 22.1043ZM90.2529 48C89.8773 38.3861 86.2408 29.2301 80 22.1849L86.8897 15C87.5636 15.7479 88.2137 16.5154 88.8396 17.301C95.0911 25.1485 98.9223 34.8113 99.8211 45C99.9089 45.9954 99.9687 46.9958 100 48H90.2529Z" fill="#4EB900"/>
<path d="M80 22.1849L79.2782 21.4927L78.6403 22.158L79.2515 22.8479L80 22.1849ZM90.2529 48L89.2536 48.039L89.2912 49H90.2529V48ZM80.7218 22.877L87.6115 15.6921L86.1679 14.3079L79.2782 21.4927L80.7218 22.877ZM100 47H90.2529V49H100V47ZM91.2521 47.9609C90.8677 38.122 87.1461 28.744 80.7486 21.5218L79.2515 22.8479C85.3355 29.7162 88.8868 38.6503 89.2536 48.039L91.2521 47.9609ZM75.9209 22.1043L74.4773 20.72L73.2015 22.0506L74.4238 23.4304L75.9209 22.1043ZM86.9582 10.5941L88.4441 9.25535L87.0038 7.65677L85.5146 9.20981L86.9582 10.5941ZM89.1185 12.9919L90.6044 11.6532L90.6044 11.6532L89.1185 12.9919ZM102.999 47.9064L101 47.9688L101 47.9688L102.999 47.9064ZM103.095 51V53H105.159L105.094 50.9376L103.095 51ZM87.3678 51L85.3693 51.0781L85.4444 53H87.3678V51ZM87.2552 48.1171L89.2536 48.039L89.2536 48.039L87.2552 48.1171ZM77.7544 24.1741L76.2573 25.5003L76.2573 25.5003L77.7544 24.1741ZM88.8396 17.301L90.4039 16.0549L90.4039 16.0549L88.8396 17.301ZM99.8211 45L101.813 44.8242L101.813 44.8242L99.8211 45ZM85.4038 16.3387C93.1419 24.9275 97.6311 36.2109 98.001 48.0624L101.999 47.9376C101.6 35.1641 96.7623 22.9701 88.3756 13.6613L85.4038 16.3387ZM90.6044 11.6532L88.4441 9.25535L85.4723 11.9328L87.6326 14.3306L90.6044 11.6532ZM104.998 47.844C104.577 34.3791 99.4777 21.5021 90.6044 11.6532L87.6326 14.3306C95.8572 23.4595 100.608 35.4258 101 47.9688L104.998 47.844ZM105.094 50.9376L104.998 47.844L101 47.9688L101.096 51.0624L105.094 50.9376ZM85.2567 48.1952L85.3693 51.0781L89.3663 50.9219L89.2536 48.039L85.2567 48.1952ZM76.2573 25.5003C81.7142 31.6606 84.9251 39.707 85.2567 48.1952L89.2536 48.039C88.8868 38.6503 85.3355 29.7162 79.2515 22.8479L76.2573 25.5003ZM74.4238 23.4304L76.2573 25.5003L79.2515 22.8479L77.418 20.7781L74.4238 23.4304ZM85.4038 16.3387C86.0505 17.0565 86.6745 17.793 87.2753 18.5472L90.4039 16.0549C89.7529 15.2377 89.0767 14.4394 88.3756 13.6613L85.4038 16.3387ZM87.2753 18.5472C93.2772 26.0813 96.9639 35.3701 97.8288 45.1757L101.813 44.8242C100.881 34.2525 96.905 24.2156 90.4039 16.0549L87.2753 18.5472ZM97.8288 45.1757C97.9133 46.1335 97.9708 47.0961 98.001 48.0624L101.999 47.9376C101.967 46.8955 101.904 45.8573 101.813 44.8242L97.8288 45.1757ZM85.5146 9.20981L74.4773 20.72L77.3645 23.4885L88.4017 11.9783L85.5146 9.20981ZM87.3678 53H103.095V49H87.3678V53Z" fill="white" mask="url(#path-8-outside-1_0_120)"/>
</g>
<path fill-rule="evenodd" clip-rule="evenodd" d="M82.0222 35.8641L78.2575 42.3508L74.7409 34.0662L82.0222 35.8641Z" fill="#B0BEC5"/>
<defs>
<filter id="filter0_d_0_120" x="73.2014" y="7.6568" width="31.957" height="45.3432" filterUnits="userSpaceOnUse" color-interpolation-filters="sRGB">
<feFlood flood-opacity="0" result="BackgroundImageFix"/>
<feColorMatrix in="SourceAlpha" type="matrix" values="0 0 0 0 0 0 0 0 0 0 0 0 0 0 0 0 0 0 127 0" result="hardAlpha"/>
<feOffset/>
<feColorMatrix type="matrix" values="0 0 0 0 1 0 0 0 0 1 0 0 0 0 1 0 0 0 1 0"/>
<feBlend mode="normal" in2="BackgroundImageFix" result="effect1_dropShadow_0_120"/>
<feBlend mode="normal" in="SourceGraphic" in2="effect1_dropShadow_0_120" result="shape"/>
</filter>
</defs>
</svg>
