<svg width="24" height="18" viewBox="0 0 24 18" fill="none" xmlns="http://www.w3.org/2000/svg">
<circle cx="12" cy="10.1875" r="3.59375" fill="white"/>
<path fill-rule="evenodd" clip-rule="evenodd" d="M22.0938 3H18.6875C18.4 3 18.1313 2.875 17.9375 2.6625C16.1625 0.675 15.4938 0 14.7688 0H9.425C8.69375 0 7.975 0.675 6.19375 2.66875C6.00625 2.88125 5.73125 3 5.45 3H5.19375V2.5C5.19375 2.225 4.96875 2 4.69375 2H3.06875C2.79375 2 2.56875 2.225 2.56875 2.5V3H2.1C0.99375 3 0 3.825 0 4.91875V15.9187C0 17.0125 0.99375 18 2.09375 18H22.0938C23.1938 18 24 17.0125 24 15.9187V4.91875C24 3.825 23.1938 3 22.0938 3ZM12.25 15.525C9.10625 15.6687 6.51875 13.0813 6.6625 9.9375C6.7875 7.19375 9.00625 4.975 11.75 4.85C14.8938 4.70625 17.4813 7.29375 17.3375 10.4375C17.2125 13.1812 14.9937 15.4 12.25 15.525ZM17.1875 5.8125C17.1875 6.2625 17.55 6.625 18 6.625C18.45 6.625 18.8125 6.2625 18.8125 5.8125C18.8125 5.3625 18.45 5 18 5C17.55 5 17.1875 5.3625 17.1875 5.8125Z" fill="white"/>
</svg>
