<svg width="50" height="50" viewBox="0 0 50 50" fill="none" xmlns="http://www.w3.org/2000/svg">
<circle cx="25" cy="25" r="25" fill="#ECEFF1"/>
<path fill-rule="evenodd" clip-rule="evenodd" d="M17.8571 16.1765H32.1429C33.7208 16.1765 35 17.473 35 19.0724V32.1041C35 33.7034 33.7208 35 32.1429 35H17.8571C16.2792 35 15 33.7034 15 32.1041V19.0724C15 17.473 16.2792 16.1765 17.8571 16.1765ZM32.1429 17.6244H17.8571C17.0682 17.6244 16.4286 18.2727 16.4286 19.0724V32.1041C16.4286 32.9037 17.0682 33.552 17.8571 33.552H32.1429C32.9318 33.552 33.5714 32.9037 33.5714 32.1041V19.0724C33.5714 18.2727 32.9318 17.6244 32.1429 17.6244Z" fill="#B0BEC5"/>
<path d="M31.4172 17.353H18.5828C16.9317 17.353 15.5883 18.7385 15.5883 20.4412V23.2353H16.3122C16.3122 22.5 17.0362 21.7647 17.7602 21.7647H32.2398C32.9638 21.7647 33.6878 22.5 33.6878 23.2353H34.4118V20.4412C34.4118 18.7385 33.0683 17.353 31.4172 17.353Z" fill="#B0BEC5"/>
<circle cx="26.7647" cy="23.8235" r="1.17647" fill="#B0BEC5"/>
<circle cx="30.2941" cy="23.8235" r="1.17647" fill="#B0BEC5"/>
<circle cx="26.7647" cy="27.3529" r="1.17647" fill="#B0BEC5"/>
<circle cx="30.2941" cy="27.3529" r="1.17647" fill="#B0BEC5"/>
<circle cx="19.7059" cy="27.3529" r="1.17647" fill="#B0BEC5"/>
<circle cx="23.2353" cy="27.3529" r="1.17647" fill="#B0BEC5"/>
<circle cx="19.7059" cy="30.8823" r="1.17647" fill="#B0BEC5"/>
<circle cx="23.2353" cy="30.8823" r="1.17647" fill="#B0BEC5"/>
<circle cx="26.7647" cy="30.8823" r="1.17647" fill="#B0BEC5"/>
<path d="M19.1177 15C19.4387 15 19.6996 15.3214 19.7058 15.7208L19.7059 15.7353V17.2059C19.7059 17.612 19.4425 17.9412 19.1177 17.9412C18.7966 17.9412 18.5357 17.6198 18.5295 17.2204L18.5294 17.2059V15.7353C18.5294 15.3292 18.7928 15 19.1177 15Z" fill="#B0BEC5"/>
<path d="M30.8823 15C31.2033 15 31.4643 15.3214 31.4704 15.7208L31.4705 15.7353V17.2059C31.4705 17.612 31.2072 17.9412 30.8823 17.9412C30.5613 17.9412 30.3003 17.6198 30.2942 17.2204L30.2941 17.2059V15.7353C30.2941 15.3292 30.5574 15 30.8823 15Z" fill="#B0BEC5"/>
</svg>
