<svg width="44" height="36" viewBox="0 0 44 36" fill="none" xmlns="http://www.w3.org/2000/svg">
<path fill-rule="evenodd" clip-rule="evenodd" d="M4.28838 21.12H0C0.169077 15.7025 2.22114 10.5374 5.76873 6.59998L8.8 9.76116C6.05394 12.8611 4.45377 16.8898 4.28838 21.12Z" fill="#ECEFF1"/>
<path fill-rule="evenodd" clip-rule="evenodd" d="M6.6001 5.76874C10.5578 2.21305 15.7166 0.163478 21.1201 0V4.28831C16.9005 4.44922 12.8762 6.04758 9.76081 8.8L6.6001 5.76874Z" fill="#ECEFF1"/>
<path fill-rule="evenodd" clip-rule="evenodd" d="M22.8799 0C28.2832 0.163379 33.442 2.21274 37.3999 5.76819L34.2386 8.8C31.1232 6.04794 27.0992 4.44975 22.8799 4.28873V0Z" fill="#ECEFF1"/>
<path fill-rule="evenodd" clip-rule="evenodd" d="M44.0001 22.4401C43.8584 27.0416 42.3304 31.4762 39.6374 35.1015C38.9021 35.7521 37.8496 35.8198 37.0446 35.2683L36.4256 34.6205C36.0276 33.9908 35.9694 33.1882 36.272 32.5022C38.4329 29.6272 39.6735 26.1045 39.8156 22.4399H43.9998L44.0001 22.4401Z" fill="#ECEFF1"/>
<path fill-rule="evenodd" clip-rule="evenodd" d="M35.2 9.76133L38.2314 6.59998C41.7789 10.5375 43.8308 15.7025 44 21.12H39.7112C39.5459 16.8899 37.9459 12.8612 35.2 9.76133Z" fill="#ECEFF1"/>
<path fill-rule="evenodd" clip-rule="evenodd" d="M7.5765 34.6174L6.95282 35.2701C6.14806 35.8197 5.09715 35.7513 4.36272 35.1015C1.66965 31.4762 0.141629 27.0415 0 22.4399H4.18419C4.32638 26.1045 5.56709 29.6272 7.72808 32.5021C8.03013 33.187 7.97273 33.9881 7.5765 34.6174Z" fill="#ECEFF1"/>
<path opacity="0.75" d="M25 21.5C25 22.8819 23.8819 24 22.5 24C21.1181 24 20 22.8819 20 21.5C20 20.1181 21.1181 19 22.5 19C23.8819 19 25 20.1181 25 21.5Z" fill="black"/>
<path opacity="0.5" d="M29.5 19C28.1181 19 27 20.1181 27 21.5C27 22.8819 28.1181 24 29.5 24C30.8819 24 32 22.8819 32 21.5C32 20.1181 30.8819 19 29.5 19Z" fill="black"/>
<path d="M15.5 19C14.1181 19 13 20.1181 13 21.5C13 22.8819 14.1181 24 15.5 24C16.8819 24 18 22.8819 18 21.5C18 20.1181 16.8819 19 15.5 19Z" fill="black"/>
</svg>
