<svg width="46" height="38" viewBox="0 0 46 38" fill="none" xmlns="http://www.w3.org/2000/svg">
<path fill-rule="evenodd" clip-rule="evenodd" d="M7.72808 32.5022C8.03013 33.1871 7.97273 33.9881 7.5765 34.6174L6.95282 35.2702C6.14806 35.8198 5.09715 35.7513 4.36272 35.1015C1.66965 31.4762 0.141629 27.0416 0 22.44H4.18419C4.32638 26.1045 5.56709 29.6273 7.72808 32.5022Z" fill="#D32F2F"/>
<path fill-rule="evenodd" clip-rule="evenodd" d="M4.28838 21.12H0C0.169077 15.7025 2.22114 10.5374 5.76873 6.59998L8.8 9.76116C6.05394 12.8611 4.45377 16.8898 4.28838 21.12Z" fill="#FF9800"/>
<path fill-rule="evenodd" clip-rule="evenodd" d="M6.6001 5.76874C10.5578 2.21305 15.7166 0.163478 21.1201 0V4.28831C16.9005 4.44922 12.8762 6.04758 9.76081 8.8L6.6001 5.76874Z" fill="#FDD835"/>
<path fill-rule="evenodd" clip-rule="evenodd" d="M22.8799 0C28.2832 0.163379 33.442 2.21274 37.3999 5.76819L34.2386 8.8C31.1232 6.04794 27.0992 4.44975 22.8799 4.28873V0Z" fill="#AEEA00"/>
<path fill-rule="evenodd" clip-rule="evenodd" d="M44.0001 22.4401C43.8584 27.0417 42.3304 31.4763 39.6374 35.1015C38.9021 35.7521 37.8496 35.8198 37.0446 35.2683L36.4256 34.6206C36.0276 33.9909 35.9694 33.1883 36.272 32.5022C38.4329 29.6273 39.6735 26.1045 39.8156 22.44H43.9998L44.0001 22.4401Z" fill="#ECEFF1"/>
<path d="M25.7762 21.872C26.6562 22.176 27.3762 22.68 27.9362 23.384C28.5122 24.072 28.8002 24.976 28.8002 26.096C28.8002 27.872 28.2802 29.144 27.2402 29.912C26.2162 30.664 24.9602 31.04 23.4722 31.04H17.3042C16.9842 31.04 16.7122 30.928 16.4882 30.704C16.2642 30.48 16.1522 30.208 16.1522 29.888V15.392C16.1522 15.072 16.2642 14.8 16.4882 14.576C16.7122 14.352 16.9842 14.24 17.3042 14.24H23.4722C24.9282 14.24 26.0322 14.6 26.7842 15.32C27.5522 16.04 27.9362 17.08 27.9362 18.44C27.9362 19.208 27.7522 19.896 27.3842 20.504C27.0162 21.096 26.4802 21.552 25.7762 21.872ZM25.4642 18.8C25.4642 18.048 25.2562 17.48 24.8402 17.096C24.4402 16.696 23.8722 16.496 23.1362 16.496H18.6002V21.176H23.1842C23.8402 21.16 24.3842 20.952 24.8162 20.552C25.2482 20.136 25.4642 19.552 25.4642 18.8ZM23.4482 28.832C24.3282 28.832 25.0322 28.608 25.5602 28.16C26.0882 27.696 26.3522 27.008 26.3522 26.096C26.3522 24.32 25.3442 23.432 23.3282 23.432H18.6002V28.832H23.4482Z" fill="#4EB900"/>
<g filter="url(#filter0_d_0_130)">
<path fill-rule="evenodd" clip-rule="evenodd" d="M35.2 9.76133L38.2314 6.59998C41.7789 10.5375 43.8308 15.7025 44 21.12H39.7112C39.5459 16.8899 37.9459 12.8612 35.2 9.76133Z" fill="#4EB900"/>
<path d="M34.7236 9.30453L34.3025 9.7436L34.7059 10.199C37.3484 13.1821 38.8922 17.0642 39.0517 21.1457L39.0765 21.78H39.7112H44H44.6809L44.6596 21.0994C44.4858 15.5298 42.3762 10.2145 38.7217 6.1582L38.2465 5.63067L37.755 6.14317L34.7236 9.30453Z" stroke="white" stroke-width="1.32"/>
</g>
<defs>
<filter id="filter0_d_0_130" x="34.2119" y="4.66138" width="11.1499" height="17.7786" filterUnits="userSpaceOnUse" color-interpolation-filters="sRGB">
<feFlood flood-opacity="0" result="BackgroundImageFix"/>
<feColorMatrix in="SourceAlpha" type="matrix" values="0 0 0 0 0 0 0 0 0 0 0 0 0 0 0 0 0 0 127 0" result="hardAlpha"/>
<feOffset/>
<feColorMatrix type="matrix" values="0 0 0 0 1 0 0 0 0 1 0 0 0 0 1 0 0 0 1 0"/>
<feBlend mode="normal" in2="BackgroundImageFix" result="effect1_dropShadow_0_130"/>
<feBlend mode="normal" in="SourceGraphic" in2="effect1_dropShadow_0_130" result="shape"/>
</filter>
</defs>
</svg>
