<svg width="46" height="37" viewBox="0 0 46 37" fill="none" xmlns="http://www.w3.org/2000/svg">
<path fill-rule="evenodd" clip-rule="evenodd" d="M6.28838 21.12H2C2.16908 15.7025 4.22114 10.5374 7.76873 6.59998L10.8 9.76116C8.05394 12.8611 6.45377 16.8898 6.28838 21.12Z" fill="#ECEFF1"/>
<path fill-rule="evenodd" clip-rule="evenodd" d="M8.6001 5.76874C12.5578 2.21305 17.7166 0.163478 23.1201 0V4.28831C18.9005 4.44922 14.8762 6.04758 11.7608 8.8L8.6001 5.76874Z" fill="#ECEFF1"/>
<path fill-rule="evenodd" clip-rule="evenodd" d="M24.8799 0C30.2832 0.163379 35.442 2.21274 39.3999 5.76819L36.2386 8.8C33.1232 6.04794 29.0992 4.44975 24.8799 4.28873V0Z" fill="#ECEFF1"/>
<path fill-rule="evenodd" clip-rule="evenodd" d="M46.0001 22.4401C45.8584 27.0416 44.3304 31.4762 41.6374 35.1015C40.9021 35.7521 39.8496 35.8198 39.0446 35.2683L38.4256 34.6205C38.0276 33.9908 37.9694 33.1882 38.272 32.5022C40.4329 29.6272 41.6735 26.1045 41.8156 22.4399H45.9998L46.0001 22.4401Z" fill="#ECEFF1"/>
<path fill-rule="evenodd" clip-rule="evenodd" d="M37.2 9.76133L40.2314 6.59998C43.7789 10.5375 45.8308 15.7025 46 21.12H41.7112C41.5459 16.8899 39.9459 12.8612 37.2 9.76133Z" fill="#ECEFF1"/>
<path d="M21.8621 15.1991V19.5709H27.0576C27.3533 19.5709 27.5927 19.6624 27.7757 19.8455C27.9728 20.0285 28.0714 20.2679 28.0714 20.5636C28.0714 20.817 27.9728 21.0352 27.7757 21.2183C27.5927 21.4013 27.3533 21.4928 27.0576 21.4928H21.8621V27.0263C21.8621 27.3079 21.7565 27.5472 21.5453 27.7444C21.3482 27.9415 21.1088 28.04 20.8272 28.04C20.5315 28.04 20.2851 27.9415 20.088 27.7444C19.8909 27.5472 19.7923 27.3079 19.7923 27.0263V14.2698C19.7923 13.9882 19.8909 13.7488 20.088 13.5517C20.2851 13.3546 20.5245 13.256 20.8061 13.256H28.008C28.3037 13.256 28.5431 13.3476 28.7261 13.5306C28.9232 13.7136 29.0218 13.953 29.0218 14.2487C29.0218 14.5021 28.9232 14.7274 28.7261 14.9245C28.529 15.1076 28.2896 15.1991 28.008 15.1991H21.8621Z" fill="#D32F2F"/>
<g filter="url(#filter0_d_0_188)">
<path fill-rule="evenodd" clip-rule="evenodd" d="M9.72808 32.5021C10.0301 33.187 9.97273 33.9881 9.5765 34.6174L8.95282 35.2701C8.14806 35.8197 7.09715 35.7513 6.36272 35.1015C3.66965 31.4762 2.14163 27.0415 2 22.4399H6.18419C6.32638 26.1045 7.56709 29.6272 9.72808 32.5021Z" fill="#D32F2F"/>
<path d="M10.332 32.2358L10.3013 32.1663L10.2557 32.1055C8.17704 29.3402 6.98079 25.9475 6.84369 22.4144L6.81907 21.7799H6.18419H2H1.31937L1.34031 22.4602C1.486 27.1938 3.05778 31.7593 5.83291 35.495L5.8739 35.5502L5.92538 35.5958C6.88416 36.4441 8.2684 36.5367 9.32503 35.8151L9.38219 35.7761L9.43001 35.7261L10.0537 35.0733L10.0996 35.0253L10.135 34.969C10.6491 34.1526 10.7218 33.1198 10.332 32.2358Z" stroke="white" stroke-width="1.32"/>
</g>
<defs>
<filter id="filter0_d_0_188" x="0.638672" y="21.12" width="10.6013" height="15.84" filterUnits="userSpaceOnUse" color-interpolation-filters="sRGB">
<feFlood flood-opacity="0" result="BackgroundImageFix"/>
<feColorMatrix in="SourceAlpha" type="matrix" values="0 0 0 0 0 0 0 0 0 0 0 0 0 0 0 0 0 0 127 0" result="hardAlpha"/>
<feOffset/>
<feColorMatrix type="matrix" values="0 0 0 0 1 0 0 0 0 1 0 0 0 0 1 0 0 0 1 0"/>
<feBlend mode="normal" in2="BackgroundImageFix" result="effect1_dropShadow_0_188"/>
<feBlend mode="normal" in="SourceGraphic" in2="effect1_dropShadow_0_188" result="shape"/>
</filter>
</defs>
</svg>
