<svg width="44" height="38" viewBox="0 0 44 38" fill="none" xmlns="http://www.w3.org/2000/svg">
<path fill-rule="evenodd" clip-rule="evenodd" d="M7.72808 34.5022C8.03013 35.1871 7.97273 35.9881 7.5765 36.6174L6.95282 37.2702C6.14806 37.8198 5.09715 37.7513 4.36272 37.1015C1.66965 33.4762 0.141629 29.0416 0 24.44H4.18419C4.32638 28.1045 5.56709 31.6273 7.72808 34.5022Z" fill="#D32F2F"/>
<path fill-rule="evenodd" clip-rule="evenodd" d="M4.28838 23.12H0C0.169077 17.7025 2.22114 12.5374 5.76873 8.59998L8.8 11.7612C6.05394 14.8611 4.45377 18.8898 4.28838 23.12Z" fill="#FF9800"/>
<path fill-rule="evenodd" clip-rule="evenodd" d="M6.6001 7.76874C10.5578 4.21305 15.7166 2.16348 21.1201 2V6.28831C16.9005 6.44922 12.8762 8.04758 9.76081 10.8L6.6001 7.76874Z" fill="#FDD835"/>
<path fill-rule="evenodd" clip-rule="evenodd" d="M44.0001 24.4401C43.8584 29.0417 42.3304 33.4763 39.6374 37.1015C38.9021 37.7521 37.8496 37.8198 37.0446 37.2683L36.4256 36.6206C36.0276 35.9909 35.9694 35.1883 36.272 34.5022C38.4329 31.6273 39.6735 28.1045 39.8156 24.44H43.9998L44.0001 24.4401Z" fill="#ECEFF1"/>
<path fill-rule="evenodd" clip-rule="evenodd" d="M35.2 11.7613L38.2314 8.59998C41.7789 12.5375 43.8308 17.7025 44 23.12H39.7112C39.5459 18.8899 37.9459 14.8612 35.2 11.7613Z" fill="#ECEFF1"/>
<path d="M27.5578 16.1219C27.8957 16.3049 28.0647 16.5865 28.0647 16.9667C28.0647 17.2201 27.9802 17.4525 27.8112 17.6637C27.6423 17.8889 27.4099 18.0016 27.1143 18.0016C26.9171 18.0016 26.7271 17.9523 26.544 17.8537C25.6711 17.3609 24.7277 17.1145 23.7139 17.1145C22.6579 17.1145 21.7216 17.3469 20.905 17.8115C20.1024 18.2761 19.4759 18.9309 19.0253 19.7757C18.5747 20.6064 18.3495 21.5638 18.3495 22.648C18.3495 23.8166 18.5818 24.8233 19.0464 25.6681C19.5111 26.5129 20.1517 27.1606 20.9683 27.6112C21.785 28.0477 22.7002 28.2659 23.7139 28.2659C24.7559 28.2659 25.6992 28.0125 26.544 27.5056C26.713 27.4211 26.896 27.3789 27.0931 27.3789C27.4029 27.3789 27.6493 27.4985 27.8323 27.7379C28.0013 27.9491 28.0858 28.1744 28.0858 28.4137C28.0858 28.5827 28.0365 28.7446 27.9379 28.8995C27.8535 29.0403 27.7338 29.1529 27.5789 29.2374C27.0298 29.5472 26.4103 29.7936 25.7203 29.9766C25.0445 30.1597 24.3757 30.2512 23.7139 30.2512C22.3482 30.2512 21.088 29.9485 19.9335 29.343C18.793 28.7376 17.8778 27.8576 17.1879 26.703C16.512 25.5485 16.1741 24.1968 16.1741 22.648C16.1741 21.2259 16.4979 19.9446 17.1456 18.8041C17.8074 17.6496 18.7085 16.7485 19.849 16.1008C21.0035 15.439 22.2919 15.1081 23.7139 15.1081C25.0797 15.1081 26.361 15.4461 27.5578 16.1219Z" fill="#AEEA00"/>
<g filter="url(#filter0_d_0_94)">
<path fill-rule="evenodd" clip-rule="evenodd" d="M22.8799 2C28.2832 2.16338 33.442 4.21274 37.3999 7.76819L34.2386 10.8C31.1232 8.04794 27.0992 6.44975 22.8799 6.28873V2Z" fill="#AEEA00"/>
<path d="M22.8998 1.3403L22.2199 1.31974V2V6.28873V6.92403L22.8547 6.94825C26.9245 7.10357 30.8023 8.64512 33.8016 11.2946L34.2569 11.6969L34.6954 11.2763L37.8567 8.24454L38.3699 7.75238L37.8409 7.27721C33.765 3.61571 28.4564 1.50831 22.8998 1.3403Z" stroke="white" stroke-width="1.32"/>
</g>
<defs>
<filter id="filter0_d_0_94" x="21.5598" y="0.639465" width="17.78" height="11.9542" filterUnits="userSpaceOnUse" color-interpolation-filters="sRGB">
<feFlood flood-opacity="0" result="BackgroundImageFix"/>
<feColorMatrix in="SourceAlpha" type="matrix" values="0 0 0 0 0 0 0 0 0 0 0 0 0 0 0 0 0 0 127 0" result="hardAlpha"/>
<feOffset/>
<feColorMatrix type="matrix" values="0 0 0 0 1 0 0 0 0 1 0 0 0 0 1 0 0 0 1 0"/>
<feBlend mode="normal" in2="BackgroundImageFix" result="effect1_dropShadow_0_94"/>
<feBlend mode="normal" in="SourceGraphic" in2="effect1_dropShadow_0_94" result="shape"/>
</filter>
</defs>
</svg>
