<svg width="46" height="36" viewBox="0 0 46 36" fill="none" xmlns="http://www.w3.org/2000/svg">
<path fill-rule="evenodd" clip-rule="evenodd" d="M9.72808 32.5021C10.0301 33.187 9.97273 33.9881 9.5765 34.6174L8.95282 35.2701C8.14806 35.8197 7.09715 35.7513 6.36272 35.1015C3.66965 31.4762 2.14163 27.0415 2 22.4399H6.18419C6.32638 26.1045 7.56709 29.6272 9.72808 32.5021Z" fill="#D32F2F"/>
<path fill-rule="evenodd" clip-rule="evenodd" d="M8.6001 5.76874C12.5578 2.21305 17.7166 0.163478 23.1201 0V4.28831C18.9005 4.44922 14.8762 6.04758 11.7608 8.8L8.6001 5.76874Z" fill="#ECEFF1"/>
<path fill-rule="evenodd" clip-rule="evenodd" d="M24.8799 0C30.2832 0.163379 35.442 2.21274 39.3999 5.76819L36.2386 8.8C33.1232 6.04794 29.0992 4.44975 24.8799 4.28873V0Z" fill="#ECEFF1"/>
<path fill-rule="evenodd" clip-rule="evenodd" d="M46.0001 22.4401C45.8584 27.0416 44.3304 31.4762 41.6374 35.1015C40.9021 35.7521 39.8496 35.8198 39.0446 35.2683L38.4256 34.6205C38.0276 33.9908 37.9694 33.1882 38.272 32.5022C40.4329 29.6272 41.6735 26.1045 41.8156 22.4399H45.9998L46.0001 22.4401Z" fill="#ECEFF1"/>
<path fill-rule="evenodd" clip-rule="evenodd" d="M37.2 9.76133L40.2314 6.59998C43.7789 10.5375 45.8308 15.7025 46 21.12H41.7112C41.5459 16.8899 39.9459 12.8612 37.2 9.76133Z" fill="#ECEFF1"/>
<path d="M28.094 26.097C28.3897 26.097 28.629 26.1956 28.8121 26.3927C29.0092 26.5898 29.1077 26.8221 29.1077 27.0896C29.1077 27.3712 29.0092 27.6036 28.8121 27.7866C28.629 27.9556 28.3897 28.04 28.094 28.04H20.7442C20.4626 28.04 20.2233 27.9415 20.0261 27.7444C19.829 27.5472 19.7305 27.3079 19.7305 27.0263V14.2698C19.7305 13.9882 19.829 13.7488 20.0261 13.5517C20.2233 13.3546 20.4626 13.256 20.7442 13.256H28.094C28.3897 13.256 28.629 13.3476 28.8121 13.5306C29.0092 13.7136 29.1077 13.953 29.1077 14.2487C29.1077 14.5303 29.0092 14.7626 28.8121 14.9456C28.629 15.1146 28.3897 15.1991 28.094 15.1991H21.8213V19.5076H27.1436C27.4393 19.5076 27.6786 19.5991 27.8617 19.7821C28.0588 19.9652 28.1573 20.1975 28.1573 20.4791C28.1573 20.7748 28.0588 21.0071 27.8617 21.176C27.6786 21.345 27.4393 21.4295 27.1436 21.4295H21.8213V26.097H28.094Z" fill="#FF9800"/>
<g filter="url(#filter0_d_0_112)">
<path fill-rule="evenodd" clip-rule="evenodd" d="M6.28838 21.12H2C2.16908 15.7025 4.22114 10.5374 7.76873 6.59998L10.8 9.76116C8.05394 12.8611 6.45377 16.8898 6.28838 21.12Z" fill="#FF9800"/>
<path d="M6.28838 21.78H6.92308L6.94788 21.1458C7.10745 17.0642 8.65144 13.1819 11.294 10.1988L11.6974 9.74344L11.2764 9.30436L8.24511 6.14318L7.75368 5.63069L7.2784 6.15819C3.62376 10.2144 1.51415 15.5297 1.34032 21.0994L1.31908 21.78H2H6.28838Z" stroke="white" stroke-width="1.32"/>
</g>
<defs>
<filter id="filter0_d_0_112" x="0.638184" y="4.66138" width="11.9565" height="17.7786" filterUnits="userSpaceOnUse" color-interpolation-filters="sRGB">
<feFlood flood-opacity="0" result="BackgroundImageFix"/>
<feColorMatrix in="SourceAlpha" type="matrix" values="0 0 0 0 0 0 0 0 0 0 0 0 0 0 0 0 0 0 127 0" result="hardAlpha"/>
<feOffset/>
<feColorMatrix type="matrix" values="0 0 0 0 1 0 0 0 0 1 0 0 0 0 1 0 0 0 1 0"/>
<feBlend mode="normal" in2="BackgroundImageFix" result="effect1_dropShadow_0_112"/>
<feBlend mode="normal" in="SourceGraphic" in2="effect1_dropShadow_0_112" result="shape"/>
</filter>
</defs>
</svg>
