<svg width="24" height="24" viewBox="0 0 24 24" fill="none" xmlns="http://www.w3.org/2000/svg">
<circle cx="12" cy="12" r="11" fill="#F44336" stroke="white" stroke-width="2"/>
<path fill-rule="evenodd" clip-rule="evenodd" d="M13.9643 6.71429H16.6429C16.8401 6.71429 17 6.87419 17 7.07144V7.78572C17 7.98297 16.8401 8.14286 16.6429 8.14286H7.35714C7.1599 8.14286 7 7.98297 7 7.78572V7.07144C7 6.87419 7.1599 6.71429 7.35714 6.71429H10.0357L10.2455 6.29688C10.3347 6.11455 10.5202 5.99923 10.7232 6.00001H13.2746C13.4779 5.99986 13.6638 6.11486 13.7545 6.29688L13.9643 6.71429ZM9.2567 17.4286C8.69102 17.4285 8.22285 16.9887 8.1875 16.4241L7.71429 8.85715H16.2857L15.8125 16.4241C15.7771 16.9887 15.309 17.4285 14.7433 17.4286H9.2567Z" fill="white"/>
</svg>
