<?xml version="1.0" encoding="UTF-8" standalone="no"?>
<!DOCTYPE svg PUBLIC "-//W3C//DTD SVG 1.1//EN" "http://www.w3.org/Graphics/SVG/1.1/DTD/svg11.dtd">
<svg xmlns="http://www.w3.org/2000/svg" xmlns:xlink="http://www.w3.org/1999/xlink" version="1.1" width="24pt" height="18pt" viewBox="0 0 24 18">
<g enable-background="new">
<path transform="matrix(1,0,0,-1,0,18)" d="M 14.973777 7.586132 C 14.130803 6.934682 12.901222 5.984462 12 6 C 11.098778 5.984462 9.869197 6.934682 9.026223 7.586132 C 8.851986 7.720783 8.694265 7.842669 8.559375 7.940625 C 2.79417 12.124417 1.965667 12.772791 .733283 13.737233 C .635998 13.813367 .536196 13.89147 .43125 13.973437 C .159375 14.189062 0 14.5125 0 14.859375 L 0 15.75 C 0 16.992188 1.007812 18 2.25 18 L 21.75 18 C 22.992188 18 24 16.992188 24 15.75 L 24 14.859375 C 24 14.5125 23.840626 14.184375 23.56875 13.973437 C 23.488322 13.910355 23.410914 13.849572 23.335345 13.790234 C 22.063212 12.791325 21.312148 12.201571 15.440625 7.940625 C 15.305735 7.842669 15.148014 7.720783 14.973777 7.586132 Z M 24 11.835938 C 24 12.065624 23.728125 12.201563 23.545313 12.05625 C 22.495314 11.240625 21.107813 10.2 16.326563 6.726562 C 16.181515 6.620813 16.019042 6.495133 15.841897 6.358106 C 14.856914 5.596179 13.418354 4.483394 12 4.495312 C 10.588214 4.487358 9.173054 5.579315 8.172439 6.351404 C 7.993636 6.489371 7.82807 6.617125 7.678125 6.726562 C 2.896875 10.2 1.504687 11.235937 .454688 12.051562 C .267188 12.196875 0 12.065624 0 11.831249 L 0 2.25 C 0 1.007812 1.007812 0 2.25 0 L 21.75 0 C 22.992188 0 24 1.007812 24 2.25 L 24 11.835938 Z " fill="#b0bec5" fill-rule="evenodd"/>
</g>
</svg>
