<svg width="24" height="21" viewBox="0 0 24 21" fill="none" xmlns="http://www.w3.org/2000/svg">
<path d="M3 0L18.0022 3.16239e-06C19.6393 0.00475733 20.9684 1.31751 20.9995 2.95042L21 3V3.75H19.5L19.5 3.00218C19.4976 2.18183 18.8398 1.51584 18.0247 1.50027L18 1.5L3.00218 1.5C2.18183 1.50238 1.51584 2.16019 1.50027 2.97525L1.5 3L1.5 14.9978C1.50238 15.8182 2.16019 16.4842 2.97525 16.4997L3 16.5H3.75V18L2.99782 18C1.3607 17.9952 0.031624 16.6825 0.000543507 15.0496L0 15L3.16239e-06 2.99782C0.00475733 1.3607 1.31751 0.031624 2.95042 0.000543507L3 0Z" fill="black"/>
<path fill-rule="evenodd" clip-rule="evenodd" d="M6.65578 3.75H21.0942C22.699 3.75 24 5.05096 24 6.65578V18.0942C24 19.699 22.699 21 21.0942 21H6.65578C5.05096 21 3.75 19.699 3.75 18.0942V6.65578C3.75 5.05096 5.05096 3.75 6.65578 3.75ZM21.0942 5.25H6.65578C5.87939 5.25 5.25 5.87939 5.25 6.65578V18.0942C5.25 18.8706 5.87939 19.5 6.65578 19.5H21.0942C21.8706 19.5 22.5 18.8706 22.5 18.0942V6.65578C22.5 5.87939 21.8706 5.25 21.0942 5.25Z" fill="black"/>
<path fill-rule="evenodd" clip-rule="evenodd" d="M15.2883 8.79562C15.2883 7.58931 16.271 6.61359 17.4806 6.61359C18.6902 6.61359 19.673 7.58931 19.673 8.79562C19.673 10.0019 18.6902 10.9776 17.4806 10.9776C16.271 10.9776 15.2883 10.0019 15.2883 8.79562ZM18.173 8.79562C18.173 8.42015 17.8642 8.11359 17.4806 8.11359C17.097 8.11359 16.7883 8.42015 16.7883 8.79562C16.7883 9.17108 17.097 9.47765 17.4806 9.47765C17.8642 9.47765 18.173 9.17108 18.173 8.79562Z" fill="black"/>
<path d="M9.48028 11.2764C10.3389 10.5202 11.632 10.5495 12.4563 11.3391L12.4811 11.3633L16.5663 15.4128C16.8605 15.7044 16.8625 16.1793 16.5709 16.4735C16.2834 16.7636 15.8176 16.7696 15.5226 16.4901L15.5103 16.4781L11.426 12.4295C11.1685 12.175 10.7603 12.1595 10.485 12.3906L10.4721 12.4016L4.99621 17.233C4.68561 17.5071 4.21166 17.4774 3.93762 17.1668C3.66733 16.8605 3.69245 16.3952 3.9912 16.1196L4.00381 16.1082L9.48028 11.2764Z" fill="black"/>
<path d="M17.4649 14.1974C18.2602 13.4132 19.5147 13.3491 20.3868 14.0446L20.4131 14.0659L23.7281 16.8086C24.0473 17.0726 24.0919 17.5454 23.8279 17.8645C23.5674 18.1793 23.1038 18.2271 22.7849 17.9748L22.7719 17.9643L19.4586 15.223C19.1849 14.9979 18.7872 15.0121 18.532 15.2521L18.52 15.2637L12.9611 20.7823C12.6671 21.0741 12.1922 21.0724 11.9004 20.7784C11.6126 20.4885 11.6103 20.0227 11.8922 19.73L11.9043 19.7178L17.4649 14.1974Z" fill="black"/>
</svg>
