<svg width="40" height="50" viewBox="0 0 40 50" fill="none" xmlns="http://www.w3.org/2000/svg">
<path fill-rule="evenodd" clip-rule="evenodd" d="M29.7256 30.1655L33.6736 31.2527C37.3984 32.2785 39.9999 35.728 40 39.6413V45.4735C40 47.9695 37.9972 50 35.5353 50H4.46469C2.00281 50 0 47.9693 0 45.4735V44.6167C0 44.1308 0.388394 43.7372 0.867468 43.7372C1.34654 43.7372 1.73494 44.1308 1.73494 44.6167V45.4735C1.73494 46.9996 2.95945 48.241 4.46469 48.241H6.3619V44.022C6.3619 43.5362 6.75029 43.1425 7.22936 43.1425C7.70844 43.1425 8.09683 43.5362 8.09683 44.022V48.241H31.9028V44.022C31.9028 43.5362 32.2912 43.1425 32.7703 43.1425C33.2494 43.1425 33.6378 43.5362 33.6378 44.022V48.241H35.5351C37.0403 48.241 38.2648 46.9996 38.2648 45.4735V39.6413C38.2648 36.5197 36.1898 33.7684 33.2187 32.95L29.4065 31.9001L25.1801 35.6528C24.1781 36.5427 22.6591 36.5512 21.6474 35.6639L19.9999 34.2194L18.3524 35.6639C17.3429 36.5493 15.8239 36.5445 14.8196 35.6527L10.5933 31.9001L6.78106 32.95C3.81004 33.7684 1.73494 36.5199 1.73494 39.6413V40.5052C1.73494 40.991 1.34654 41.3846 0.867468 41.3846C0.388394 41.3846 0 40.991 0 40.5052V39.6413C0 35.728 2.60148 32.2784 6.32639 31.2527L10.2743 30.1655L11.459 28.3696C12.1715 27.2895 13.6388 26.9765 14.7301 27.7555V25.634C12.4545 24.0852 10.8746 21.5644 10.5732 18.6626H9.89249C8.66913 18.6626 7.67386 17.6536 7.67386 16.4133V14.8388C7.67386 14.021 8.10794 13.3059 8.75345 12.9121V8.32278C8.75345 3.73355 12.436 0 16.9625 0H23.0375C27.5641 0 31.2467 3.73355 31.2467 8.32278V12.9121C31.8922 13.3058 32.3263 14.021 32.3263 14.8388V16.4133C32.3263 17.6537 31.331 18.6626 30.1076 18.6626H29.427C29.1255 21.5644 27.5456 24.0852 25.27 25.634V27.7555C26.3628 26.976 27.8293 27.2906 28.5411 28.3696L29.7256 30.1655ZM30.5913 16.4134V14.8389C30.5913 14.5686 30.3743 14.3486 30.1076 14.3486H29.48V16.9038H30.1076C30.3743 16.9038 30.5913 16.6838 30.5913 16.4134ZM10.52 16.9038H9.89238C9.62566 16.9038 9.40868 16.6838 9.40868 16.4134V14.8389C9.40868 14.5685 9.62566 14.3485 9.89238 14.3485H10.52V16.9038ZM10.4883 12.5896H11.3874C11.8901 12.5896 12.2991 12.175 12.2991 11.6653V9.81027C12.2991 8.35127 13.4699 7.16422 14.9091 7.16422C15.2802 7.16422 15.6398 7.24243 15.978 7.39628C18.5339 8.55918 21.466 8.5593 24.0222 7.39616C24.3601 7.24231 24.7197 7.16422 25.0908 7.16422C26.53 7.16422 27.7008 8.35127 27.7008 9.81027V11.6653C27.7008 12.175 28.1098 12.5896 28.6126 12.5896H29.5116V8.3229C29.5116 4.70356 26.6072 1.75907 23.0374 1.75907H16.9624C13.3926 1.75907 10.4883 4.70367 10.4883 8.3229V12.5896ZM12.2549 17.6492V14.2005C13.2896 13.8357 14.0341 12.837 14.0341 11.6653V9.81027C14.0341 9.32104 14.4267 8.92317 14.9092 8.92317C15.0337 8.92317 15.1542 8.94932 15.2676 9.00091C18.275 10.3691 21.725 10.3693 24.7328 9.0008C24.846 8.94932 24.9664 8.92317 25.0909 8.92317C25.5734 8.92317 25.966 9.32116 25.966 9.81027V11.6653C25.966 12.837 26.7105 13.8357 27.7452 14.2005V17.6492C27.7452 21.9677 24.2782 25.5015 20.0001 25.5015C15.7233 25.5015 12.2549 21.9692 12.2549 17.6492ZM15.9627 34.3295C16.3194 34.6465 16.8588 34.6481 17.2175 34.3335L18.636 33.0897L13.7567 29.2092C13.4874 28.9952 13.0932 29.0557 12.9009 29.3475L11.9593 30.775L15.9627 34.3295ZM20 31.9387L16.4649 29.1273V26.5646C17.5581 27.0119 18.7507 27.2605 20.0001 27.2605C21.2495 27.2605 22.442 27.0119 23.5352 26.5646V29.1273L20 31.9387ZM22.7824 34.3335C23.1412 34.6481 23.6805 34.6463 24.0371 34.3296L28.0406 30.775L27.099 29.3474C26.9062 29.055 26.512 28.9955 26.2432 29.2091L21.3638 33.0897L22.7824 34.3335Z" fill="black"/>
</svg>
