<svg width="16" height="18" viewBox="0 0 16 18" fill="none" xmlns="http://www.w3.org/2000/svg">
<path fill-rule="evenodd" clip-rule="evenodd" d="M13.4286 7.875H14.2857C15.2321 7.875 16 8.63086 16 9.5625V16.3125C16 17.2441 15.2321 18 14.2857 18H1.71429C0.767857 18 0 17.2441 0 16.3125V9.5625C0 8.63086 0.767857 7.875 1.71429 7.875H2.57143V5.34375C2.57143 2.39766 5.00714 0 8 0C10.9929 0 13.4286 2.39766 13.4286 5.34375V7.875ZM5.42857 5.34375V7.875H10.5714V5.34375C10.5714 3.94805 9.41786 2.8125 8 2.8125C6.58214 2.8125 5.42857 3.94805 5.42857 5.34375Z" fill="#B0BEC5"/>
</svg>
