<svg viewBox="0 0 21 21" fill="none" xmlns="http://www.w3.org/2000/svg">
<path fill-rule="evenodd" clip-rule="evenodd" d="M10.5 0C4.71036 0 0 4.71036 0 10.5C0 16.2896 4.71036 21 10.5 21C16.2896 21 21 16.2896 21 10.5C21 4.71036 16.2896 0 10.5 0ZM7.96486 5.89716C8.60445 5.21921 9.50452 4.84615 10.5 4.84615C11.4955 4.84615 12.3875 5.22173 13.0296 5.90322C13.6803 6.5938 13.9968 7.52163 13.9221 8.51913C13.7727 10.5 12.2381 12.1154 10.5 12.1154C8.76195 12.1154 7.2243 10.5 7.07791 8.51863C7.0037 7.51305 7.31971 6.58219 7.96486 5.89716ZM4.13942 16.698C5.809 18.417 8.10371 19.3862 10.5 19.3846C12.8963 19.3864 15.1911 18.4172 16.8606 16.698C16.3869 16.0229 15.7833 15.449 15.0852 15.01C13.7999 14.1851 12.1714 13.7308 10.5 13.7308C8.82858 13.7308 7.20007 14.1851 5.91332 15.01C5.21575 15.4492 4.61271 16.0231 4.13942 16.698Z" fill="black"/>
</svg>
