<svg width="16" height="13" viewBox="0 0 16 13" fill="none" xmlns="http://www.w3.org/2000/svg">
<path fill-rule="evenodd" clip-rule="evenodd" d="M10.4444 12.0002L15.7778 6.66685C16.073 6.36843 16.073 5.88589 15.7778 5.58748L10.4444 0.254147C9.96508 -0.222043 9.14286 0.114465 9.14286 0.79383V3.84145H4.8254C4.40317 3.84145 4.06349 4.18113 4.06349 4.60335V7.65097C4.06349 8.0732 4.40317 8.41288 4.8254 8.41288H9.14286V11.4605C9.14286 12.143 9.96825 12.4764 10.4444 12.0002ZM6.09524 10.5716V11.8414C6.09524 12.051 5.92381 12.2224 5.71429 12.2224H3.04762C1.36508 12.2224 0 10.8573 0 9.17478V3.07954C0 1.397 1.36508 0.0319252 3.04762 0.0319252H5.71429C5.92381 0.0319252 6.09524 0.203354 6.09524 0.412878V1.68272C6.09524 1.89224 5.92381 2.06367 5.71429 2.06367H3.04762C2.48571 2.06367 2.03175 2.51764 2.03175 3.07954V9.17478C2.03175 9.73669 2.48571 10.1907 3.04762 10.1907H5.71429C5.92381 10.1907 6.09524 10.3621 6.09524 10.5716Z" fill="black"/>
</svg>
