<svg width="21" height="19" viewBox="0 0 21 19" fill="none"
    xmlns="http://www.w3.org/2000/svg">
    <path d="M3.0167 2.61904H17.9833C18.1581 2.61896 18.3328 2.63005 18.5062 2.65225C18.3874 1.81846 17.9331 1.0694 17.2486 0.578726C16.5641 0.088055 15.7088 -0.101618 14.881 0.0536772L2.57238 2.15508H2.55835C1.78573 2.30283 1.09867 2.73996 0.637482 3.3772C1.3323 2.88298 2.16405 2.61794 3.0167 2.61904Z" fill="black"/>
    <path fill-rule="evenodd" clip-rule="evenodd" d="M3.0167 3.7417H17.9833C19.6357 3.7435 20.9748 5.0826 20.9766 6.73502V15.715C20.9748 17.3674 19.6357 18.7065 17.9833 18.7083H3.0167C1.36428 18.7065 0.0251808 17.3674 0.0233765 15.715V6.73502C0.0251808 5.0826 1.36428 3.7435 3.0167 3.7417ZM14.265 11.225C14.265 12.0516 14.9351 12.7217 15.7617 12.7217C16.5883 12.7217 17.2583 12.0516 17.2583 11.225C17.2583 10.3984 16.5883 9.72834 15.7617 9.72834C14.9351 9.72834 14.265 10.3984 14.265 11.225Z" fill="black"/>
    <path d="M0.0467834 9.89196V5.23828C0.0467834 4.22476 0.608031 2.52559 2.55603 2.1575C4.20937 1.84741 5.84634 1.84741 5.84634 1.84741C5.84634 1.84741 6.92206 2.59574 6.03342 2.59574C5.14478 2.59574 5.16816 3.74162 6.03342 3.74162C6.89868 3.74162 6.03342 4.84073 6.03342 4.84073L2.54901 8.79285L0.0467834 9.89196Z" fill="black"/>
</svg>
