<svg width="106" height="94" viewBox="0 0 106 94" fill="none" xmlns="http://www.w3.org/2000/svg">
<path fill-rule="evenodd" clip-rule="evenodd" d="M15.7463 48H6C6.38427 35.6875 11.048 23.9487 19.1108 15L26 22.1845C19.759 29.2297 16.1222 38.3859 15.7463 48Z" fill="#ECEFF1"/>
<path fill-rule="evenodd" clip-rule="evenodd" d="M21 13.1108C29.9948 5.02967 41.7194 0.37154 54 0V9.74616C44.41 10.1119 35.2639 13.7445 28.1834 20L21 13.1108Z" fill="#ECEFF1"/>
<path fill-rule="evenodd" clip-rule="evenodd" d="M58 0C70.2804 0.371317 82.0049 5.02896 91 13.1095L83.8152 20C76.7347 13.7453 67.5893 10.1131 58 9.74712V0Z" fill="#ECEFF1"/>
<path fill-rule="evenodd" clip-rule="evenodd" d="M106 51.0003C105.678 61.4584 102.205 71.537 96.0849 79.7762C94.4136 81.2548 92.0216 81.4087 90.1921 80.1553L88.7852 78.6831C87.8807 77.252 87.7485 75.4279 88.4362 73.8687C93.3473 67.3347 96.1669 59.3285 96.4899 51H105.999L106 51.0003Z" fill="#ECEFF1"/>
<path fill-rule="evenodd" clip-rule="evenodd" d="M86 22.1849L92.8897 15C100.952 23.9489 105.616 35.6876 106 48H96.2528C95.8772 38.3862 92.2408 29.2301 86 22.1849Z" fill="#ECEFF1"/>
<path d="M51.1411 34.816V44.752H62.9491C63.6211 44.752 64.1651 44.96 64.5811 45.376C65.0291 45.792 65.2531 46.336 65.2531 47.008C65.2531 47.584 65.0291 48.08 64.5811 48.496C64.1651 48.912 63.6211 49.12 62.9491 49.12H51.1411V61.696C51.1411 62.336 50.9011 62.88 50.4211 63.328C49.9731 63.776 49.4291 64 48.7891 64C48.1171 64 47.5571 63.776 47.1091 63.328C46.6611 62.88 46.4371 62.336 46.4371 61.696V32.704C46.4371 32.064 46.6611 31.52 47.1091 31.072C47.5571 30.624 48.1011 30.4 48.7411 30.4H65.1091C65.7811 30.4 66.3251 30.608 66.7411 31.024C67.1891 31.44 67.4131 31.984 67.4131 32.656C67.4131 33.232 67.1891 33.744 66.7411 34.192C66.2931 34.608 65.7491 34.816 65.1091 34.816H51.1411Z" fill="#D32F2F"/>
<path d="M47.7392 88.88C47.8326 88.9453 47.9072 89.0293 47.9632 89.132C48.0192 89.2253 48.0472 89.3233 48.0472 89.426C48.0472 89.622 47.9819 89.7667 47.8512 89.86C47.7299 89.9533 47.5806 90 47.4032 90C47.2259 90 47.0766 89.9627 46.9552 89.888C46.6752 89.7293 46.4466 89.4727 46.2692 89.118C46.0919 88.7633 46.0032 88.2407 46.0032 87.55C46.0032 87.0833 45.8632 86.738 45.5832 86.514C45.3032 86.29 44.9392 86.178 44.4912 86.178H41.6632V89.328C41.6632 89.524 41.6072 89.6873 41.4952 89.818C41.3832 89.9393 41.2386 90 41.0612 90C40.8466 90 40.6599 89.9347 40.5012 89.804C40.3519 89.6733 40.2772 89.5147 40.2772 89.328V80.872C40.2772 80.6853 40.3426 80.5267 40.4732 80.396C40.6039 80.2653 40.7626 80.2 40.9492 80.2H44.8832C45.3872 80.2 45.8492 80.326 46.2692 80.578C46.6892 80.8207 47.0252 81.1613 47.2772 81.6C47.5292 82.0293 47.6552 82.5147 47.6552 83.056C47.6552 83.5787 47.5152 84.0687 47.2352 84.526C46.9552 84.974 46.5959 85.31 46.1572 85.534C46.5026 85.7113 46.7732 85.9587 46.9692 86.276C47.1746 86.5933 47.2866 86.962 47.3052 87.382C47.3426 87.914 47.3846 88.278 47.4312 88.474C47.4779 88.6607 47.5806 88.796 47.7392 88.88ZM44.8552 85.016C45.0886 84.9973 45.3079 84.904 45.5132 84.736C45.7279 84.568 45.9006 84.344 46.0312 84.064C46.1619 83.7747 46.2272 83.4527 46.2272 83.098C46.2272 82.65 46.0872 82.272 45.8072 81.964C45.5366 81.6467 45.2052 81.488 44.8132 81.488H41.6632V85.016H44.8552ZM50.8849 89.328C50.8849 89.5147 50.8195 89.6733 50.6889 89.804C50.5675 89.9347 50.4089 90 50.2129 90C50.0262 90 49.8675 89.9347 49.7369 89.804C49.6155 89.6733 49.5549 89.5147 49.5549 89.328V83.266C49.5549 83.0793 49.6155 82.9207 49.7369 82.79C49.8675 82.6593 50.0262 82.594 50.2129 82.594C50.4089 82.594 50.5675 82.6593 50.6889 82.79C50.8195 82.9207 50.8849 83.0793 50.8849 83.266V89.328ZM50.2129 81.67C49.9422 81.67 49.7462 81.6233 49.6249 81.53C49.5129 81.4273 49.4569 81.2687 49.4569 81.054V80.83C49.4569 80.606 49.5175 80.4473 49.6389 80.354C49.7695 80.2607 49.9655 80.214 50.2269 80.214C50.4882 80.214 50.6749 80.2653 50.7869 80.368C50.9082 80.4613 50.9689 80.6153 50.9689 80.83V81.054C50.9689 81.278 50.9082 81.4367 50.7869 81.53C50.6655 81.6233 50.4742 81.67 50.2129 81.67ZM52.3767 88.852C52.2927 88.7213 52.2507 88.5953 52.2507 88.474C52.2507 88.2873 52.3487 88.1287 52.5447 87.998C52.6381 87.9327 52.7454 87.9 52.8667 87.9C53.0347 87.9 53.1887 87.97 53.3287 88.11C53.6087 88.4273 53.9074 88.6653 54.2247 88.824C54.5514 88.9827 54.9387 89.062 55.3867 89.062C55.7414 89.0527 56.0541 88.9733 56.3247 88.824C56.5954 88.6653 56.7307 88.4133 56.7307 88.068C56.7307 87.7507 56.5907 87.508 56.3107 87.34C56.0401 87.172 55.6387 87.018 55.1067 86.878C54.5841 86.738 54.1501 86.5933 53.8047 86.444C53.4594 86.2853 53.1654 86.0613 52.9227 85.772C52.6894 85.4733 52.5727 85.086 52.5727 84.61C52.5727 84.19 52.6894 83.8213 52.9227 83.504C53.1654 83.1867 53.4827 82.9393 53.8747 82.762C54.2761 82.5847 54.7101 82.496 55.1767 82.496C55.6247 82.496 56.0681 82.58 56.5067 82.748C56.9547 82.916 57.3187 83.1727 57.5987 83.518C57.7107 83.6487 57.7667 83.784 57.7667 83.924C57.7667 84.0733 57.6921 84.218 57.5427 84.358C57.4494 84.442 57.3327 84.484 57.1927 84.484C57.0247 84.484 56.8894 84.428 56.7867 84.316C56.5907 84.092 56.3481 83.9193 56.0587 83.798C55.7787 83.6767 55.4661 83.616 55.1207 83.616C54.7661 83.616 54.4627 83.6907 54.2107 83.84C53.9681 83.98 53.8467 84.2227 53.8467 84.568C53.8561 84.8947 53.9961 85.1373 54.2667 85.296C54.5467 85.4547 54.9714 85.6087 55.5407 85.758C56.0354 85.8887 56.4461 86.0287 56.7727 86.178C57.0994 86.3273 57.3747 86.5513 57.5987 86.85C57.8227 87.1393 57.9347 87.522 57.9347 87.998C57.9347 88.4367 57.8087 88.8193 57.5567 89.146C57.3047 89.4633 56.9734 89.7107 56.5627 89.888C56.1614 90.056 55.7321 90.14 55.2747 90.14C54.6867 90.14 54.1407 90.0373 53.6367 89.832C53.1421 89.6267 52.7221 89.3 52.3767 88.852ZM65.4606 88.838C65.6006 88.9873 65.6706 89.1507 65.6706 89.328C65.6706 89.5147 65.5959 89.6733 65.4466 89.804C65.3066 89.9253 65.1573 89.986 64.9986 89.986C64.7933 89.986 64.6299 89.9113 64.5086 89.762L61.7506 86.836L60.9106 87.592V89.328C60.9106 89.5147 60.8453 89.6733 60.7146 89.804C60.5933 89.9347 60.4393 90 60.2526 90C60.0566 90 59.8933 89.9347 59.7626 89.804C59.6413 89.6733 59.5806 89.5147 59.5806 89.328V80.312C59.5806 80.1253 59.6413 79.9667 59.7626 79.836C59.8933 79.7053 60.0566 79.64 60.2526 79.64C60.4393 79.64 60.5933 79.7053 60.7146 79.836C60.8453 79.9667 60.9106 80.1253 60.9106 80.312V85.996L64.3406 82.846C64.4993 82.706 64.6626 82.636 64.8306 82.636C64.9893 82.636 65.1339 82.706 65.2646 82.846C65.3953 82.9767 65.4606 83.1167 65.4606 83.266C65.4606 83.4527 65.3719 83.6207 65.1946 83.77L62.7726 85.926L65.4606 88.838ZM68.6079 89.328C68.6079 89.5147 68.5425 89.6733 68.4119 89.804C68.2812 89.9347 68.1225 90 67.9359 90C67.7492 90 67.5905 89.9347 67.4599 89.804C67.3385 89.6733 67.2779 89.5147 67.2779 89.328V80.312C67.2779 80.1253 67.3432 79.9667 67.4739 79.836C67.6045 79.7053 67.7632 79.64 67.9499 79.64C68.1365 79.64 68.2905 79.7053 68.4119 79.836C68.5425 79.9667 68.6079 80.1253 68.6079 80.312V89.328ZM71.9669 89.328C71.9669 89.5147 71.9016 89.6733 71.7709 89.804C71.6496 89.9347 71.4909 90 71.2949 90C71.1082 90 70.9496 89.9347 70.8189 89.804C70.6976 89.6733 70.6369 89.5147 70.6369 89.328V83.266C70.6369 83.0793 70.6976 82.9207 70.8189 82.79C70.9496 82.6593 71.1082 82.594 71.2949 82.594C71.4909 82.594 71.6496 82.6593 71.7709 82.79C71.9016 82.9207 71.9669 83.0793 71.9669 83.266V89.328ZM71.2949 81.67C71.0242 81.67 70.8282 81.6233 70.7069 81.53C70.5949 81.4273 70.5389 81.2687 70.5389 81.054V80.83C70.5389 80.606 70.5996 80.4473 70.7209 80.354C70.8516 80.2607 71.0476 80.214 71.3089 80.214C71.5702 80.214 71.7569 80.2653 71.8689 80.368C71.9902 80.4613 72.0509 80.6153 72.0509 80.83V81.054C72.0509 81.278 71.9902 81.4367 71.8689 81.53C71.7476 81.6233 71.5562 81.67 71.2949 81.67Z" fill="#D32F2F"/>
<g filter="url(#filter0_d_0_156)">
<mask id="path-8-outside-1_0_156" maskUnits="userSpaceOnUse" x="-0.09375" y="46" width="30" height="41" fill="black">
<rect fill="white" x="-0.09375" y="46" width="30" height="41"/>
<path fill-rule="evenodd" clip-rule="evenodd" d="M23.5638 73.8686C24.5774 75.217 24.1198 77.2458 23.2193 78.676C23.2193 78.676 22.7768 79.2103 22.5 79.5C22.2232 79.7897 21.8019 80.1595 21.8019 80.1595C19.9729 81.4085 17.5844 81.253 15.9153 79.7762C9.79466 71.5369 6.32189 61.4582 6.00001 51H15.5095C15.8327 59.3285 18.6525 67.3347 23.5638 73.8686Z"/>
<path fill-rule="evenodd" clip-rule="evenodd" d="M25.6541 80.4394L25.5298 80.5896L23.2193 78.676C24.1198 77.2458 24.5774 75.217 23.5638 73.8686C18.6525 67.3347 15.8327 59.3285 15.5095 51H6.00001C6.0309 52.0039 6.09084 53.0044 6.17936 54C7.01302 63.3762 10.3822 72.3278 15.9153 79.7762C17.5844 81.253 19.9729 81.4085 21.8019 80.1595L23.7808 82.4142L23.644 82.5343L23.4937 82.6369C20.5199 84.6678 16.6163 84.4021 13.9274 82.023L13.6934 81.816L13.5071 81.5651C7.01345 72.8237 3.34177 62.1504 3.00143 51.0923L2.90625 48H18.3954L18.5073 50.8837C18.8073 58.6149 21.425 66.0302 25.9619 72.066C27.0626 73.5304 27.2499 75.219 27.0889 76.5912C26.9286 77.9578 26.407 79.2438 25.758 80.2744L25.6541 80.4394ZM21.8019 80.1595C21.8019 80.1595 22.2232 79.7897 22.5 79.5C22.7768 79.2103 23.2193 78.676 23.2193 78.676C25.5298 80.5896 25.5298 80.5895 25.5298 80.5896L25.5288 80.5907L25.5222 80.5988L25.5048 80.6196L25.4443 80.692C25.3939 80.7521 25.3235 80.8355 25.2432 80.9294C25.0947 81.1031 24.8689 81.3633 24.669 81.5725C24.4625 81.7886 24.2311 82.0057 24.0776 82.1468C23.9955 82.2223 23.9237 82.287 23.8719 82.3333L23.809 82.3893L23.7902 82.406L23.7808 82.4142C23.7807 82.4143 23.7808 82.4142 21.8019 80.1595Z"/>
</mask>
<path fill-rule="evenodd" clip-rule="evenodd" d="M23.5638 73.8686C24.5774 75.217 24.1198 77.2458 23.2193 78.676C23.2193 78.676 22.7768 79.2103 22.5 79.5C22.2232 79.7897 21.8019 80.1595 21.8019 80.1595C19.9729 81.4085 17.5844 81.253 15.9153 79.7762C9.79466 71.5369 6.32189 61.4582 6.00001 51H15.5095C15.8327 59.3285 18.6525 67.3347 23.5638 73.8686Z" fill="#D32F2F"/>
<path fill-rule="evenodd" clip-rule="evenodd" d="M25.6541 80.4394L25.5298 80.5896L23.2193 78.676C24.1198 77.2458 24.5774 75.217 23.5638 73.8686C18.6525 67.3347 15.8327 59.3285 15.5095 51H6.00001C6.0309 52.0039 6.09084 53.0044 6.17936 54C7.01302 63.3762 10.3822 72.3278 15.9153 79.7762C17.5844 81.253 19.9729 81.4085 21.8019 80.1595L23.7808 82.4142L23.644 82.5343L23.4937 82.6369C20.5199 84.6678 16.6163 84.4021 13.9274 82.023L13.6934 81.816L13.5071 81.5651C7.01345 72.8237 3.34177 62.1504 3.00143 51.0923L2.90625 48H18.3954L18.5073 50.8837C18.8073 58.6149 21.425 66.0302 25.9619 72.066C27.0626 73.5304 27.2499 75.219 27.0889 76.5912C26.9286 77.9578 26.407 79.2438 25.758 80.2744L25.6541 80.4394ZM21.8019 80.1595C21.8019 80.1595 22.2232 79.7897 22.5 79.5C22.7768 79.2103 23.2193 78.676 23.2193 78.676C25.5298 80.5896 25.5298 80.5895 25.5298 80.5896L25.5288 80.5907L25.5222 80.5988L25.5048 80.6196L25.4443 80.692C25.3939 80.7521 25.3235 80.8355 25.2432 80.9294C25.0947 81.1031 24.8689 81.3633 24.669 81.5725C24.4625 81.7886 24.2311 82.0057 24.0776 82.1468C23.9955 82.2223 23.9237 82.287 23.8719 82.3333L23.809 82.3893L23.7902 82.406L23.7808 82.4142C23.7807 82.4143 23.7808 82.4142 21.8019 80.1595Z" fill="#D32F2F"/>
<path d="M23.5638 73.8686L24.3632 73.2677L23.5638 73.8686ZM23.2193 78.676L23.9895 79.3139L24.0309 79.2638L24.0656 79.2088L23.2193 78.676ZM21.8019 80.1595L22.3658 80.9853L22.4159 80.9511L22.4615 80.9111L21.8019 80.1595ZM15.5095 51L16.5088 50.9612L16.4715 50H15.5095V51ZM22.5 79.5L21.777 78.8092L21.777 78.8092L22.5 79.5ZM22.7645 74.4694C23.0733 74.8803 23.1962 75.4431 23.1162 76.1251C23.0359 76.8089 22.7571 77.5333 22.3731 78.1432L24.0656 79.2088C24.582 78.3885 24.9823 77.3834 25.1026 76.3582C25.2231 75.3311 25.068 74.2053 24.3632 73.2677L22.7645 74.4694ZM21.2379 79.3337C19.7905 80.3221 17.9072 80.2033 16.5779 79.0272L15.2526 80.5251C17.2617 82.3027 20.1552 82.4949 22.3658 80.9853L21.2379 79.3337ZM6.00001 52H15.5095V50H6.00001V52ZM14.5103 51.0388C14.8412 59.5663 17.7283 67.7695 22.7645 74.4694L24.3632 73.2677C19.5766 66.8998 16.8242 59.0906 16.5088 50.9612L14.5103 51.0388ZM23.2193 78.676C22.4492 78.0382 22.4492 78.0381 22.4492 78.0381C22.4492 78.0381 22.4492 78.0381 22.4492 78.0381C22.4492 78.0381 22.4492 78.0381 22.4492 78.0381C22.4492 78.0382 22.4491 78.0382 22.4491 78.0383C22.4489 78.0385 22.4487 78.0388 22.4483 78.0392C22.4476 78.04 22.4465 78.0414 22.445 78.0432C22.442 78.0468 22.4374 78.0523 22.4314 78.0595C22.4194 78.0739 22.4018 78.095 22.3797 78.1214C22.3354 78.1742 22.2736 78.2475 22.2035 78.3294C22.0594 78.4979 21.8949 78.6858 21.777 78.8092L23.223 80.1908C23.3819 80.0246 23.577 79.8005 23.7234 79.6294C23.7986 79.5415 23.8647 79.4631 23.912 79.4067C23.9357 79.3784 23.9548 79.3555 23.9681 79.3396C23.9748 79.3316 23.98 79.3253 23.9836 79.321C23.9854 79.3188 23.9868 79.3171 23.9878 79.3159C23.9883 79.3153 23.9887 79.3149 23.9889 79.3145C23.9891 79.3143 23.9892 79.3142 23.9893 79.3141C23.9893 79.314 23.9894 79.314 23.9894 79.314C23.9894 79.3139 23.9894 79.3139 23.9894 79.3139C23.9895 79.3139 23.9895 79.3139 23.2193 78.676ZM21.777 78.8092C21.6613 78.9302 21.5057 79.0777 21.3703 79.2022C21.3044 79.2628 21.2466 79.315 21.2054 79.3518C21.1849 79.3702 21.1686 79.3846 21.1577 79.3943C21.1522 79.3991 21.1481 79.4027 21.1455 79.405C21.1442 79.4062 21.1432 79.407 21.1427 79.4075C21.1424 79.4077 21.1422 79.4079 21.1422 79.408C21.1421 79.408 21.1421 79.408 21.1421 79.408C21.1421 79.408 21.1421 79.408 21.1422 79.408C21.1422 79.408 21.1422 79.4079 21.1422 79.4079C21.1422 79.4079 21.1422 79.4079 21.8019 80.1595C22.4615 80.9111 22.4615 80.911 22.4616 80.911C22.4616 80.911 22.4616 80.911 22.4616 80.911C22.4617 80.9109 22.4617 80.9109 22.4618 80.9108C22.4619 80.9107 22.462 80.9106 22.4622 80.9105C22.4625 80.9102 22.4629 80.9098 22.4635 80.9093C22.4645 80.9084 22.466 80.9071 22.4678 80.9055C22.4715 80.9022 22.4767 80.8976 22.4833 80.8918C22.4966 80.8801 22.5154 80.8634 22.5387 80.8426C22.5851 80.801 22.6499 80.7426 22.724 80.6745C22.8684 80.5417 23.0619 80.3594 23.223 80.1908L21.777 78.8092ZM25.6541 80.4394L27.1944 81.7152L27.2774 81.6151L27.3466 81.5051L25.6541 80.4394ZM6.17936 54L8.1715 53.8229L6.17936 54ZM23.7808 82.4142L25.1001 83.9174L25.1017 83.9159L23.7808 82.4142ZM23.644 82.5343L24.7719 84.1859L24.8721 84.1175L24.9633 84.0374L23.644 82.5343ZM23.4937 82.6369L22.3658 80.9853L22.3658 80.9853L23.4937 82.6369ZM13.9274 82.023L15.2526 80.5251L15.2526 80.5251L13.9274 82.023ZM13.6934 81.816L12.0879 83.0086L12.2121 83.1758L12.3681 83.3138L13.6934 81.816ZM13.5071 81.5651L15.1125 80.3725L15.1125 80.3725L13.5071 81.5651ZM3.00143 51.0923L5.00048 51.0308L5.00048 51.0308L3.00143 51.0923ZM2.90625 48V46H0.843746L0.907197 48.0615L2.90625 48ZM18.3954 48L20.3939 47.9225L20.3193 46H18.3954V48ZM18.5073 50.8837L16.5088 50.9612L16.5088 50.9612L18.5073 50.8837ZM25.9619 72.066L27.5606 70.8643L27.5606 70.8643L25.9619 72.066ZM27.0889 76.5912L29.0753 76.8243L29.0753 76.8243L27.0889 76.5912ZM25.758 80.2744L27.4505 81.3401L27.4505 81.3401L25.758 80.2744ZM25.5288 80.5907L27.0679 81.8679L27.0699 81.8655L25.5288 80.5907ZM25.5222 80.5988L27.0598 81.8777L27.0612 81.876L25.5222 80.5988ZM25.5048 80.6196L27.0392 81.9024L27.0425 81.8985L25.5048 80.6196ZM25.4443 80.692L26.9767 81.9772L26.9787 81.9748L25.4443 80.692ZM25.2432 80.9294L26.7631 82.2295L26.7631 82.2295L25.2432 80.9294ZM24.669 81.5725L26.1151 82.9542L26.1151 82.9542L24.669 81.5725ZM24.0776 82.1468L25.4313 83.6191L25.4313 83.6191L24.0776 82.1468ZM23.8719 82.3333L25.2016 83.8274L25.2052 83.8241L23.8719 82.3333ZM23.809 82.3893L25.1332 83.8882L25.1387 83.8833L23.809 82.3893ZM23.7902 82.406L25.1111 83.9077L25.1143 83.9048L23.7902 82.406ZM17.5208 78.5835C11.6488 70.6789 8.30863 60.9967 7.99906 50.9385L4.00095 51.0615C4.33515 61.9196 7.94052 72.3948 14.3098 80.9688L17.5208 78.5835ZM27.0701 81.8653L27.1944 81.7152L24.1138 79.1637L23.9895 79.3139L27.0701 81.8653ZM21.9436 80.2163L24.254 82.1299L26.8055 79.0493L24.495 77.1357L21.9436 80.2163ZM8.1715 53.8229C8.08639 52.8656 8.02877 51.9038 7.99906 50.9385L4.00095 51.0615C4.03304 52.1041 4.09528 53.1431 4.18722 54.1771L8.1715 53.8229ZM17.5208 78.5835C12.2127 71.438 8.9732 62.8396 8.1715 53.8229L4.18722 54.1771C5.05285 63.9129 8.55173 73.2176 14.3098 80.9688L17.5208 78.5835ZM25.284 81.0949L23.305 78.8402L20.2987 81.4788L22.2776 83.7335L25.284 81.0949ZM24.9633 84.0374L25.1001 83.9174L22.4615 80.9111L22.3247 81.0311L24.9633 84.0374ZM24.6216 84.2885L24.7719 84.1859L22.5161 80.8827L22.3658 80.9853L24.6216 84.2885ZM12.6021 83.5209C15.9704 86.501 20.884 86.841 24.6216 84.2885L22.3658 80.9853C20.1557 82.4946 17.2622 82.3031 15.2526 80.5251L12.6021 83.5209ZM12.3681 83.3138L12.6021 83.5209L15.2526 80.5251L15.0186 80.3181L12.3681 83.3138ZM11.9016 82.7578L12.0879 83.0086L15.2989 80.6233L15.1125 80.3725L11.9016 82.7578ZM1.00237 51.1538C1.35503 62.6118 5.1593 73.6817 11.9016 82.7578L15.1125 80.3725C8.8676 71.9658 5.32852 61.6889 5.00048 51.0308L1.00237 51.1538ZM0.907197 48.0615L1.00237 51.1538L5.00048 51.0308L4.9053 47.9385L0.907197 48.0615ZM20.5058 50.8061L20.3939 47.9225L16.3969 48.0775L16.5088 50.9612L20.5058 50.8061ZM27.5606 70.8643C23.2733 65.1606 20.7903 58.1392 20.5058 50.8061L16.5088 50.9612C16.8242 59.0906 19.5767 66.8999 24.3632 73.2677L27.5606 70.8643ZM29.0753 76.8243C29.2764 75.1108 29.0591 72.8578 27.5606 70.8643L24.3632 73.2677C25.0662 74.203 25.2235 75.3272 25.1026 76.3582L29.0753 76.8243ZM27.4505 81.3401C28.2318 80.0992 28.8749 78.5324 29.0753 76.8243L25.1026 76.3581C24.9823 77.3831 24.5822 78.3883 24.0656 79.2088L27.4505 81.3401ZM27.3466 81.5051L27.4505 81.3401L24.0656 79.2088L23.9617 79.3738L27.3466 81.5051ZM27.0802 81.8529C27.0802 81.8529 27.1828 81.7154 27.2733 81.5695C27.3472 81.4244 27.4848 81.0112 27.5241 80.7407C27.5711 80.1193 27.3164 79.6796 27.2432 79.558C27.1492 79.4019 27.0547 79.2947 27.0245 79.2608C26.9833 79.2144 26.9486 79.1798 26.9314 79.1629C26.8968 79.1289 26.8685 79.1037 26.8609 79.0969C26.8494 79.0867 26.8402 79.0787 26.8358 79.0749C26.8269 79.0672 26.8198 79.0612 26.8179 79.0597C26.8151 79.0573 26.8127 79.0553 26.8116 79.0543C26.8078 79.0512 26.8039 79.048 26.8022 79.0465C26.797 79.0422 26.7874 79.0343 26.7695 79.0195C26.7333 78.9895 26.661 78.9296 26.5167 78.8101C26.2279 78.5709 25.6503 78.0925 24.495 77.1357L21.9436 80.2163C23.0988 81.1731 23.6765 81.6515 23.9653 81.8907C24.1098 82.0104 24.1819 82.0701 24.2179 82.0999C24.2361 82.115 24.2445 82.122 24.2484 82.1252C24.2511 82.1275 24.2495 82.1261 24.2469 82.1239C24.246 82.1232 24.2439 82.1214 24.2411 82.1191C24.2394 82.1177 24.2325 82.1118 24.2236 82.1041C24.2192 82.1004 24.21 82.0924 24.1986 82.0822C24.191 82.0755 24.1627 82.0503 24.1281 82.0163C24.111 81.9994 24.0762 81.9648 24.035 81.9184C24.0049 81.8845 23.9104 81.7773 23.8163 81.6212C23.7432 81.4996 23.4884 81.0599 23.5355 80.4385C23.5883 79.741 24.0035 79.2966 23.9793 79.3263L27.0802 81.8529ZM27.0699 81.8655L27.0709 81.8644L23.9887 79.3148L23.9877 79.316L27.0699 81.8655ZM27.0425 81.8985L27.0598 81.8777L23.9845 79.3199L23.9672 79.3407L27.0425 81.8985ZM26.9787 81.9748L27.0392 81.9024L23.9704 79.3368L23.91 79.4091L26.9787 81.9748ZM26.7631 82.2295C26.8485 82.1295 26.9232 82.041 26.9767 81.9772L23.912 79.4067C23.8647 79.4631 23.7986 79.5415 23.7234 79.6294L26.7631 82.2295ZM26.1151 82.9542C26.3558 82.7023 26.612 82.4061 26.7631 82.2295L23.7234 79.6294C23.5774 79.8001 23.3821 80.0244 23.223 80.1908L26.1151 82.9542ZM25.4313 83.6191C25.594 83.4694 25.8633 83.2177 26.1151 82.9542L23.223 80.1908C23.0618 80.3596 22.8681 80.542 22.724 80.6745L25.4313 83.6191ZM25.2052 83.8241C25.2623 83.773 25.341 83.7021 25.4313 83.6191L22.724 80.6745C22.65 80.7426 22.5851 80.801 22.5386 80.8426L25.2052 83.8241ZM25.1387 83.8833L25.2016 83.8274L22.5423 80.8393L22.4794 80.8953L25.1387 83.8833ZM25.1143 83.9048L25.1332 83.8882L22.4849 80.8905L22.466 80.9071L25.1143 83.9048ZM20.2987 81.4788C21.2881 82.6061 21.7828 83.1698 22.0302 83.4516C22.1538 83.5925 22.2158 83.6631 22.2468 83.6984C22.2621 83.7158 22.2705 83.7255 22.2752 83.7308C22.2765 83.7323 22.2809 83.7373 22.2854 83.7423C22.2868 83.7439 22.2896 83.7471 22.2932 83.7511C22.2956 83.7537 22.3045 83.7636 22.3161 83.7761C22.3218 83.7822 22.3338 83.7951 22.3493 83.811C22.3596 83.8215 22.3977 83.8605 22.4497 83.907C22.4757 83.9301 22.5282 83.9759 22.5991 84.0278C22.6553 84.069 22.8108 84.18 23.0359 84.2703C23.2807 84.3686 23.7452 84.4961 24.3043 84.3445C24.5072 84.2777 24.8039 84.1327 24.9026 84.07C24.9995 84 25.0921 83.9243 25.0922 83.9243L22.4694 80.9042C22.4694 80.9041 22.562 80.8285 22.6589 80.7585C22.7576 80.6957 23.0544 80.5508 23.2573 80.484C23.8164 80.3323 24.2808 80.4599 24.5257 80.5581C24.7508 80.6485 24.9062 80.7595 24.9625 80.8007C25.0334 80.8526 25.0859 80.8983 25.1119 80.9215C25.1639 80.9679 25.2019 81.0069 25.2122 81.0174C25.2277 81.0333 25.2397 81.0461 25.2454 81.0522C25.2569 81.0646 25.2657 81.0745 25.2679 81.0769C25.2714 81.0807 25.274 81.0838 25.2752 81.0851C25.2787 81.089 25.2812 81.0918 25.2786 81.0889C25.2755 81.0854 25.2685 81.0774 25.2529 81.0596C25.2221 81.0245 25.1603 80.9542 25.0366 80.8132C24.7892 80.5313 24.2945 79.9676 23.305 78.8402L20.2987 81.4788ZM18.3954 46H2.90625V50H18.3954V46ZM27.0612 81.876L27.0679 81.8679L23.9898 79.3135L23.9831 79.3216L27.0612 81.876ZM25.1017 83.9159L25.1111 83.9077L22.4692 80.9043L22.4598 80.9125L25.1017 83.9159Z" fill="white" mask="url(#path-8-outside-1_0_156)"/>
</g>
<path fill-rule="evenodd" clip-rule="evenodd" d="M23.0696 61.8676L27.2777 55.6594L30.2078 64.169L23.0696 61.8676Z" fill="#B0BEC5"/>
<defs>
<filter id="filter0_d_0_156" x="0.84375" y="46" width="28.2952" height="40.0002" filterUnits="userSpaceOnUse" color-interpolation-filters="sRGB">
<feFlood flood-opacity="0" result="BackgroundImageFix"/>
<feColorMatrix in="SourceAlpha" type="matrix" values="0 0 0 0 0 0 0 0 0 0 0 0 0 0 0 0 0 0 127 0" result="hardAlpha"/>
<feOffset/>
<feColorMatrix type="matrix" values="0 0 0 0 1 0 0 0 0 1 0 0 0 0 1 0 0 0 1 0"/>
<feBlend mode="normal" in2="BackgroundImageFix" result="effect1_dropShadow_0_156"/>
<feBlend mode="normal" in="SourceGraphic" in2="effect1_dropShadow_0_156" result="shape"/>
</filter>
</defs>
</svg>
