<svg width="106" height="94" viewBox="0 0 106 94" fill="none" xmlns="http://www.w3.org/2000/svg">
<path fill-rule="evenodd" clip-rule="evenodd" d="M17.5638 73.8686C18.2503 75.4251 18.1198 77.2458 17.2193 78.676L15.8019 80.1595C13.9729 81.4085 11.5844 81.253 9.91528 79.7762C3.79465 71.5369 0.321885 61.4582 0 51H9.50951C9.83269 59.3285 12.6525 67.3347 17.5638 73.8686Z" fill="#D32F2F"/>
<path fill-rule="evenodd" clip-rule="evenodd" d="M9.74632 48H0C0.384266 35.6875 5.04803 23.9487 13.1108 15L20 22.1845C13.759 29.2297 10.1222 38.3859 9.74632 48Z" fill="#FF9800"/>
<path fill-rule="evenodd" clip-rule="evenodd" d="M15 13.1108C23.9948 5.02967 35.7194 0.37154 48 0V9.74616C38.41 10.1119 29.2639 13.7445 22.1834 20L15 13.1108Z" fill="#FDD835"/>
<path fill-rule="evenodd" clip-rule="evenodd" d="M52 0C64.2804 0.371317 76.0049 5.02896 85 13.1095L77.8152 20C70.7347 13.7453 61.5893 10.1131 52 9.74712V0Z" fill="#AEEA00"/>
<g filter="url(#filter0_d_0_66)">
<path fill-rule="evenodd" clip-rule="evenodd" d="M80 22.1849L86.8897 15C94.9521 23.9489 99.6157 35.6876 100 48H90.2528C89.8772 38.3862 86.2408 29.2301 80 22.1849Z" fill="#4EB900"/>
</g>
<g filter="url(#filter1_d_0_66)">
<mask id="path-6-outside-1_0_66" maskUnits="userSpaceOnUse" x="77" y="45.9999" width="29" height="41" fill="black">
<rect fill="white" x="77" y="45.9999" width="29" height="41"/>
<path fill-rule="evenodd" clip-rule="evenodd" d="M100 51.0003C99.678 61.4584 96.2053 71.537 90.0848 79.7762C88.4136 81.2548 86.0216 81.4087 84.1921 80.1553L82.7851 78.6831C81.8807 77.252 81.7485 75.4279 82.4361 73.8687C87.3473 67.3347 90.1669 59.3285 90.4899 51L100 51.0003Z"/>
<path fill-rule="evenodd" clip-rule="evenodd" d="M103.094 48.0003L102.999 51.0926C102.658 62.1506 98.9865 72.8239 92.4931 81.5652L92.3067 81.8161L92.0727 82.0231C89.3803 84.4051 85.471 84.668 82.4965 82.6302L82.239 82.4537L80.4093 80.5392L80.2492 80.2858C78.8067 78.0035 78.6037 75.1241 79.6912 72.6581L79.8306 72.3422L80.038 72.0662C84.5747 66.0304 87.1923 58.615 87.4921 50.8838L87.604 47.9999L103.094 48.0003ZM100 51.0003L90.4899 51C90.1669 59.3285 87.3473 67.3347 82.4361 73.8687C81.7485 75.4279 81.8807 77.252 82.7851 78.6831L84.1921 80.1553C86.0216 81.4087 88.4136 81.2548 90.0848 79.7762C95.6178 72.3279 98.9869 63.3764 99.8206 54.0003C99.9091 53.0046 99.9691 52.0042 100 51.0003Z"/>
</mask>
<path fill-rule="evenodd" clip-rule="evenodd" d="M100 51.0003C99.678 61.4584 96.2053 71.537 90.0848 79.7762C88.4136 81.2548 86.0216 81.4087 84.1921 80.1553L82.7851 78.6831C81.8807 77.252 81.7485 75.4279 82.4361 73.8687C87.3473 67.3347 90.1669 59.3285 90.4899 51L100 51.0003Z" fill="#2E7D32"/>
<path fill-rule="evenodd" clip-rule="evenodd" d="M103.094 48.0003L102.999 51.0926C102.658 62.1506 98.9865 72.8239 92.4931 81.5652L92.3067 81.8161L92.0727 82.0231C89.3803 84.4051 85.471 84.668 82.4965 82.6302L82.239 82.4537L80.4093 80.5392L80.2492 80.2858C78.8067 78.0035 78.6037 75.1241 79.6912 72.6581L79.8306 72.3422L80.038 72.0662C84.5747 66.0304 87.1923 58.615 87.4921 50.8838L87.604 47.9999L103.094 48.0003ZM100 51.0003L90.4899 51C90.1669 59.3285 87.3473 67.3347 82.4361 73.8687C81.7485 75.4279 81.8807 77.252 82.7851 78.6831L84.1921 80.1553C86.0216 81.4087 88.4136 81.2548 90.0848 79.7762C95.6178 72.3279 98.9869 63.3764 99.8206 54.0003C99.9091 53.0046 99.9691 52.0042 100 51.0003Z" fill="#2E7D32"/>
<path d="M84.1921 80.1553L83.4691 80.8462L83.541 80.9214L83.6269 80.9803L84.1921 80.1553ZM82.7851 78.6831L81.9398 79.2173L81.9932 79.3018L82.0622 79.374L82.7851 78.6831ZM82.4361 73.8687L81.6368 73.2678L81.5676 73.3598L81.5212 73.4651L82.4361 73.8687ZM90.4899 51L90.4899 50L89.5279 50L89.4906 50.9613L90.4899 51ZM89.4222 79.0273C88.0913 80.2048 86.2051 80.3223 84.7573 79.3303L83.6269 80.9803C85.8381 82.4951 88.7358 82.3049 90.7475 80.5252L89.4222 79.0273ZM84.915 79.4644L83.5081 77.9922L82.0622 79.374L83.4691 80.8462L84.915 79.4644ZM83.6305 78.1489C82.9053 77.0015 82.7967 75.5292 83.3511 74.2722L81.5212 73.4651C80.7002 75.3267 80.856 77.5025 81.9398 79.2173L83.6305 78.1489ZM83.2355 74.4695C88.2714 67.7695 91.1584 59.5663 91.4891 51.0388L89.4906 50.9613C89.1753 59.0907 86.4231 66.8999 81.6368 73.2678L83.2355 74.4695ZM90.4899 52L99.9999 52.0003L100 50.0003L90.4899 50L90.4899 52ZM102.999 51.0926L100.999 51.031L100.999 51.031L102.999 51.0926ZM103.094 48.0003L105.093 48.0619L105.156 46.0004L103.094 46.0003L103.094 48.0003ZM92.4931 81.5652L90.8876 80.3726L90.8876 80.3726L92.4931 81.5652ZM92.3067 81.8161L93.632 83.314L93.788 83.1759L93.9122 83.0087L92.3067 81.8161ZM92.0727 82.0231L90.7475 80.5252L90.7475 80.5252L92.0727 82.0231ZM82.4965 82.6302L83.6269 80.9803L83.6269 80.9803L82.4965 82.6302ZM82.239 82.4537L80.7931 83.8355L80.9369 83.986L81.1086 84.1037L82.239 82.4537ZM80.4093 80.5392L78.7186 81.6077L78.8253 81.7765L78.9634 81.921L80.4093 80.5392ZM80.2492 80.2858L78.5585 81.3543L78.5585 81.3543L80.2492 80.2858ZM79.6912 72.6581L81.5212 73.4651L81.5212 73.4651L79.6912 72.6581ZM79.8306 72.3422L78.2318 71.1405L78.0935 71.3245L78.0006 71.5351L79.8306 72.3422ZM80.038 72.0662L78.4393 70.8645L78.4393 70.8645L80.038 72.0662ZM87.4921 50.8838L85.4936 50.8062L85.4936 50.8062L87.4921 50.8838ZM87.604 47.9999L87.604 45.9999L85.68 45.9999L85.6055 47.9224L87.604 47.9999ZM99.8206 54.0003L97.8285 53.8231L97.8285 53.8231L99.8206 54.0003ZM98.0009 50.9387C97.6913 60.997 94.3512 70.6791 88.4793 78.5836L91.6903 80.9689C98.0595 72.3949 101.665 61.9199 101.999 51.0618L98.0009 50.9387ZM104.998 51.1541L105.093 48.0619L101.095 47.9388L100.999 51.031L104.998 51.1541ZM94.0986 82.7578C100.841 73.6818 104.645 62.612 104.998 51.1541L100.999 51.031C100.671 61.6891 97.1324 71.966 90.8876 80.3726L94.0986 82.7578ZM93.9122 83.0087L94.0986 82.7578L90.8876 80.3726L90.7012 80.6234L93.9122 83.0087ZM93.3979 83.521L93.632 83.314L90.9815 80.3181L90.7475 80.5252L93.3979 83.521ZM81.3662 84.2801C85.1044 86.8412 90.0252 86.5049 93.3979 83.521L90.7475 80.5252C88.7353 82.3054 85.8376 82.4948 83.6269 80.9803L81.3662 84.2801ZM81.1086 84.1037L81.3662 84.2801L83.6269 80.9803L83.3693 80.8038L81.1086 84.1037ZM78.5585 81.3543L78.7186 81.6077L82.0999 79.4707L81.9398 79.2173L78.5585 81.3543ZM77.8613 71.8511C76.5072 74.9214 76.7573 78.5044 78.5585 81.3543L81.9398 79.2173C80.8561 77.5027 80.7001 75.3268 81.5212 73.4651L77.8613 71.8511ZM78.0006 71.5351L77.8613 71.8511L81.5212 73.4651L81.6605 73.1492L78.0006 71.5351ZM78.4393 70.8645L78.2318 71.1405L81.4293 73.5438L81.6368 73.2678L78.4393 70.8645ZM85.4936 50.8062C85.2092 58.1394 82.7264 65.1608 78.4393 70.8645L81.6368 73.2678C86.4231 66.9 89.1753 59.0907 89.4906 50.9613L85.4936 50.8062ZM85.6055 47.9224L85.4936 50.8062L89.4906 50.9613L89.6025 48.0774L85.6055 47.9224ZM97.8285 53.8231C97.0267 62.8398 93.7873 71.4382 88.4793 78.5836L91.6903 80.9689C97.4483 73.2177 100.947 63.9131 101.813 54.1774L97.8285 53.8231ZM98.0009 50.9387C97.9712 51.904 97.9136 52.8659 97.8285 53.8231L101.813 54.1774C101.905 53.1434 101.967 52.1044 101.999 51.0618L98.0009 50.9387ZM78.9634 81.921L80.7931 83.8355L83.6849 81.0719L81.8551 79.1574L78.9634 81.921ZM103.094 46.0003L87.604 45.9999L87.6039 49.9999L103.094 50.0003L103.094 46.0003Z" fill="white" mask="url(#path-6-outside-1_0_66)"/>
</g>
<path d="M64.4096 61.024C64.5056 61.312 64.5536 61.616 64.5536 61.936C64.5536 62.576 64.3296 63.104 63.8816 63.52C63.4656 63.936 62.9696 64.144 62.3936 64.144C61.9456 64.144 61.5296 64.016 61.1456 63.76C60.7936 63.472 60.5056 63.088 60.2816 62.608L57.3056 55.552H42.4736L39.5456 62.656C39.3856 63.136 39.1136 63.504 38.7296 63.76C38.3776 64.016 37.9776 64.144 37.5296 64.144C36.8576 64.144 36.3456 63.968 35.9936 63.616C35.6416 63.264 35.4656 62.784 35.4656 62.176C35.4656 62.048 35.4976 61.792 35.5616 61.408L47.8016 31.744C48.0256 31.232 48.3296 30.848 48.7136 30.592C49.1296 30.304 49.5936 30.192 50.1056 30.256C50.5856 30.256 51.0176 30.384 51.4016 30.64C51.7856 30.896 52.0576 31.264 52.2176 31.744L64.4096 61.024ZM55.4816 51.184L49.8656 37.744L44.2976 51.184H55.4816Z" fill="#2E7D32"/>
<path d="M36.3046 88.474C36.4166 88.614 36.4726 88.7633 36.4726 88.922C36.4726 89.034 36.4399 89.1413 36.3746 89.244C36.3186 89.3373 36.2393 89.412 36.1366 89.468C35.8006 89.6547 35.4226 89.8087 35.0026 89.93C34.5826 90.0513 34.1626 90.1213 33.7426 90.14L33.1266 91.694C33.0146 91.946 32.8513 92.072 32.6366 92.072C32.4873 92.072 32.3193 92.016 32.1326 91.904C31.9459 91.792 31.8526 91.6613 31.8526 91.512C31.8526 91.3813 31.8993 91.2647 31.9926 91.162L32.8186 90.084C32.0253 89.9813 31.3066 89.7153 30.6626 89.286C30.0186 88.8567 29.5099 88.2873 29.1366 87.578C28.7633 86.8593 28.5766 86.0333 28.5766 85.1C28.5766 84.1573 28.7913 83.308 29.2206 82.552C29.6593 81.7867 30.2566 81.1893 31.0126 80.76C31.7779 80.3213 32.6319 80.102 33.5746 80.102C34.4799 80.102 35.3293 80.326 36.1226 80.774C36.3466 80.8953 36.4586 81.082 36.4586 81.334C36.4586 81.502 36.4026 81.656 36.2906 81.796C36.1786 81.9453 36.0246 82.02 35.8286 82.02C35.6979 82.02 35.5719 81.9873 35.4506 81.922C34.8719 81.5953 34.2466 81.432 33.5746 81.432C32.8746 81.432 32.2539 81.586 31.7126 81.894C31.1806 82.202 30.7653 82.636 30.4666 83.196C30.1679 83.7467 30.0186 84.3813 30.0186 85.1C30.0186 85.8747 30.1726 86.542 30.4806 87.102C30.7886 87.662 31.2133 88.0913 31.7546 88.39C32.2959 88.6793 32.9026 88.824 33.5746 88.824C34.2653 88.824 34.8906 88.656 35.4506 88.32C35.5626 88.264 35.6839 88.236 35.8146 88.236C36.0199 88.236 36.1833 88.3153 36.3046 88.474ZM44.8403 86.332C44.8403 87.06 44.677 87.7133 44.3503 88.292C44.0237 88.8707 43.5757 89.3233 43.0063 89.65C42.4463 89.9767 41.8257 90.14 41.1443 90.14C40.463 90.14 39.8377 89.9767 39.2683 89.65C38.7083 89.3233 38.265 88.8707 37.9383 88.292C37.6117 87.7133 37.4483 87.06 37.4483 86.332C37.4483 85.604 37.6117 84.946 37.9383 84.358C38.265 83.77 38.7083 83.3127 39.2683 82.986C39.8377 82.6593 40.463 82.496 41.1443 82.496C41.8257 82.496 42.4463 82.6593 43.0063 82.986C43.5757 83.3127 44.0237 83.77 44.3503 84.358C44.677 84.946 44.8403 85.604 44.8403 86.332ZM43.5103 86.332C43.5103 85.828 43.403 85.38 43.1883 84.988C42.983 84.5867 42.6983 84.2787 42.3343 84.064C41.9797 83.84 41.583 83.728 41.1443 83.728C40.7057 83.728 40.3043 83.84 39.9403 84.064C39.5857 84.2787 39.301 84.5867 39.0863 84.988C38.881 85.38 38.7783 85.828 38.7783 86.332C38.7783 86.8267 38.881 87.27 39.0863 87.662C39.301 88.054 39.5857 88.362 39.9403 88.586C40.3043 88.8007 40.7057 88.908 41.1443 88.908C41.583 88.908 41.9797 88.8007 42.3343 88.586C42.6983 88.362 42.983 88.054 43.1883 87.662C43.403 87.27 43.5103 86.8267 43.5103 86.332ZM52.3786 88.838C52.5186 88.9873 52.5886 89.1507 52.5886 89.328C52.5886 89.5147 52.5139 89.6733 52.3646 89.804C52.2246 89.9253 52.0752 89.986 51.9166 89.986C51.7112 89.986 51.5479 89.9113 51.4266 89.762L48.6686 86.836L47.8286 87.592V89.328C47.8286 89.5147 47.7632 89.6733 47.6326 89.804C47.5112 89.9347 47.3572 90 47.1706 90C46.9746 90 46.8112 89.9347 46.6806 89.804C46.5592 89.6733 46.4986 89.5147 46.4986 89.328V80.312C46.4986 80.1253 46.5592 79.9667 46.6806 79.836C46.8112 79.7053 46.9746 79.64 47.1706 79.64C47.3572 79.64 47.5112 79.7053 47.6326 79.836C47.7632 79.9667 47.8286 80.1253 47.8286 80.312V85.996L51.2586 82.846C51.4172 82.706 51.5806 82.636 51.7486 82.636C51.9072 82.636 52.0519 82.706 52.1826 82.846C52.3132 82.9767 52.3786 83.1167 52.3786 83.266C52.3786 83.4527 52.2899 83.6207 52.1126 83.77L49.6906 85.926L52.3786 88.838ZM59.589 89.314C59.589 89.51 59.519 89.6733 59.379 89.804C59.239 89.9347 59.0757 90 58.889 90C58.6837 90 58.5157 89.9347 58.385 89.804C58.2637 89.6733 58.203 89.51 58.203 89.314V80.872C58.203 80.6853 58.2683 80.5267 58.399 80.396C58.5297 80.2653 58.6977 80.2 58.903 80.2C59.0897 80.2 59.2483 80.2653 59.379 80.396C59.519 80.5267 59.589 80.6853 59.589 80.872V89.314ZM58.903 79.458C58.6417 79.458 58.4503 79.4113 58.329 79.318C58.217 79.2153 58.161 79.052 58.161 78.828V78.604C58.161 78.38 58.2217 78.2213 58.343 78.128C58.4737 78.0253 58.665 77.974 58.917 77.974C59.1877 77.974 59.379 78.0253 59.491 78.128C59.6123 78.2213 59.673 78.38 59.673 78.604V78.828C59.673 79.052 59.6123 79.2153 59.491 79.318C59.3697 79.4113 59.1737 79.458 58.903 79.458ZM67.2001 82.594C67.3961 82.594 67.5548 82.6593 67.6761 82.79C67.8068 82.9207 67.8721 83.0793 67.8721 83.266V89.314C67.8721 90.4807 67.5501 91.3533 66.9061 91.932C66.2621 92.5107 65.4128 92.8 64.3581 92.8C64.0128 92.8 63.6721 92.7673 63.3361 92.702C63.0001 92.6367 62.7248 92.548 62.5101 92.436C62.1648 92.2773 61.9921 92.0627 61.9921 91.792C61.9921 91.7453 62.0014 91.6847 62.0201 91.61C62.0761 91.4513 62.1554 91.33 62.2581 91.246C62.3608 91.162 62.4774 91.12 62.6081 91.12C62.6828 91.12 62.7528 91.134 62.8181 91.162C63.1074 91.2927 63.3641 91.3953 63.5881 91.47C63.8121 91.5447 64.0734 91.582 64.3721 91.582C65.8188 91.582 66.5421 90.84 66.5421 89.356V89.076C66.2901 89.412 65.9634 89.6733 65.5621 89.86C65.1701 90.0467 64.7174 90.14 64.2041 90.14C63.4294 90.14 62.8228 89.8927 62.3841 89.398C61.9548 88.9033 61.7401 88.2547 61.7401 87.452V83.266C61.7401 83.07 61.8008 82.9113 61.9221 82.79C62.0434 82.6593 62.2021 82.594 62.3981 82.594C62.5941 82.594 62.7528 82.6593 62.8741 82.79C63.0048 82.9207 63.0701 83.0793 63.0701 83.266V87.102C63.0701 87.718 63.2054 88.1753 63.4761 88.474C63.7468 88.7633 64.1574 88.908 64.7081 88.908C65.2401 88.908 65.6788 88.74 66.0241 88.404C66.3694 88.068 66.5421 87.634 66.5421 87.102V83.266C66.5421 83.07 66.6028 82.9113 66.7241 82.79C66.8454 82.6593 67.0041 82.594 67.2001 82.594ZM71.1075 89.328C71.1075 89.5147 71.0422 89.6733 70.9115 89.804C70.7902 89.9347 70.6315 90 70.4355 90C70.2488 90 70.0902 89.9347 69.9595 89.804C69.8382 89.6733 69.7775 89.5147 69.7775 89.328V83.266C69.7775 83.0793 69.8382 82.9207 69.9595 82.79C70.0902 82.6593 70.2488 82.594 70.4355 82.594C70.6315 82.594 70.7902 82.6593 70.9115 82.79C71.0422 82.9207 71.1075 83.0793 71.1075 83.266V89.328ZM70.4355 81.67C70.1648 81.67 69.9688 81.6233 69.8475 81.53C69.7355 81.4273 69.6795 81.2687 69.6795 81.054V80.83C69.6795 80.606 69.7402 80.4473 69.8615 80.354C69.9922 80.2607 70.1882 80.214 70.4495 80.214C70.7108 80.214 70.8975 80.2653 71.0095 80.368C71.1308 80.4613 71.1915 80.6153 71.1915 80.83V81.054C71.1915 81.278 71.1308 81.4367 71.0095 81.53C70.8882 81.6233 70.6968 81.67 70.4355 81.67Z" fill="#2E7D32"/>
<path fill-rule="evenodd" clip-rule="evenodd" d="M83.4415 60.3401L76.3445 62.7657L79.1257 54.2062L83.4415 60.3401Z" fill="#B0BEC5"/>
<defs>
<filter id="filter0_d_0_66" x="80" y="15" width="20" height="33" filterUnits="userSpaceOnUse" color-interpolation-filters="sRGB">
<feFlood flood-opacity="0" result="BackgroundImageFix"/>
<feColorMatrix in="SourceAlpha" type="matrix" values="0 0 0 0 0 0 0 0 0 0 0 0 0 0 0 0 0 0 127 0" result="hardAlpha"/>
<feOffset/>
<feColorMatrix type="matrix" values="0 0 0 0 1 0 0 0 0 1 0 0 0 0 1 0 0 0 1 0"/>
<feBlend mode="normal" in2="BackgroundImageFix" result="effect1_dropShadow_0_66"/>
<feBlend mode="normal" in="SourceGraphic" in2="effect1_dropShadow_0_66" result="shape"/>
</filter>
<filter id="filter1_d_0_66" x="77" y="45.9999" width="28.1562" height="40.0003" filterUnits="userSpaceOnUse" color-interpolation-filters="sRGB">
<feFlood flood-opacity="0" result="BackgroundImageFix"/>
<feColorMatrix in="SourceAlpha" type="matrix" values="0 0 0 0 0 0 0 0 0 0 0 0 0 0 0 0 0 0 127 0" result="hardAlpha"/>
<feOffset/>
<feColorMatrix type="matrix" values="0 0 0 0 1 0 0 0 0 1 0 0 0 0 1 0 0 0 1 0"/>
<feBlend mode="normal" in2="BackgroundImageFix" result="effect1_dropShadow_0_66"/>
<feBlend mode="normal" in="SourceGraphic" in2="effect1_dropShadow_0_66" result="shape"/>
</filter>
</defs>
</svg>
