<svg width="106" height="94" viewBox="0 0 106 94" fill="none" xmlns="http://www.w3.org/2000/svg">
<path fill-rule="evenodd" clip-rule="evenodd" d="M23.5638 73.8686C24.2503 75.4251 24.1198 77.2458 23.2193 78.676L21.8019 80.1595C19.9729 81.4085 17.5844 81.253 15.9153 79.7762C9.79465 71.5369 6.32188 61.4582 6 51H15.5095C15.8327 59.3285 18.6525 67.3347 23.5638 73.8686Z" fill="#D32F2F"/>
<path fill-rule="evenodd" clip-rule="evenodd" d="M21 13.1108C29.9948 5.02967 41.7194 0.37154 54 0V9.74616C44.41 10.1119 35.2639 13.7445 28.1834 20L21 13.1108Z" fill="#ECEFF1"/>
<path fill-rule="evenodd" clip-rule="evenodd" d="M58 0C70.2804 0.371317 82.0049 5.02896 91 13.1095L83.8152 20C76.7347 13.7453 67.5893 10.1131 58 9.74712V0Z" fill="#ECEFF1"/>
<path fill-rule="evenodd" clip-rule="evenodd" d="M106 51.0003C105.678 61.4584 102.205 71.537 96.0849 79.7762C94.4136 81.2548 92.0216 81.4087 90.1921 80.1553L88.7852 78.6831C87.8807 77.252 87.7485 75.4279 88.4362 73.8687C93.3473 67.3347 96.1669 59.3285 96.4899 51H105.999L106 51.0003Z" fill="#ECEFF1"/>
<path fill-rule="evenodd" clip-rule="evenodd" d="M86 22.1849L92.8897 15C100.952 23.9489 105.616 35.6876 106 48H96.2528C95.8772 38.3862 92.2408 29.2301 86 22.1849Z" fill="#ECEFF1"/>
<path d="M65.3045 59.584C65.9765 59.584 66.5205 59.808 66.9365 60.256C67.3845 60.704 67.6085 61.232 67.6085 61.84C67.6085 62.48 67.3845 63.008 66.9365 63.424C66.5205 63.808 65.9765 64 65.3045 64H48.6005C47.9605 64 47.4165 63.776 46.9685 63.328C46.5205 62.88 46.2965 62.336 46.2965 61.696V32.704C46.2965 32.064 46.5205 31.52 46.9685 31.072C47.4165 30.624 47.9605 30.4 48.6005 30.4H65.3045C65.9765 30.4 66.5205 30.608 66.9365 31.024C67.3845 31.44 67.6085 31.984 67.6085 32.656C67.6085 33.296 67.3845 33.824 66.9365 34.24C66.5205 34.624 65.9765 34.816 65.3045 34.816H51.0485V44.608H63.1445C63.8165 44.608 64.3605 44.816 64.7765 45.232C65.2245 45.648 65.4485 46.176 65.4485 46.816C65.4485 47.488 65.2245 48.016 64.7765 48.4C64.3605 48.784 63.8165 48.976 63.1445 48.976H51.0485V59.584H65.3045Z" fill="#FF9800"/>
<path d="M47.7392 88.88C47.8326 88.9453 47.9072 89.0293 47.9632 89.132C48.0192 89.2253 48.0472 89.3233 48.0472 89.426C48.0472 89.622 47.9819 89.7667 47.8512 89.86C47.7299 89.9533 47.5806 90 47.4032 90C47.2259 90 47.0766 89.9627 46.9552 89.888C46.6752 89.7293 46.4466 89.4727 46.2692 89.118C46.0919 88.7633 46.0032 88.2407 46.0032 87.55C46.0032 87.0833 45.8632 86.738 45.5832 86.514C45.3032 86.29 44.9392 86.178 44.4912 86.178H41.6632V89.328C41.6632 89.524 41.6072 89.6873 41.4952 89.818C41.3832 89.9393 41.2386 90 41.0612 90C40.8466 90 40.6599 89.9347 40.5012 89.804C40.3519 89.6733 40.2772 89.5147 40.2772 89.328V80.872C40.2772 80.6853 40.3426 80.5267 40.4732 80.396C40.6039 80.2653 40.7626 80.2 40.9492 80.2H44.8832C45.3872 80.2 45.8492 80.326 46.2692 80.578C46.6892 80.8207 47.0252 81.1613 47.2772 81.6C47.5292 82.0293 47.6552 82.5147 47.6552 83.056C47.6552 83.5787 47.5152 84.0687 47.2352 84.526C46.9552 84.974 46.5959 85.31 46.1572 85.534C46.5026 85.7113 46.7732 85.9587 46.9692 86.276C47.1746 86.5933 47.2866 86.962 47.3052 87.382C47.3426 87.914 47.3846 88.278 47.4312 88.474C47.4779 88.6607 47.5806 88.796 47.7392 88.88ZM44.8552 85.016C45.0886 84.9973 45.3079 84.904 45.5132 84.736C45.7279 84.568 45.9006 84.344 46.0312 84.064C46.1619 83.7747 46.2272 83.4527 46.2272 83.098C46.2272 82.65 46.0872 82.272 45.8072 81.964C45.5366 81.6467 45.2052 81.488 44.8132 81.488H41.6632V85.016H44.8552ZM50.8849 89.328C50.8849 89.5147 50.8195 89.6733 50.6889 89.804C50.5675 89.9347 50.4089 90 50.2129 90C50.0262 90 49.8675 89.9347 49.7369 89.804C49.6155 89.6733 49.5549 89.5147 49.5549 89.328V83.266C49.5549 83.0793 49.6155 82.9207 49.7369 82.79C49.8675 82.6593 50.0262 82.594 50.2129 82.594C50.4089 82.594 50.5675 82.6593 50.6889 82.79C50.8195 82.9207 50.8849 83.0793 50.8849 83.266V89.328ZM50.2129 81.67C49.9422 81.67 49.7462 81.6233 49.6249 81.53C49.5129 81.4273 49.4569 81.2687 49.4569 81.054V80.83C49.4569 80.606 49.5175 80.4473 49.6389 80.354C49.7695 80.2607 49.9655 80.214 50.2269 80.214C50.4882 80.214 50.6749 80.2653 50.7869 80.368C50.9082 80.4613 50.9689 80.6153 50.9689 80.83V81.054C50.9689 81.278 50.9082 81.4367 50.7869 81.53C50.6655 81.6233 50.4742 81.67 50.2129 81.67ZM52.3767 88.852C52.2927 88.7213 52.2507 88.5953 52.2507 88.474C52.2507 88.2873 52.3487 88.1287 52.5447 87.998C52.6381 87.9327 52.7454 87.9 52.8667 87.9C53.0347 87.9 53.1887 87.97 53.3287 88.11C53.6087 88.4273 53.9074 88.6653 54.2247 88.824C54.5514 88.9827 54.9387 89.062 55.3867 89.062C55.7414 89.0527 56.0541 88.9733 56.3247 88.824C56.5954 88.6653 56.7307 88.4133 56.7307 88.068C56.7307 87.7507 56.5907 87.508 56.3107 87.34C56.0401 87.172 55.6387 87.018 55.1067 86.878C54.5841 86.738 54.1501 86.5933 53.8047 86.444C53.4594 86.2853 53.1654 86.0613 52.9227 85.772C52.6894 85.4733 52.5727 85.086 52.5727 84.61C52.5727 84.19 52.6894 83.8213 52.9227 83.504C53.1654 83.1867 53.4827 82.9393 53.8747 82.762C54.2761 82.5847 54.7101 82.496 55.1767 82.496C55.6247 82.496 56.0681 82.58 56.5067 82.748C56.9547 82.916 57.3187 83.1727 57.5987 83.518C57.7107 83.6487 57.7667 83.784 57.7667 83.924C57.7667 84.0733 57.6921 84.218 57.5427 84.358C57.4494 84.442 57.3327 84.484 57.1927 84.484C57.0247 84.484 56.8894 84.428 56.7867 84.316C56.5907 84.092 56.3481 83.9193 56.0587 83.798C55.7787 83.6767 55.4661 83.616 55.1207 83.616C54.7661 83.616 54.4627 83.6907 54.2107 83.84C53.9681 83.98 53.8467 84.2227 53.8467 84.568C53.8561 84.8947 53.9961 85.1373 54.2667 85.296C54.5467 85.4547 54.9714 85.6087 55.5407 85.758C56.0354 85.8887 56.4461 86.0287 56.7727 86.178C57.0994 86.3273 57.3747 86.5513 57.5987 86.85C57.8227 87.1393 57.9347 87.522 57.9347 87.998C57.9347 88.4367 57.8087 88.8193 57.5567 89.146C57.3047 89.4633 56.9734 89.7107 56.5627 89.888C56.1614 90.056 55.7321 90.14 55.2747 90.14C54.6867 90.14 54.1407 90.0373 53.6367 89.832C53.1421 89.6267 52.7221 89.3 52.3767 88.852ZM65.4606 88.838C65.6006 88.9873 65.6706 89.1507 65.6706 89.328C65.6706 89.5147 65.5959 89.6733 65.4466 89.804C65.3066 89.9253 65.1573 89.986 64.9986 89.986C64.7933 89.986 64.6299 89.9113 64.5086 89.762L61.7506 86.836L60.9106 87.592V89.328C60.9106 89.5147 60.8453 89.6733 60.7146 89.804C60.5933 89.9347 60.4393 90 60.2526 90C60.0566 90 59.8933 89.9347 59.7626 89.804C59.6413 89.6733 59.5806 89.5147 59.5806 89.328V80.312C59.5806 80.1253 59.6413 79.9667 59.7626 79.836C59.8933 79.7053 60.0566 79.64 60.2526 79.64C60.4393 79.64 60.5933 79.7053 60.7146 79.836C60.8453 79.9667 60.9106 80.1253 60.9106 80.312V85.996L64.3406 82.846C64.4993 82.706 64.6626 82.636 64.8306 82.636C64.9893 82.636 65.1339 82.706 65.2646 82.846C65.3953 82.9767 65.4606 83.1167 65.4606 83.266C65.4606 83.4527 65.3719 83.6207 65.1946 83.77L62.7726 85.926L65.4606 88.838ZM68.6079 89.328C68.6079 89.5147 68.5425 89.6733 68.4119 89.804C68.2812 89.9347 68.1225 90 67.9359 90C67.7492 90 67.5905 89.9347 67.4599 89.804C67.3385 89.6733 67.2779 89.5147 67.2779 89.328V80.312C67.2779 80.1253 67.3432 79.9667 67.4739 79.836C67.6045 79.7053 67.7632 79.64 67.9499 79.64C68.1365 79.64 68.2905 79.7053 68.4119 79.836C68.5425 79.9667 68.6079 80.1253 68.6079 80.312V89.328ZM71.9669 89.328C71.9669 89.5147 71.9016 89.6733 71.7709 89.804C71.6496 89.9347 71.4909 90 71.2949 90C71.1082 90 70.9496 89.9347 70.8189 89.804C70.6976 89.6733 70.6369 89.5147 70.6369 89.328V83.266C70.6369 83.0793 70.6976 82.9207 70.8189 82.79C70.9496 82.6593 71.1082 82.594 71.2949 82.594C71.4909 82.594 71.6496 82.6593 71.7709 82.79C71.9016 82.9207 71.9669 83.0793 71.9669 83.266V89.328ZM71.2949 81.67C71.0242 81.67 70.8282 81.6233 70.7069 81.53C70.5949 81.4273 70.5389 81.2687 70.5389 81.054V80.83C70.5389 80.606 70.5996 80.4473 70.7209 80.354C70.8516 80.2607 71.0476 80.214 71.3089 80.214C71.5702 80.214 71.7569 80.2653 71.8689 80.368C71.9902 80.4613 72.0509 80.6153 72.0509 80.83V81.054C72.0509 81.278 71.9902 81.4367 71.8689 81.53C71.7476 81.6233 71.5562 81.67 71.2949 81.67Z" fill="#FF9800"/>
<g filter="url(#filter0_d_0_102)">
<mask id="path-8-outside-1_0_102" maskUnits="userSpaceOnUse" x="-0.0949707" y="7.59412" width="33" height="46" fill="black">
<rect fill="white" x="-0.0949707" y="7.59412" width="33" height="46"/>
<path fill-rule="evenodd" clip-rule="evenodd" d="M15.7464 48H6.00012C6.38438 35.6874 11.0482 23.9486 19.1109 15L26.0001 22.1845C19.7591 29.2297 16.1223 38.3859 15.7464 48Z"/>
<path fill-rule="evenodd" clip-rule="evenodd" d="M18.6314 51H2.90503L3.00158 47.9064C3.40743 34.9023 8.33282 22.4805 16.8821 12.9919L19.0425 10.5941L30.0793 22.1039L28.2457 24.1738C22.475 30.6881 19.0936 39.1785 18.7441 48.1172L18.6314 51ZM6.17907 45C7.07778 34.8112 10.9092 25.1483 17.1609 17.301C17.7868 16.5154 18.437 15.7479 19.1109 15L26.0001 22.1845C19.7591 29.2297 16.1223 38.3859 15.7464 48H6.00012C6.03146 46.9958 6.09127 45.9954 6.17907 45Z"/>
</mask>
<path fill-rule="evenodd" clip-rule="evenodd" d="M15.7464 48H6.00012C6.38438 35.6874 11.0482 23.9486 19.1109 15L26.0001 22.1845C19.7591 29.2297 16.1223 38.3859 15.7464 48Z" fill="#FF9800"/>
<path fill-rule="evenodd" clip-rule="evenodd" d="M18.6314 51H2.90503L3.00158 47.9064C3.40743 34.9023 8.33282 22.4805 16.8821 12.9919L19.0425 10.5941L30.0793 22.1039L28.2457 24.1738C22.475 30.6881 19.0936 39.1785 18.7441 48.1172L18.6314 51ZM6.17907 45C7.07778 34.8112 10.9092 25.1483 17.1609 17.301C17.7868 16.5154 18.437 15.7479 19.1109 15L26.0001 22.1845C19.7591 29.2297 16.1223 38.3859 15.7464 48H6.00012C6.03146 46.9958 6.09127 45.9954 6.17907 45Z" fill="#FF9800"/>
<path d="M15.7464 48V49H16.7081L16.7457 48.039L15.7464 48ZM26.0001 22.1845L26.7487 22.8476L27.3598 22.1576L26.7219 21.4924L26.0001 22.1845ZM15.7464 47H6.00012V49H15.7464V47ZM18.3891 15.6921L25.2783 22.8766L26.7219 21.4924L19.8327 14.3079L18.3891 15.6921ZM25.2516 21.5214C18.8538 28.7436 15.1319 38.1217 14.7472 47.9609L16.7457 48.039C17.1128 38.6501 20.6644 29.7159 26.7487 22.8476L25.2516 21.5214ZM18.6314 51V53H20.5548L20.6299 51.0781L18.6314 51ZM2.90503 51L0.906003 50.9376L0.841637 53H2.90503V51ZM3.00158 47.9064L5.0006 47.9688L5.0006 47.9688L3.00158 47.9064ZM16.8821 12.9919L15.3962 11.6531L15.3962 11.6531L16.8821 12.9919ZM19.0425 10.5941L20.486 9.20988L18.9968 7.65688L17.5566 9.25537L19.0425 10.5941ZM30.0793 22.1039L31.5763 23.4301L32.7987 22.0503L31.5228 20.7197L30.0793 22.1039ZM28.2457 24.1738L29.7428 25.4999L29.7428 25.4999L28.2457 24.1738ZM18.7441 48.1172L16.7457 48.039L16.7457 48.039L18.7441 48.1172ZM6.17907 45L4.1868 44.8242L4.1868 44.8242L6.17907 45ZM17.1609 17.301L15.5967 16.0548L15.5967 16.0548L17.1609 17.301ZM7.99914 48.0624C8.36902 36.2108 12.8584 24.9274 20.5967 16.3387L17.625 13.6612C9.23793 22.9699 4.39975 35.164 4.00109 47.9376L7.99914 48.0624ZM1.00255 47.844L0.906003 50.9376L4.90406 51.0624L5.0006 47.9688L1.00255 47.844ZM15.3962 11.6531C6.52258 21.5018 1.42279 34.3789 1.00255 47.844L5.0006 47.9688C5.39207 35.4257 10.1431 23.4593 18.3679 14.3306L15.3962 11.6531ZM17.5566 9.25537L15.3962 11.6531L18.3679 14.3306L20.5283 11.9329L17.5566 9.25537ZM29.7428 25.4999L31.5763 23.4301L28.5822 20.7778L26.7487 22.8476L29.7428 25.4999ZM20.7426 48.1953C21.0745 39.7069 24.2856 31.6604 29.7428 25.4999L26.7487 22.8476C20.6644 29.7158 17.1128 38.6501 16.7457 48.039L20.7426 48.1953ZM20.6299 51.0781L20.7426 48.1953L16.7457 48.039L16.633 50.9218L20.6299 51.0781ZM8.17133 45.1757C9.03625 35.37 12.7231 26.0812 18.7252 18.5472L15.5967 16.0548C9.09532 24.2154 5.1193 34.2524 4.1868 44.8242L8.17133 45.1757ZM18.7252 18.5472C19.326 17.793 19.95 17.0565 20.5967 16.3387L17.625 13.6612C16.9239 14.4394 16.2476 15.2377 15.5967 16.0548L18.7252 18.5472ZM7.99914 48.0624C8.0293 47.096 8.08685 46.1334 8.17133 45.1757L4.1868 44.8242C4.09568 45.8573 4.03361 46.8955 4.00109 47.9376L7.99914 48.0624ZM2.90503 53H18.6314V49H2.90503V53ZM31.5228 20.7197L20.486 9.20988L17.5989 11.9784L28.6357 23.4882L31.5228 20.7197Z" fill="white" mask="url(#path-8-outside-1_0_102)"/>
</g>
<path fill-rule="evenodd" clip-rule="evenodd" d="M24.0678 35.6615L31.4074 34.1188L27.6039 42.2756L24.0678 35.6615Z" fill="#B0BEC5"/>
<defs>
<filter id="filter0_d_0_102" x="0.841553" y="7.65686" width="31.9573" height="45.3431" filterUnits="userSpaceOnUse" color-interpolation-filters="sRGB">
<feFlood flood-opacity="0" result="BackgroundImageFix"/>
<feColorMatrix in="SourceAlpha" type="matrix" values="0 0 0 0 0 0 0 0 0 0 0 0 0 0 0 0 0 0 127 0" result="hardAlpha"/>
<feOffset/>
<feColorMatrix type="matrix" values="0 0 0 0 1 0 0 0 0 1 0 0 0 0 1 0 0 0 1 0"/>
<feBlend mode="normal" in2="BackgroundImageFix" result="effect1_dropShadow_0_102"/>
<feBlend mode="normal" in="SourceGraphic" in2="effect1_dropShadow_0_102" result="shape"/>
</filter>
</defs>
</svg>
