<svg width="100" height="100" viewBox="0 0 100 100" fill="none" xmlns="http://www.w3.org/2000/svg">
<path fill-rule="evenodd" clip-rule="evenodd" d="M17.5638 79.8686C18.2503 81.4251 18.1198 83.2458 17.2193 84.676L15.8019 86.1595C13.9729 87.4085 11.5844 87.253 9.91528 85.7762C3.79465 77.5369 0.321885 67.4582 0 57H9.50951C9.83269 65.3285 12.6525 73.3347 17.5638 79.8686Z" fill="#D32F2F"/>
<path fill-rule="evenodd" clip-rule="evenodd" d="M9.74632 54H0C0.384266 41.6875 5.04803 29.9487 13.1108 21L20 28.1845C13.759 35.2297 10.1222 44.3859 9.74632 54Z" fill="#FF9800"/>
<path fill-rule="evenodd" clip-rule="evenodd" d="M15 19.1108C23.9948 11.0297 35.7194 6.37154 48 6V15.7462C38.41 16.1119 29.2639 19.7445 22.1834 26L15 19.1108Z" fill="#FDD835"/>
<path fill-rule="evenodd" clip-rule="evenodd" d="M100 57.0003C99.6781 67.4584 96.2054 77.537 90.0849 85.7762C88.4136 87.2548 86.0216 87.4087 84.1921 86.1553L82.7852 84.6831C81.8807 83.252 81.7485 81.4279 82.4362 79.8687C87.3473 73.3347 90.1669 65.3285 90.4899 57H99.9993L100 57.0003Z" fill="#ECEFF1"/>
<path fill-rule="evenodd" clip-rule="evenodd" d="M80 28.1849L86.8897 21C94.9521 29.9489 99.6157 41.6876 100 54H90.2528C89.8772 44.3862 86.2408 35.2301 80 28.1849Z" fill="#ECEFF1"/>
<path d="M62.6313 38.368C63.3993 38.784 63.7833 39.424 63.7833 40.288C63.7833 40.864 63.5913 41.392 63.2073 41.872C62.8233 42.384 62.2953 42.64 61.6233 42.64C61.1753 42.64 60.7433 42.528 60.3273 42.304C58.3433 41.184 56.1993 40.624 53.8953 40.624C51.4953 40.624 49.3673 41.152 47.5113 42.208C45.6873 43.264 44.2633 44.752 43.2393 46.672C42.2153 48.56 41.7033 50.736 41.7033 53.2C41.7033 55.856 42.2313 58.144 43.2873 60.064C44.3433 61.984 45.7993 63.456 47.6553 64.48C49.5113 65.472 51.5913 65.968 53.8953 65.968C56.2633 65.968 58.4073 65.392 60.3273 64.24C60.7113 64.048 61.1273 63.952 61.5753 63.952C62.2793 63.952 62.8393 64.224 63.2553 64.768C63.6393 65.248 63.8313 65.76 63.8313 66.304C63.8313 66.688 63.7193 67.056 63.4953 67.408C63.3033 67.728 63.0313 67.984 62.6793 68.176C61.4313 68.88 60.0233 69.44 58.4553 69.856C56.9193 70.272 55.3993 70.48 53.8953 70.48C50.7913 70.48 47.9273 69.792 45.3033 68.416C42.7113 67.04 40.6313 65.04 39.0633 62.416C37.5273 59.792 36.7593 56.72 36.7593 53.2C36.7593 49.968 37.4953 47.056 38.9673 44.464C40.4713 41.84 42.5193 39.792 45.1113 38.32C47.7353 36.816 50.6633 36.064 53.8953 36.064C56.9993 36.064 59.9113 36.832 62.6313 38.368Z" fill="#AEEA00"/>
<path d="M45.5558 95.314C45.5558 95.51 45.4858 95.6733 45.3458 95.804C45.2058 95.9347 45.0425 96 44.8558 96C44.6505 96 44.4825 95.9347 44.3518 95.804C44.2305 95.6733 44.1698 95.51 44.1698 95.314V86.872C44.1698 86.6853 44.2351 86.5267 44.3658 86.396C44.4965 86.2653 44.6645 86.2 44.8698 86.2C45.0565 86.2 45.2151 86.2653 45.3458 86.396C45.4858 86.5267 45.5558 86.6853 45.5558 86.872V95.314ZM44.8698 85.458C44.6085 85.458 44.4171 85.4113 44.2958 85.318C44.1838 85.2153 44.1278 85.052 44.1278 84.828V84.604C44.1278 84.38 44.1885 84.2213 44.3098 84.128C44.4405 84.0253 44.6318 83.974 44.8838 83.974C45.1545 83.974 45.3458 84.0253 45.4578 84.128C45.5791 84.2213 45.6398 84.38 45.6398 84.604V84.828C45.6398 85.052 45.5791 85.2153 45.4578 85.318C45.3365 85.4113 45.1405 85.458 44.8698 85.458ZM53.1669 88.594C53.3629 88.594 53.5216 88.6593 53.6429 88.79C53.7736 88.9207 53.8389 89.0793 53.8389 89.266V95.314C53.8389 96.4807 53.5169 97.3533 52.8729 97.932C52.2289 98.5107 51.3796 98.8 50.3249 98.8C49.9796 98.8 49.6389 98.7673 49.3029 98.702C48.9669 98.6367 48.6916 98.548 48.4769 98.436C48.1316 98.2773 47.9589 98.0627 47.9589 97.792C47.9589 97.7453 47.9682 97.6847 47.9869 97.61C48.0429 97.4513 48.1222 97.33 48.2249 97.246C48.3276 97.162 48.4442 97.12 48.5749 97.12C48.6496 97.12 48.7196 97.134 48.7849 97.162C49.0742 97.2927 49.3309 97.3953 49.5549 97.47C49.7789 97.5447 50.0402 97.582 50.3389 97.582C51.7856 97.582 52.5089 96.84 52.5089 95.356V95.076C52.2569 95.412 51.9302 95.6733 51.5289 95.86C51.1369 96.0467 50.6842 96.14 50.1709 96.14C49.3962 96.14 48.7896 95.8927 48.3509 95.398C47.9216 94.9033 47.7069 94.2547 47.7069 93.452V89.266C47.7069 89.07 47.7676 88.9113 47.8889 88.79C48.0102 88.6593 48.1689 88.594 48.3649 88.594C48.5609 88.594 48.7196 88.6593 48.8409 88.79C48.9716 88.9207 49.0369 89.0793 49.0369 89.266V93.102C49.0369 93.718 49.1722 94.1753 49.4429 94.474C49.7136 94.7633 50.1242 94.908 50.6749 94.908C51.2069 94.908 51.6456 94.74 51.9909 94.404C52.3362 94.068 52.5089 93.634 52.5089 93.102V89.266C52.5089 89.07 52.5696 88.9113 52.6909 88.79C52.8122 88.6593 52.9709 88.594 53.1669 88.594ZM57.0743 95.328C57.0743 95.5147 57.009 95.6733 56.8783 95.804C56.757 95.9347 56.5983 96 56.4023 96C56.2156 96 56.057 95.9347 55.9263 95.804C55.805 95.6733 55.7443 95.5147 55.7443 95.328V89.266C55.7443 89.0793 55.805 88.9207 55.9263 88.79C56.057 88.6593 56.2156 88.594 56.4023 88.594C56.5983 88.594 56.757 88.6593 56.8783 88.79C57.009 88.9207 57.0743 89.0793 57.0743 89.266V95.328ZM56.4023 87.67C56.1316 87.67 55.9356 87.6233 55.8143 87.53C55.7023 87.4273 55.6463 87.2687 55.6463 87.054V86.83C55.6463 86.606 55.707 86.4473 55.8283 86.354C55.959 86.2607 56.155 86.214 56.4163 86.214C56.6776 86.214 56.8643 86.2653 56.9763 86.368C57.0976 86.4613 57.1583 86.6153 57.1583 86.83V87.054C57.1583 87.278 57.0976 87.4367 56.9763 87.53C56.855 87.6233 56.6636 87.67 56.4023 87.67Z" fill="#AEEA00"/>
<g filter="url(#filter0_d_0_84)">
<mask id="path-8-outside-1_0_84" maskUnits="userSpaceOnUse" x="47" y="-0.0921021" width="46" height="33" fill="black">
<rect fill="white" x="47" y="-0.0921021" width="46" height="33"/>
<path fill-rule="evenodd" clip-rule="evenodd" d="M52 5.99998C64.2804 6.3713 76.0049 11.0289 85 19.1095L77.8152 26C70.7347 19.7453 61.5893 16.1131 52 15.7471V5.99998Z"/>
<path fill-rule="evenodd" clip-rule="evenodd" d="M49 2.9079L52.0907 3.00135C65.0672 3.39372 77.4731 8.31516 87.0048 16.8778L89.4091 19.0376L77.8987 30.0766L75.8291 28.2484C69.2762 22.4597 60.7951 19.0849 51.8856 18.7449L49 18.6348V2.9079ZM52 5.99998V15.7471C61.5893 16.1131 70.7347 19.7453 77.8152 26L85 19.1095C84.2507 18.4364 83.4825 17.787 82.6966 17.1619C74.8191 10.8963 65.1653 7.06701 55 6.17656C54.0045 6.08936 53.0041 6.03034 52 5.99998Z"/>
</mask>
<path fill-rule="evenodd" clip-rule="evenodd" d="M52 5.99998C64.2804 6.3713 76.0049 11.0289 85 19.1095L77.8152 26C70.7347 19.7453 61.5893 16.1131 52 15.7471V5.99998Z" fill="#AEEA00"/>
<path fill-rule="evenodd" clip-rule="evenodd" d="M49 2.9079L52.0907 3.00135C65.0672 3.39372 77.4731 8.31516 87.0048 16.8778L89.4091 19.0376L77.8987 30.0766L75.8291 28.2484C69.2762 22.4597 60.7951 19.0849 51.8856 18.7449L49 18.6348V2.9079ZM52 5.99998V15.7471C61.5893 16.1131 70.7347 19.7453 77.8152 26L85 19.1095C84.2507 18.4364 83.4825 17.787 82.6966 17.1619C74.8191 10.8963 65.1653 7.06701 55 6.17656C54.0045 6.08936 53.0041 6.03034 52 5.99998Z" fill="#AEEA00"/>
<path d="M77.8152 26L77.1532 26.7494L77.843 27.3588L78.5074 26.7217L77.8152 26ZM52 15.7471H51V16.7097L51.9619 16.7464L52 15.7471ZM84.3078 18.3878L77.123 25.2782L78.5074 26.7217L85.6922 19.8312L84.3078 18.3878ZM78.4773 25.2505C71.2209 18.8405 61.8541 15.1224 52.0381 14.7478L51.9619 16.7464C61.3246 17.1037 70.2486 20.6501 77.1532 26.7494L78.4773 25.2505ZM53 15.7471V5.99998H51V15.7471H53ZM52.0907 3.00135L52.1511 1.00226L52.0907 3.00135ZM49 2.9079L49.0604 0.908812L47 0.846511V2.9079H49ZM87.0048 16.8778L88.3414 15.3899L88.3414 15.3899L87.0048 16.8778ZM89.4091 19.0376L90.7935 20.4811L92.3486 18.9897L90.7457 17.5498L89.4091 19.0376ZM77.8987 30.0766L76.5746 31.5755L77.9543 32.7943L79.283 31.5201L77.8987 30.0766ZM75.8291 28.2484L77.1532 26.7494L77.1532 26.7494L75.8291 28.2484ZM51.8856 18.7449L51.9619 16.7464L51.8856 18.7449ZM49 18.6348H47V20.5599L48.9237 20.6333L49 18.6348ZM82.6966 17.1619L81.4516 18.7272L81.4516 18.7272L82.6966 17.1619ZM55 6.17656L54.8255 8.16893L55 6.17656ZM51.9396 7.99907C63.7558 8.35635 75.026 12.8381 83.6634 20.5973L86.3366 17.6217C76.9837 9.21975 64.8049 4.38624 52.0604 4.00089L51.9396 7.99907ZM52.1511 1.00226L49.0604 0.908812L48.9396 4.90698L52.0302 5.00044L52.1511 1.00226ZM88.3414 15.3899C78.4519 6.50595 65.5917 1.40866 52.1511 1.00226L52.0302 5.00044C64.5427 5.37877 76.4943 10.1244 85.6683 18.3656L88.3414 15.3899ZM90.7457 17.5498L88.3414 15.3899L85.6683 18.3656L88.0726 20.5255L90.7457 17.5498ZM74.505 29.7473L76.5746 31.5755L79.2228 28.5777L77.1532 26.7494L74.505 29.7473ZM51.8093 20.7435C60.2656 21.0662 68.3038 24.2694 74.505 29.7473L77.1532 26.7494C70.2486 20.6501 61.3246 17.1037 51.9619 16.7464L51.8093 20.7435ZM48.9237 20.6333L51.8093 20.7435L51.9619 16.7464L49.0763 16.6363L48.9237 20.6333ZM81.4516 18.7272C82.2063 19.3275 82.944 19.9511 83.6634 20.5973L86.3366 17.6217C85.5574 16.9217 84.7586 16.2466 83.9415 15.5967L81.4516 18.7272ZM54.8255 8.16893C64.6054 9.02563 73.8858 12.7094 81.4516 18.7272L83.9415 15.5967C75.7525 9.08321 65.7251 5.10839 55.1745 4.18419L54.8255 8.16893ZM51.9396 7.99907C52.9055 8.02827 53.8679 8.08505 54.8255 8.16893L55.1745 4.18419C54.1411 4.09367 53.1027 4.03241 52.0604 4.00089L51.9396 7.99907ZM79.283 31.5201L90.7935 20.4811L88.0248 17.5942L76.5143 28.6331L79.283 31.5201ZM47 2.9079V18.6348H51V2.9079H47Z" fill="white" mask="url(#path-8-outside-1_0_84)"/>
</g>
<path fill-rule="evenodd" clip-rule="evenodd" d="M63.7789 23.8226L65.4495 31.1342L57.2275 27.4735L63.7789 23.8226Z" fill="#B0BEC5"/>
<defs>
<filter id="filter0_d_0_84" x="47" y="0.846497" width="45.3486" height="31.9478" filterUnits="userSpaceOnUse" color-interpolation-filters="sRGB">
<feFlood flood-opacity="0" result="BackgroundImageFix"/>
<feColorMatrix in="SourceAlpha" type="matrix" values="0 0 0 0 0 0 0 0 0 0 0 0 0 0 0 0 0 0 127 0" result="hardAlpha"/>
<feOffset/>
<feColorMatrix type="matrix" values="0 0 0 0 1 0 0 0 0 1 0 0 0 0 1 0 0 0 1 0"/>
<feBlend mode="normal" in2="BackgroundImageFix" result="effect1_dropShadow_0_84"/>
<feBlend mode="normal" in="SourceGraphic" in2="effect1_dropShadow_0_84" result="shape"/>
</filter>
</defs>
</svg>
