<svg width="100" height="81" viewBox="0 0 100 81" fill="none" xmlns="http://www.w3.org/2000/svg">
<path fill-rule="evenodd" clip-rule="evenodd" d="M9.74632 48H0C0.384266 35.6875 5.04803 23.9487 13.1108 15L20 22.1845C13.759 29.2297 10.1222 38.3859 9.74632 48Z" fill="#ECEFF1"/>
<path fill-rule="evenodd" clip-rule="evenodd" d="M15 13.1108C23.9948 5.02967 35.7194 0.37154 48 0V9.74616C38.41 10.1119 29.2639 13.7445 22.1834 20L15 13.1108Z" fill="#ECEFF1"/>
<path fill-rule="evenodd" clip-rule="evenodd" d="M52 0C64.2804 0.371317 76.0049 5.02896 85 13.1095L77.8152 20C70.7347 13.7453 61.5893 10.1131 52 9.74712V0Z" fill="#ECEFF1"/>
<path fill-rule="evenodd" clip-rule="evenodd" d="M100 51.0003C99.6781 61.4584 96.2054 71.537 90.0849 79.7762C88.4136 81.2548 86.0216 81.4087 84.1921 80.1553L82.7852 78.6831C81.8807 77.252 81.7485 75.4279 82.4362 73.8687C87.3473 67.3347 90.1669 59.3285 90.4899 51H99.9993L100 51.0003Z" fill="#ECEFF1"/>
<path fill-rule="evenodd" clip-rule="evenodd" d="M80 22.1849L86.8897 15C94.9521 23.9489 99.6157 35.6876 100 48H90.2528C89.8772 38.3862 86.2408 29.2301 80 22.1849Z" fill="#ECEFF1"/>
<path fill-rule="evenodd" clip-rule="evenodd" d="M17.2193 78.676L15.8019 80.1595C13.9729 81.4085 11.5844 81.253 9.91528 79.7762C3.79465 71.5369 0.321885 61.4582 0 51H9.50951C9.83269 59.3285 12.6525 67.3347 17.5638 73.8686C18.2503 75.4251 18.1198 77.2458 17.2193 78.676Z" fill="#ECEFF1"/>
<path fill-rule="evenodd" clip-rule="evenodd" d="M39.3072 39.6891C41.844 36.0439 45.0752 34 50.0638 34C55.3689 34 61.0315 38.141 61.0315 43.6C61.0315 48.1083 58.0031 49.8559 55.7133 51.1773C54.3213 51.9806 53.2022 52.6264 53.2022 53.6392V54C53.2022 54.8284 52.5307 55.5 51.7022 55.5H47.1728C46.3443 55.5 45.6728 54.8284 45.6728 54V53.3883C45.6728 49.6164 48.464 48.0545 50.6563 46.8276C50.7101 46.7975 50.7635 46.7676 50.8165 46.7379C52.715 45.6736 53.8785 44.9497 53.8785 43.5402C53.8785 41.6757 51.5003 40.4383 49.5775 40.4383C47.1321 40.4383 45.9708 41.5675 44.4052 43.5288C43.8977 44.1647 42.9752 44.2796 42.3269 43.7881L39.6308 41.7438C38.9888 41.257 38.847 40.3504 39.3072 39.6891ZM45.1081 61.6706C45.1081 59.2834 47.0503 57.3412 49.4375 57.3412C51.8248 57.3412 53.767 59.2833 53.767 61.6706C53.767 64.0578 51.8248 66 49.4375 66C47.0503 66 45.1081 64.0578 45.1081 61.6706Z" fill="#B0BEC5"/>
</svg>
