<svg width="100" height="81" viewBox="0 0 100 81" fill="none" xmlns="http://www.w3.org/2000/svg">
<path fill-rule="evenodd" clip-rule="evenodd" d="M9.74632 48H0C0.384266 35.6875 5.04803 23.9487 13.1108 15L20 22.1845C13.759 29.2297 10.1222 38.3859 9.74632 48Z" fill="#ECEFF1"/>
<path fill-rule="evenodd" clip-rule="evenodd" d="M15 13.1108C23.9948 5.02967 35.7194 0.37154 48 0V9.74616C38.41 10.1119 29.2639 13.7445 22.1834 20L15 13.1108Z" fill="#ECEFF1"/>
<path fill-rule="evenodd" clip-rule="evenodd" d="M52 0C64.2804 0.371317 76.0049 5.02896 85 13.1095L77.8152 20C70.7347 13.7453 61.5893 10.1131 52 9.74712V0Z" fill="#ECEFF1"/>
<path fill-rule="evenodd" clip-rule="evenodd" d="M100 51.0003C99.6781 61.4584 96.2054 71.537 90.0849 79.7762C88.4136 81.2548 86.0216 81.4087 84.1921 80.1553L82.7852 78.6831C81.8807 77.252 81.7485 75.4279 82.4362 73.8687C87.3473 67.3347 90.1669 59.3285 90.4899 51H99.9993L100 51.0003Z" fill="#ECEFF1"/>
<path fill-rule="evenodd" clip-rule="evenodd" d="M80 22.1849L86.8897 15C94.9521 23.9489 99.6157 35.6876 100 48H90.2528C89.8772 38.3862 86.2408 29.2301 80 22.1849Z" fill="#ECEFF1"/>
<path fill-rule="evenodd" clip-rule="evenodd" d="M17.2193 78.676L15.8019 80.1595C13.9729 81.4085 11.5844 81.253 9.91528 79.7762C3.79465 71.5369 0.321885 61.4582 0 51H9.50951C9.83269 59.3285 12.6525 67.3347 17.5638 73.8686C18.2503 75.4251 18.1198 77.2458 17.2193 78.676Z" fill="#ECEFF1"/>
<path opacity="0.75" d="M54.5161 48.129C54.5161 50.4115 52.6695 52.2581 50.3871 52.2581C48.1047 52.2581 46.2581 50.4115 46.2581 48.129C46.2581 45.8466 48.1047 44 50.3871 44C52.6695 44 54.5161 45.8466 54.5161 48.129Z" fill="#B0BEC5"/>
<path opacity="0.5" d="M62.6451 44C60.3627 44 58.5161 45.8466 58.5161 48.129C58.5161 50.4115 60.3627 52.2581 62.6451 52.2581C64.9276 52.2581 66.7742 50.4115 66.7742 48.129C66.7742 45.8466 64.9276 44 62.6451 44Z" fill="#B0BEC5"/>
<path d="M38.129 44C35.8466 44 34 45.8466 34 48.129C34 50.4115 35.8466 52.2581 38.129 52.2581C40.4115 52.2581 42.2581 50.4115 42.2581 48.129C42.2581 45.8466 40.4115 44 38.129 44Z" fill="#B0BEC5"/>
</svg>
